<?xml version="1.0" encoding="utf-8"?>
<!-- Generator: Adobe Illustrator 14.0.0, SVG Export Plug-In . SVG Version: 6.00 Build 43363)  -->
<!DOCTYPE svg PUBLIC "-//W3C//DTD SVG 1.0//EN" "http://www.w3.org/TR/2001/REC-SVG-20010904/DTD/svg10.dtd">
<svg version="1.0" id="Layer_1" xmlns="http://www.w3.org/2000/svg" xmlns:xlink="http://www.w3.org/1999/xlink" x="0px" y="0px"
	 width="67.135px" height="100px" viewBox="0 0 67.135 100" enable-background="new 0 0 67.135 100" xml:space="preserve">
<path d="M62.893,48.698c0,0,20.692-48.698-29.325-48.698S4.242,48.698,4.242,48.698s0.215,0.131-3.089,5.32
	c-0.601,0.943,1.244,7.348,2.856,9.105c0.368,0.402,4.098,2.202,4.899,2.598c0.014,0.005,0.024,0.009,0.024,0.009v0.003
	c2.559,1.261,5.117,2.521,7.675,3.781c0.25,0.123,0.367,0.406,0.382,0.667c0.193,3.282,0.386,6.564,0.579,9.847
	c0.059,0.995-1.486,0.989-1.544,0c-0.183-3.118-0.367-6.235-0.55-9.354c-2.116-1.043-4.233-2.086-6.35-3.129
	c0.445,4.169,1.553,14.396,2.156,18.618c0.41,2.865,15.77,13.948,21.51,13.835V100h0.776h0.776v-0.001
	c5.74,0.113,21.101-10.97,21.51-13.835c0.603-4.222,1.711-14.449,2.156-18.618c-2.116,1.043-4.233,2.086-6.35,3.129
	c-0.184,3.118-0.367,6.235-0.551,9.354c-0.058,0.989-1.603,0.995-1.544,0c0.193-3.282,0.386-6.564,0.579-9.847
	c0.016-0.261,0.133-0.544,0.383-0.667c2.558-1.26,5.116-2.521,7.675-3.781V65.73c0,0,0.01-0.004,0.023-0.009
	c0.802-0.396,4.532-2.195,4.9-2.598c1.612-1.758,3.456-8.162,2.855-9.105C62.678,48.829,62.893,48.698,62.893,48.698z
	 M22.737,82.997c0,0.541-0.438,0.979-0.979,0.979s-0.979-0.438-0.979-0.979v-6.215c0-0.541,0.438-0.979,0.979-0.979
	s0.979,0.438,0.979,0.979V82.997z M14.287,56.496c-2.345-0.991-5.406-3.433-3.389-9.311c1.172-3.417,9.298-6.86,12.786-6.264
	c3.512,0.601,4.458,8.186,2.96,10.554C24.862,54.293,17.358,57.793,14.287,56.496z M28.642,84.284c0,0.541-0.438,0.979-0.979,0.979
	c-0.541,0-0.979-0.438-0.979-0.979v-6.215c0-0.541,0.438-0.979,0.979-0.979c0.541,0,0.979,0.438,0.979,0.979V84.284z M34.546,84.798
	c0,0.541-0.438,0.979-0.979,0.979s-0.979-0.438-0.979-0.979v-6.215c0-0.541,0.438-0.979,0.979-0.979s0.979,0.438,0.979,0.979V84.798
	z M33.567,68.964c-1.891,0-3.424-1.533-3.424-3.424s3.421-10.775,3.424-10.783c0.003,0.008,3.425,8.893,3.425,10.783
	S35.459,68.964,33.567,68.964z M40.45,84.284c0,0.541-0.438,0.979-0.979,0.979s-0.979-0.438-0.979-0.979v-6.215
	c0-0.541,0.438-0.979,0.979-0.979s0.979,0.438,0.979,0.979V84.284z M46.355,82.997c0,0.541-0.438,0.979-0.979,0.979
	c-0.54,0-0.979-0.438-0.979-0.979v-6.215c0-0.541,0.438-0.979,0.979-0.979c0.541,0,0.979,0.438,0.979,0.979V82.997z M52.848,56.496
	c-3.071,1.298-10.575-2.202-12.356-5.021c-1.498-2.369-0.552-9.954,2.96-10.554c3.487-0.597,11.613,2.847,12.785,6.264
	C58.254,53.063,55.192,55.504,52.848,56.496z"/>
</svg>
