<?xml version="1.0" encoding="utf-8"?>
<!-- Generator: Adobe Illustrator 14.0.0, SVG Export Plug-In . SVG Version: 6.00 Build 43363)  -->
<!DOCTYPE svg PUBLIC "-//W3C//DTD SVG 1.0//EN" "http://www.w3.org/TR/2001/REC-SVG-20010904/DTD/svg10.dtd">
<svg version="1.0" id="Layer_1" xmlns="http://www.w3.org/2000/svg" xmlns:xlink="http://www.w3.org/1999/xlink" x="0px" y="0px"
	 width="34.32px" height="100px" viewBox="0 0 34.32 100" enable-background="new 0 0 34.32 100" xml:space="preserve">
<path d="M26.652,93.546v-61.29c0.042-1.867,0.753-3.572,2.05-4.708c5.806-5.398,7.268-13.679,3.654-19.971
	C29.11,1.896,22.127-1.067,15.187,0.353l6.697,11.771l-3.732,6.596h-7.145L4.105,6.806c-4.545,5.318-5.397,12.664-2.15,18.306
	c1.665,2.842,4.343,5.196,7.347,6.495c2.637,0.771,4.606,3.125,4.566,6.007v55.932C13.908,97.159,16.77,100,20.3,100
	C23.832,100,26.694,97.159,26.652,93.546z"/>
</svg>
