<?xml version="1.0" encoding="utf-8"?>
<!-- Generator: Adobe Illustrator 14.0.0, SVG Export Plug-In . SVG Version: 6.00 Build 43363)  -->
<!DOCTYPE svg PUBLIC "-//W3C//DTD SVG 1.0//EN" "http://www.w3.org/TR/2001/REC-SVG-20010904/DTD/svg10.dtd">
<svg version="1.0" id="Layer_1" xmlns="http://www.w3.org/2000/svg" xmlns:xlink="http://www.w3.org/1999/xlink" x="0px" y="0px"
	 width="100px" height="68.515px" viewBox="0 0 100 68.515" enable-background="new 0 0 100 68.515" xml:space="preserve">
<polygon points="100,23.895 100,0 76.104,0 76.104,5.435 90.72,5.435 75.971,20.186 24.031,20.186 9.278,5.435 23.896,5.435 
	23.896,0 0,0 0,23.895 5.437,23.895 5.437,9.278 20.244,24.087 20.244,44.43 5.437,59.236 5.437,44.62 0,44.62 0,68.515 
	23.896,68.515 23.896,63.079 9.278,63.079 24.031,48.33 75.971,48.33 90.72,63.079 76.104,63.079 76.104,68.515 100,68.515 
	100,44.62 94.564,44.62 94.564,59.236 79.754,44.43 79.754,24.087 94.564,9.278 94.564,23.895 "/>
</svg>
