<?xml version="1.0" encoding="utf-8"?>
<!-- Generator: Adobe Illustrator 14.0.0, SVG Export Plug-In . SVG Version: 6.00 Build 43363)  -->
<!DOCTYPE svg PUBLIC "-//W3C//DTD SVG 1.0//EN" "http://www.w3.org/TR/2001/REC-SVG-20010904/DTD/svg10.dtd">
<svg version="1.0" id="Layer_1" xmlns="http://www.w3.org/2000/svg" xmlns:xlink="http://www.w3.org/1999/xlink" x="0px" y="0px"
	 width="71.992px" height="100px" viewBox="0 0 71.992 100" enable-background="new 0 0 71.992 100" xml:space="preserve">
<circle cx="35.996" cy="64.004" r="8.09"/>
<path d="M40.427,28.29V16.36h7.255L35.996,0L24.311,16.36h7.254v11.93C13.801,30.481,0,45.657,0,64.004
	C0,83.853,16.147,100,35.996,100s35.996-16.147,35.996-35.996C71.992,45.657,58.191,30.481,40.427,28.29z M35.996,91.139
	c-14.962,0-27.135-12.172-27.135-27.135c0-14.962,12.173-27.135,27.135-27.135s27.135,12.173,27.135,27.135
	C63.131,78.967,50.958,91.139,35.996,91.139z"/>
</svg>
