<?xml version="1.0" encoding="utf-8"?>
<!-- Generator: Adobe Illustrator 14.0.0, SVG Export Plug-In . SVG Version: 6.00 Build 43363)  -->
<!DOCTYPE svg PUBLIC "-//W3C//DTD SVG 1.0//EN" "http://www.w3.org/TR/2001/REC-SVG-20010904/DTD/svg10.dtd">
<svg version="1.0" id="Layer_1" xmlns="http://www.w3.org/2000/svg" xmlns:xlink="http://www.w3.org/1999/xlink" x="0px" y="0px"
	 width="100px" height="29.305px" viewBox="0 0 100 29.305" enable-background="new 0 0 100 29.305" xml:space="preserve">
<path d="M99.624,8.748c-3.681-0.61-9.892-1.625-15.663-2.233c-0.586-0.062-1.644,0.809-2.231,0.761
	c-2.251-0.184-8.28-1.521-8.28-1.521s-2.591-4.031-3.883-4.031c-6.025,0-23.335,0-23.335,0L40.73,0.651h-2.197
	c-0.394,0.389-0.303,0.642-0.807,0.642H26.128c-0.496,0-0.897,0.395-0.911,0.887h-2.359h-6.87c-0.456,1.673-1.667,2.584-3.338,2.883
	v0.125H5.3c0.01-0.118,0.021-0.306-0.01-0.38C4.97,4.039,3.617,1.75,3.617,1.75v-0.9C3.617,0.38,3.14,0,2.552,0
	C1.964,0,1.487,0.38,1.487,0.85v1.356v2.806H0v1.884h1.487h0.127h23.601v0.887c0,0.504,0.409,0.913,0.913,0.913h10.411
	c0.504,0,4.034,1.579,4.529,1.487c0.549-0.102,1.96-0.608,1.96-0.608s2.617,0.111,5.576,0.216c-0.061,6.927-3.555,9.685-9.279,13.38
	l3.959,6.134c3.159-2.039,6.189-4.115,8.532-7.071c2.681-3.385,4.02-7.391,4.087-12.239c0.567,0.198,0.185,2.167,0.628,2.703
	c0.224,0.27,1.244,0.417,1.609,0.461c0.105,0.593,0.624,1.046,1.243,1.046l4.183,0.105h0.004c0.723,0,1.209-0.71,1.209-1.373v-0.043
	c0.316,0.231,0.724,0.493,0.854,0.711c1.006,1.687,2.212,4.811,2.645,6.515c0.105,0.415,0.062,1.378,0.372,1.673
	c0.313,0.298,2.104,0.195,2.721-0.093c0.498-0.232,1.697-0.888,1.665-1.437c-0.086-1.42-2.343-5.17-2.188-7.005
	c0.042-0.508,0.929-1.724,0.929-1.724v-0.744l1.048,0.051c0,0,24.452,8.573,24.793,8.095c0.507-0.709,0.897-3.838,1.251-5.104
	C99.212,12.595,100.681,8.923,99.624,8.748z M4.2,4.437H2.333c-0.224,0-0.406-0.182-0.406-0.406V3.625
	c0-0.224,0.182-0.406,0.406-0.406h1.335C3.892,3.22,4.644,4.437,4.2,4.437z M25.215,5.188h-2.357h-6.769V4.386h6.769l0,0h2.357
	V5.188z M64.475,12.938c0,0.516-0.362,1.068-0.902,1.069l-4.185-0.105c-0.531,0-0.963-0.432-0.963-0.963v-1.69
	c0-0.531,0.432-0.963,0.963-0.963h0.493l2.533,0.08c0.208,0.279,0.333,0.603,0.219,0.961c-0.104,0.326-0.422,1.182-0.829,1.208
	c-0.176,0.012-0.512,0.366-0.223,0.347c1.178-0.078,1.658-1.445,1.764-2.487l0.647,0.021c0.062,0.037,0.12,0.081,0.173,0.13
	c-0.013,0.393-0.03,1.61,0.242,2.022c0.017,0.025,0.04,0.052,0.067,0.08V12.938z"/>
</svg>
