<?xml version="1.0" encoding="utf-8"?>
<!-- Generator: Adobe Illustrator 14.0.0, SVG Export Plug-In . SVG Version: 6.00 Build 43363)  -->
<!DOCTYPE svg PUBLIC "-//W3C//DTD SVG 1.0//EN" "http://www.w3.org/TR/2001/REC-SVG-20010904/DTD/svg10.dtd">
<svg version="1.0" id="Layer_1" xmlns="http://www.w3.org/2000/svg" xmlns:xlink="http://www.w3.org/1999/xlink" x="0px" y="0px"
	 width="94.945px" height="100px" viewBox="0 0 94.945 100" enable-background="new 0 0 94.945 100" xml:space="preserve">
<path d="M29.901,63.726l-0.967,4.447l-8.122-0.387l0.387,8.123l-4.448,0.966c0,0,10.056,21.271,19.144,5.995
	C51.171,73.781,29.901,63.726,29.901,63.726z"/>
<path d="M65.043,63.726l0.967,4.447l8.122-0.387l-0.388,8.123l4.448,0.966c0,0-10.055,21.271-19.144,5.995
	C43.773,73.781,65.043,63.726,65.043,63.726z"/>
<path d="M82.677,21.291c0.029-0.395,0.06-0.79,0.06-1.191c0-8.559-6.938-15.496-15.494-15.496c-2.881,0-5.568,0.8-7.879,2.169
	c-0.897-1.5-2.063-2.817-3.441-3.88c-0.043-0.033-0.086-0.064-0.13-0.096c-0.407-0.307-0.829-0.592-1.27-0.853
	c-0.062-0.037-0.12-0.075-0.181-0.11c-0.954-0.546-1.978-0.981-3.057-1.29c-0.14-0.041-0.284-0.073-0.426-0.109
	c-0.401-0.102-0.809-0.185-1.225-0.25c-0.158-0.025-0.315-0.053-0.475-0.072C48.606,0.045,48.044,0,47.472,0
	c-0.573,0-1.133,0.045-1.689,0.113c-0.159,0.019-0.316,0.047-0.474,0.072c-0.415,0.065-0.823,0.148-1.224,0.25
	c-0.142,0.036-0.287,0.068-0.427,0.109c-1.079,0.309-2.103,0.744-3.056,1.29c-0.061,0.036-0.119,0.074-0.181,0.11
	c-0.441,0.261-0.863,0.546-1.27,0.853c-0.044,0.031-0.087,0.063-0.129,0.096c-1.378,1.063-2.545,2.38-3.441,3.88
	c-2.311-1.369-4.999-2.169-7.88-2.169c-8.557,0-15.494,6.937-15.494,15.496c0,0.401,0.03,0.797,0.06,1.191
	C5.009,24.858,0,32.304,0,40.94c0,12.1,9.808,21.906,21.907,21.906c6.501,0,12.325-2.844,16.332-7.346
	c1.081-0.002,2.154-0.186,3.203-0.61c2.265-0.919-5.406,6.148,2.542,8.494V100h3.489h3.489V63.385
	c7.947-2.346,0.277-9.413,2.542-8.494c1.048,0.425,2.121,0.608,3.202,0.61c4.007,4.502,9.83,7.346,16.332,7.346
	c12.099,0,21.907-9.807,21.907-21.906C94.945,32.304,89.936,24.858,82.677,21.291z M68.732,57.557c-3.33,0-6.447-0.899-9.131-2.465
	c8.884-2.487,17.473-15.243,17.473-15.243s-9.842,9.438-20.03,5.196c-2.188-0.911-6.686,3.642-6.017,2.188
	c3.737-8.113-3.555-20.51-3.555-20.51s-7.292,12.397-3.555,20.51c0.67,1.454-3.828-3.099-6.016-2.188
	c-10.189,4.242-20.031-5.196-20.031-5.196s8.589,12.755,17.473,15.243c-2.683,1.565-5.8,2.465-9.132,2.465
	c-10.062,0-18.219-8.156-18.219-18.219c0-7.182,4.165-13.374,10.202-16.341c-0.025-0.328-0.05-0.657-0.05-0.991
	c0-7.118,5.77-12.886,12.886-12.886c2.396,0,4.631,0.666,6.553,1.804c0.745-1.249,1.715-2.343,2.861-3.227
	c0.036-0.028,0.071-0.054,0.107-0.08c0.338-0.255,0.69-0.492,1.056-0.709c0.051-0.03,0.1-0.062,0.151-0.091
	C42.552,6.362,43.403,6,44.3,5.743c0.117-0.033,0.236-0.061,0.355-0.091c0.334-0.084,0.673-0.153,1.019-0.207
	c0.131-0.021,0.262-0.044,0.394-0.061c0.461-0.056,0.928-0.094,1.404-0.094c0,0,0,0,0,0s0,0,0,0c0.476,0,0.943,0.038,1.404,0.094
	c0.133,0.016,0.264,0.04,0.395,0.061c0.345,0.054,0.684,0.123,1.02,0.207c0.117,0.03,0.236,0.058,0.354,0.091
	c0.897,0.257,1.747,0.619,2.54,1.073c0.052,0.029,0.101,0.061,0.151,0.091c0.365,0.217,0.717,0.454,1.056,0.709
	c0.036,0.026,0.071,0.052,0.107,0.08c1.146,0.884,2.117,1.978,2.861,3.227c1.922-1.139,4.157-1.804,6.554-1.804
	c7.116,0,12.885,5.769,12.885,12.886c0,0.334-0.024,0.663-0.049,0.991c6.035,2.967,10.201,9.16,10.201,16.341
	C86.952,49.4,78.795,57.557,68.732,57.557z"/>
</svg>
