<?xml version="1.0" encoding="utf-8"?>
<!-- Generator: Adobe Illustrator 14.0.0, SVG Export Plug-In . SVG Version: 6.00 Build 43363)  -->
<!DOCTYPE svg PUBLIC "-//W3C//DTD SVG 1.0//EN" "http://www.w3.org/TR/2001/REC-SVG-20010904/DTD/svg10.dtd">
<svg version="1.0" id="Layer_1" xmlns="http://www.w3.org/2000/svg" xmlns:xlink="http://www.w3.org/1999/xlink" x="0px" y="0px"
	 width="94.406px" height="100px" viewBox="0 0 94.406 100" enable-background="new 0 0 94.406 100" xml:space="preserve">
<circle cx="84.467" cy="20.865" r="1.234"/>
<circle cx="88.819" cy="20.865" r="1.235"/>
<circle cx="93.171" cy="20.865" r="1.234"/>
<circle cx="81.267" cy="13.139" r="1.235"/>
<circle cx="84.344" cy="10.062" r="1.235"/>
<circle cx="87.422" cy="6.984" r="1.235"/>
<circle cx="73.542" cy="9.939" r="1.235"/>
<circle cx="73.542" cy="5.587" r="1.235"/>
<circle cx="73.542" cy="1.235" r="1.235"/>
<circle cx="65.817" cy="13.139" r="1.235"/>
<circle cx="62.739" cy="10.062" r="1.235"/>
<circle cx="59.662" cy="6.984" r="1.235"/>
<circle cx="81.267" cy="28.574" r="1.235"/>
<circle cx="84.345" cy="31.652" r="1.235"/>
<circle cx="87.422" cy="34.729" r="1.235"/>
<circle cx="73.542" cy="31.774" r="1.235"/>
<circle cx="73.542" cy="36.126" r="1.235"/>
<circle cx="73.542" cy="40.479" r="1.235"/>
<circle cx="65.817" cy="28.574" r="1.235"/>
<circle cx="62.739" cy="31.652" r="1.235"/>
<circle cx="59.662" cy="34.729" r="1.235"/>
<path d="M44.222,37.259v-6.648c0-1.254-1.017-2.271-2.271-2.271h-7.882c0.497-4.985,4.714-8.891,9.828-8.891
	c2.998,0,5.419,1.244,7.982,2.342c2.689,1.152,5.463,2.34,8.959,2.34c0.358,0,0.726-0.012,1.099-0.039
	c3.13-0.22,11.06-2.272,11.396-2.359l-0.742-2.857c-0.079,0.021-8,2.071-10.86,2.271c-3.313,0.233-5.925-0.886-8.689-2.07
	c-2.725-1.167-5.541-2.581-9.145-2.581c-6.742,0-12.281,5.228-12.788,11.843h-8.117c-1.254,0-2.271,1.017-2.271,2.271v6.648
	C8.598,41.969,0,53.741,0,67.529C0,85.463,14.538,100,32.471,100c17.934,0,32.472-14.537,32.472-32.471
	C64.943,53.741,56.344,41.969,44.222,37.259z"/>
</svg>
