<?xml version="1.0" encoding="utf-8"?>
<!-- Generator: Adobe Illustrator 14.0.0, SVG Export Plug-In . SVG Version: 6.00 Build 43363)  -->
<!DOCTYPE svg PUBLIC "-//W3C//DTD SVG 1.0//EN" "http://www.w3.org/TR/2001/REC-SVG-20010904/DTD/svg10.dtd">
<svg version="1.0" id="Layer_1" xmlns="http://www.w3.org/2000/svg" xmlns:xlink="http://www.w3.org/1999/xlink" x="0px" y="0px"
	 width="100px" height="90.857px" viewBox="0 0 100 90.857" enable-background="new 0 0 100 90.857" xml:space="preserve">
<path d="M92.857,20.144H52.866C58.083,14.625,63.3,9.107,68.518,3.589c1.844-1.95-1.098-4.902-2.947-2.946
	C60.38,6.133,55.19,11.623,50,17.112c-5.19-5.489-10.381-10.979-15.571-16.47c-1.849-1.956-4.791,0.996-2.946,2.946
	C36.7,9.107,41.917,14.625,47.134,20.144H7.143C3.198,20.144,0,23.342,0,27.286v56.428c0,3.945,3.198,7.144,7.143,7.144h85.714
	c3.945,0,7.143-3.198,7.143-7.144V27.286C100,23.342,96.802,20.144,92.857,20.144z M75.714,73.238
	c0,5.786-4.948,10.477-11.053,10.477H18.195c-6.104,0-11.053-4.69-11.053-10.477V37.763c0-5.786,4.949-10.477,11.053-10.477h46.466
	c6.104,0,11.053,4.69,11.053,10.477V73.238z M87.143,53.309c-2.959,0-5.356-2.398-5.356-5.357s2.397-5.357,5.356-5.357
	c2.958,0,5.357,2.398,5.357,5.357S90.101,53.309,87.143,53.309z M87.143,38c-2.959,0-5.356-2.398-5.356-5.357
	c0-2.958,2.397-5.356,5.356-5.356c2.958,0,5.357,2.398,5.357,5.356C92.5,35.602,90.101,38,87.143,38z"/>
</svg>
