<?xml version="1.0" encoding="utf-8"?>
<!-- Generator: Adobe Illustrator 14.0.0, SVG Export Plug-In . SVG Version: 6.00 Build 43363)  -->
<!DOCTYPE svg PUBLIC "-//W3C//DTD SVG 1.0//EN" "http://www.w3.org/TR/2001/REC-SVG-20010904/DTD/svg10.dtd">
<svg version="1.0" id="Layer_1" xmlns="http://www.w3.org/2000/svg" xmlns:xlink="http://www.w3.org/1999/xlink" x="0px" y="0px"
	 width="100px" height="72.798px" viewBox="0 0 100 72.798" enable-background="new 0 0 100 72.798" xml:space="preserve">
<path d="M35.47,0.384C23.773,12.08,12.078,23.775,0.383,35.471c-0.272,0.273-0.381,0.579-0.381,0.876
	C0,36.365,0.001,36.382,0,36.399c0.001,0.017,0,0.034,0.002,0.051c0,0.297,0.108,0.604,0.381,0.876
	C12.078,49.023,23.773,60.718,35.47,72.414c0.809,0.81,2.239,0.217,2.239-0.928c0-23.391,0-46.783,0-70.174
	C37.709,0.167,36.278-0.425,35.47,0.384z"/>
<path d="M55.992,0.422c-0.012-0.013-0.023-0.024-0.034-0.036c-0.013-0.012-0.024-0.024-0.037-0.035C55.711,0.141,55.418,0,55.031,0
	c-3.354,0-6.707,0-10.061,0c-0.716,0-1.312,0.597-1.312,1.312c0,23.391,0,46.783,0,70.174c0,0.716,0.597,1.312,1.312,1.312
	c3.354,0,6.707,0,10.061,0c0.716,0,1.312-0.597,1.312-1.312c0-23.391,0-46.783,0-70.174C56.343,0.926,56.203,0.632,55.992,0.422z"/>
<path d="M99.621,35.471C87.926,23.775,76.23,12.08,64.534,0.384c-0.005-0.004-0.009-0.006-0.013-0.01
	c-0.014-0.011-0.026-0.021-0.04-0.032c-0.442-0.405-0.963-0.417-1.388-0.206c-0.428,0.159-0.765,0.527-0.792,1.103
	c-0.003,0.02-0.005,0.04-0.007,0.06c0,0.005-0.001,0.009-0.001,0.014c0,23.391,0,46.783,0,70.174c0,1.145,1.431,1.737,2.24,0.928
	C76.23,60.718,87.926,49.023,99.621,37.327C100.127,36.821,100.127,35.977,99.621,35.471z"/>
</svg>
