<?xml version="1.0" encoding="utf-8"?>
<!-- Generator: Adobe Illustrator 14.0.0, SVG Export Plug-In . SVG Version: 6.00 Build 43363)  -->
<!DOCTYPE svg PUBLIC "-//W3C//DTD SVG 1.0//EN" "http://www.w3.org/TR/2001/REC-SVG-20010904/DTD/svg10.dtd">
<svg version="1.0" id="Layer_1" xmlns="http://www.w3.org/2000/svg" xmlns:xlink="http://www.w3.org/1999/xlink" x="0px" y="0px"
	 width="68.513px" height="100px" viewBox="0 0 68.513 100" enable-background="new 0 0 68.513 100" xml:space="preserve">
<path d="M34.257,84.548c-1.871,0-3.704-0.091-5.492-0.254V100h10.981V84.294C37.959,84.458,36.126,84.548,34.257,84.548z"/>
<path d="M59.527,30.757h-4.592V17.363v-0.888V2.48c0-1.369-1.595-2.48-3.559-2.48c-1.966,0-3.557,1.111-3.557,2.48v13.994v0.888
	v13.395H20.489V17.363v-0.888V2.48c0-1.369-1.593-2.48-3.557-2.48c-1.965,0-3.557,1.111-3.557,2.48v13.994v0.888v13.395H8.986
	C4.023,30.757,0,34.781,0,39.744v2.189v10.709v9.766c0,10.748,15.337,19.461,34.257,19.461c18.92,0,34.256-8.713,34.256-19.461
	v-9.766V41.933v-2.189C68.513,34.781,64.49,30.757,59.527,30.757z"/>
</svg>
