<?xml version="1.0" encoding="utf-8"?>
<!-- Generator: Adobe Illustrator 14.0.0, SVG Export Plug-In . SVG Version: 6.00 Build 43363)  -->
<!DOCTYPE svg PUBLIC "-//W3C//DTD SVG 1.0//EN" "http://www.w3.org/TR/2001/REC-SVG-20010904/DTD/svg10.dtd">
<svg version="1.0" id="Layer_1" xmlns="http://www.w3.org/2000/svg" xmlns:xlink="http://www.w3.org/1999/xlink" x="0px" y="0px"
	 width="100px" height="52.956px" viewBox="0 0 100 52.956" enable-background="new 0 0 100 52.956" xml:space="preserve">
<path d="M79.33,6.585L79.33,6.585c0.067-0.642,0.023-1.207-0.251-1.506c-0.004-0.005-0.017,0-0.024-0.004
	c-2.33-0.766-6.586,1.086-6.954,3.901c-0.367,2.814,3.271,5.696,5.72,5.557c0.009-0.002,0.018,0.006,0.025,0.002
	c0.293-0.189,0.474-0.617,0.581-1.141l0.015,0.002L79.33,6.585z"/>
<path d="M65.171,11.748c-1.379-2.462-4.93-4.231-8.102-4.225c-9.812,0.021-13.346,3.233-17.057,8.012
	c-0.06,0.077-0.113,0.178-0.157,0.296c-0.42,0.495-0.675,1.132-0.675,1.819c0,1.546,1.289,2.835,2.834,2.835
	c5.829,0,11.657,0,17.485,0c0.294,0,0.578-0.047,0.848-0.133c0.011-0.001,0.021-0.001,0.031-0.002
	C62.302,20.215,67.061,15.123,65.171,11.748z"/>
<path d="M14.536,53.024C6.521,53.024,0,46.502,0,38.488C0,30.472,6.521,23.95,14.536,23.95c8.015,0,14.537,6.522,14.537,14.538
	C29.073,46.502,22.551,53.024,14.536,53.024L14.536,53.024z M14.536,28.812c-5.335,0-9.676,4.34-9.676,9.676
	c0,5.335,4.34,9.675,9.676,9.675c5.336,0,9.676-4.34,9.676-9.675C24.212,33.152,19.872,28.812,14.536,28.812L14.536,28.812z"/>
<path d="M84.147,52.956c-8.741,0-15.854-7.11-15.854-15.853c0-8.741,7.112-15.852,15.854-15.852S100,28.362,100,37.103
	C100,45.845,92.888,52.956,84.147,52.956L84.147,52.956z M84.147,26.11c-6.062,0-10.992,4.931-10.992,10.993
	s4.931,10.991,10.992,10.991s10.993-4.93,10.993-10.991S90.208,26.11,84.147,26.11L84.147,26.11z"/>
<path d="M36.234,15.219c-3.318,0-6.639,0-9.958,0c-1.265,0-2.531,0-3.796,0c-0.998,0-2.046-0.238-3.033-0.353
	c-3.616-0.423-7.231-0.845-10.847-1.268c-1.539-0.18-2.836,1.426-2.836,2.835c0,1.683,1.301,2.656,2.836,2.836
	c3.262,0.382,6.524,0.764,9.786,1.144c1.339,0.157,2.679,0.313,4.018,0.47c0.917,0.108,1.901,0.007,2.821,0.007
	c3.671,0,7.341,0,11.01,0c1.546,0,2.836-1.29,2.836-2.836C39.07,16.509,37.78,15.219,36.234,15.219L36.234,15.219z"/>
<path d="M66.376,8.962c3.093,5.393,6.185,10.787,9.276,16.179c2.424,4.227,4.847,8.451,7.269,12.679
	c0.911,1.584,3.361,0.156,2.449-1.434c-3.091-5.392-6.184-10.785-9.276-16.179c-2.424-4.224-4.847-8.45-7.269-12.676
	C67.916,5.946,65.465,7.373,66.376,8.962L66.376,8.962z"/>
<path d="M67.115,5.595c-0.936-1.711-1.871-3.421-2.809-5.133C64.1,0.084,63.644-0.069,63.24,0.029
	c-2.065,0.499-4.131,0.999-6.197,1.498c-1.184,0.286-0.681,2.108,0.504,1.823c1.821-0.441,3.642-0.88,5.463-1.322
	c0.824,1.508,1.648,3.014,2.473,4.521C66.068,7.619,67.7,6.665,67.115,5.595z"/>
<path d="M66.925,24.67c-6.649,0.004-13.3,0.007-19.951,0.011c-2.436,0.002-4.872,0.003-7.308,0.004
	c-1.031,0.001-1.89,0.859-1.89,1.89s0.859,1.892,1.89,1.89c6.65-0.004,13.3-0.008,19.952-0.012c1.516,0,3.032,0,4.55-0.002
	c-1.982,5.086-3.967,10.171-5.949,15.255c-6.24,0-12.48,0-18.72,0c-0.447,0-0.894,0-1.34,0c-1.803-0.834-3.605-1.668-5.409-2.502
	c-0.935-0.435-2.028-0.273-2.585,0.678c-0.483,0.824-0.257,2.153,0.677,2.586c1.498,0.693,2.994,1.387,4.49,2.079
	c0.612,0.282,1.273,0.693,1.927,0.874c0.351,0.096,0.742,0.066,1.101,0.066c3.559,0,7.116,0,10.674,0c3.488,0,6.976,0,10.464,0
	c0.907,0,1.513-0.594,1.823-1.389c2.373-6.081,4.745-12.164,7.118-18.245c0.103-0.264,0.204-0.528,0.308-0.791
	C69.204,25.897,68.059,24.67,66.925,24.67z"/>
</svg>
