<?xml version="1.0" encoding="utf-8"?>
<!-- Generator: Adobe Illustrator 14.0.0, SVG Export Plug-In . SVG Version: 6.00 Build 43363)  -->
<!DOCTYPE svg PUBLIC "-//W3C//DTD SVG 1.0//EN" "http://www.w3.org/TR/2001/REC-SVG-20010904/DTD/svg10.dtd">
<svg version="1.0" id="Layer_1" xmlns="http://www.w3.org/2000/svg" xmlns:xlink="http://www.w3.org/1999/xlink" x="0px" y="0px"
	 width="100px" height="91.787px" viewBox="0 1.593 100 91.787" enable-background="new 0 1.593 100 91.787" xml:space="preserve">
<g>
	<path d="M95.129,62.673c0.994,1.372,1.581,3.058,1.581,4.88c0,4.603-3.729,8.333-8.333,8.333c-0.844,0-1.658-0.127-2.426-0.36
		c0.234,0.769,0.359,1.583,0.359,2.427c0,4.602-3.729,8.332-8.331,8.332c-2.403,0-4.567-1.019-6.087-2.646
		c-0.854,3.695-4.162,6.452-8.117,6.452s-7.264-2.757-8.117-6.452c-1.52,1.628-3.684,2.646-6.086,2.646
		c-4.603,0-8.332-3.73-8.332-8.332c0-0.844,0.126-1.658,0.36-2.427c-0.768,0.233-1.582,0.36-2.426,0.36
		c-4.603,0-8.333-3.73-8.333-8.333c0-1.823,0.588-3.509,1.581-4.88h-3.796c-0.688,1.484-1.074,3.137-1.074,4.88
		c0,6.025,4.585,10.979,10.457,11.563c0.585,5.872,5.539,10.457,11.563,10.457c1.703,0,3.317-0.369,4.774-1.026
		c2.11,2.927,5.547,4.833,9.431,4.833s7.32-1.906,9.431-4.833c1.457,0.657,3.07,1.026,4.773,1.026
		c6.025,0,10.979-4.584,11.564-10.457C95.414,78.532,100,73.578,100,67.552c0-1.743-0.387-3.396-1.074-4.88H95.129z"/>
</g>
<path d="M82.375,62.673c0.199,0.713,0.311,1.463,0.311,2.24c0,4.602-3.73,8.332-8.332,8.332c-0.846,0-1.66-0.127-2.43-0.361
	c-0.802,3.763-4.146,6.587-8.147,6.587c-4.003,0-7.346-2.823-8.147-6.587c-0.77,0.234-1.586,0.361-2.43,0.361
	c-4.603,0-8.332-3.73-8.332-8.332c0-0.777,0.111-1.526,0.31-2.24h-3.382c-0.142,0.726-0.218,1.473-0.218,2.24
	c0,6.418,5.203,11.621,11.622,11.621c0.095,0,0.188-0.004,0.281-0.006c1.943,3.703,5.824,6.232,10.297,6.232
	s8.354-2.528,10.296-6.232c0.095,0.002,0.188,0.006,0.282,0.006c6.418,0,11.621-5.203,11.621-11.621c0-0.768-0.076-1.515-0.219-2.24
	H82.375z"/>
<path d="M71.076,62.673c-1.42,2.572-4.156,4.314-7.301,4.314s-5.881-1.742-7.3-4.314h-3.608c1.636,4.439,5.902,7.604,10.908,7.604
	s9.272-3.164,10.908-7.604H71.076z"/>
<polygon points="64.922,58.872 62.627,58.872 62.627,33.058 64.922,33.058 "/>
<polygon points="64.922,33.058 72.396,58.872 74.787,58.872 67.312,33.058 "/>
<polygon points="62.627,33.058 55.154,58.872 52.764,58.872 60.236,33.058 "/>
<path d="M47.667,13.218H27.348V6.864c3.04,0,6.078,0,9.116,0c3.399,0,3.399-5.271,0-5.271c-8.421,0-16.841,0-25.261,0
	c-3.399,0-3.399,5.271,0,5.271c3.039,0,6.076,0,9.116,0v6.354H0v14.059h47.667c3.085,0,5.908,1.127,8.092,2.983h16.688
	C68.603,20.308,58.959,13.218,47.667,13.218z"/>
</svg>
