<?xml version="1.0" encoding="utf-8"?>
<!-- Generator: Adobe Illustrator 14.0.0, SVG Export Plug-In . SVG Version: 6.00 Build 43363)  -->
<!DOCTYPE svg PUBLIC "-//W3C//DTD SVG 1.0//EN" "http://www.w3.org/TR/2001/REC-SVG-20010904/DTD/svg10.dtd">
<svg version="1.0" id="Layer_1" xmlns="http://www.w3.org/2000/svg" xmlns:xlink="http://www.w3.org/1999/xlink" x="0px" y="0px"
	 width="100px" height="78.965px" viewBox="0 0 100 78.965" enable-background="new 0 0 100 78.965" xml:space="preserve">
<path d="M39.417,69.017c0-6.798,5.51-12.308,12.308-12.308s12.309,5.51,12.309,12.308c0,1.655-0.329,3.233-0.921,4.675h15.553
	c-0.593-1.441-0.921-3.02-0.921-4.675c0-6.798,5.51-12.308,12.308-12.308c3.255,0,6.212,1.265,8.413,3.328v-0.68V4.207V3.893V0
	h-34.12c-1.736,0-3.271,1.299-6.835,8.401c-1.951,3.887-4.379,9.291-7.217,16.063c-2.807,6.694-6.787,16.788-9.63,24.068V0h-7.011
	v69.484H0v4.207h33.653h6.686C39.746,72.25,39.417,70.672,39.417,69.017z M44.969,49.194C52.576,29.051,61.936,7.118,64.847,4.207
	h29.412v37.266c-0.153-0.02-0.309-0.032-0.468-0.032H73.304c-2.065,0-3.739,1.675-3.739,3.739v4.518H44.708L44.969,49.194z"/>
<circle cx="51.725" cy="69.017" r="9.947"/>
<circle cx="90.053" cy="69.017" r="9.948"/>
<path d="M85.303,40.352H71.747v-4.207h10.124c0.839-4.094,2.918-14.252,2.938-14.352l4.165,0.42c0,0.214,0,0.214-3.327,16.457
	L85.303,40.352L85.303,40.352z"/>
</svg>
