<?xml version="1.0" encoding="utf-8"?>
<!-- Generator: Adobe Illustrator 14.0.0, SVG Export Plug-In . SVG Version: 6.00 Build 43363)  -->
<!DOCTYPE svg PUBLIC "-//W3C//DTD SVG 1.0//EN" "http://www.w3.org/TR/2001/REC-SVG-20010904/DTD/svg10.dtd">
<svg version="1.0" id="Layer_1" xmlns="http://www.w3.org/2000/svg" xmlns:xlink="http://www.w3.org/1999/xlink" x="0px" y="0px"
	 width="71.782px" height="100px" viewBox="0 0 71.782 100" enable-background="new 0 0 71.782 100" xml:space="preserve">
<path d="M21.108,0.069c-0.243,0.062-0.585,0.21-0.964,0.402c-2.083,0.875-6.918,2.92-8.001,3.524
	C10.55,4.882,9.447,6.438,9.447,6.438S8.029,8.806,6.872,9.568c-0.807,0.526-3.641,1.283-3.641,1.283l-2.813,1.165
	c-0.399,0.229-0.535,0.736-0.306,1.135l0.25,0.433l2.599,4.496l0.249,0.436c0.23,0.398,0.739,0.534,1.135,0.305l2.418-1.858
	c0,0,0.146-0.188,0.387-0.473c0.246-1.05,0.788-1.888,1.622-2.349c1.832-1.013,4.462,0.125,6.335,2.568
	c0.408,0.414,0.686,0.718,0.686,0.718l7.959-4.598c0,0-2.042-5.257-1.156-6.978c1.361-2.639,12.987-0.334,12.987-0.334l1.949-0.961
	C37.531,4.557,23.994-0.654,21.108,0.069z"/>
<path d="M34.172,33.108c0,0-7.908-15.975-10.299-18.975c-0.173-0.222-0.544-0.127-0.97,0.106l0,0l-5.597,3.23l0,0
	c-0.443,0.262-0.739,0.547-0.633,0.817c1.404,3.572,11.284,18.408,11.284,18.408S56.396,88.75,62.07,99.718
	c0.213,0.41,0.697,0.331,1.271,0.028l0,0l0.021-0.012c0.084-0.041,0.165-0.092,0.25-0.144l7.2-4.158
	c0.713-0.385,1.168-0.825,0.885-1.271C65.032,83.766,34.172,33.108,34.172,33.108z"/>
</svg>
