<?xml version="1.0" encoding="utf-8"?>
<!-- Generator: Adobe Illustrator 14.0.0, SVG Export Plug-In . SVG Version: 6.00 Build 43363)  -->
<!DOCTYPE svg PUBLIC "-//W3C//DTD SVG 1.0//EN" "http://www.w3.org/TR/2001/REC-SVG-20010904/DTD/svg10.dtd">
<svg version="1.0" id="Layer_1" xmlns="http://www.w3.org/2000/svg" xmlns:xlink="http://www.w3.org/1999/xlink" x="0px" y="0px"
	 width="99.936px" height="26.518px" viewBox="0 0 99.936 26.518" enable-background="new 0 0 99.936 26.518" xml:space="preserve">
<path d="M97.186,3.205C95.216,1.047,91.88,0,86.988,0c-5.59,0-12.075,1.415-15.93,2.627c-4.974,1.561-18.014,7.039-21.09,8.338
	c-3.076-1.3-16.117-6.777-21.091-8.338C25.023,1.415,18.537,0,12.948,0C8.056,0,4.721,1.047,2.751,3.205
	C0.419,5.759-0.188,11.203,0,15.09c0.114,2.346,0.643,6.581,2.915,8.591c2.126,1.882,5.664,2.837,10.514,2.837l0,0
	c5.412,0,11.8-1.212,15.731-2.414c4.925-1.507,17.731-7.007,20.808-8.338c3.077,1.331,15.882,6.831,20.808,8.338
	c3.931,1.202,10.319,2.414,15.732,2.414c4.849,0,8.386-0.955,10.513-2.837c2.272-2.01,2.802-6.245,2.914-8.591
	C100.125,11.203,99.516,5.759,97.186,3.205z M28.041,19.714c-3.657,1.117-9.594,2.246-14.612,2.246
	c-3.764,0-6.569-0.647-7.898-1.825c-0.562-0.497-1.232-2.363-1.375-5.286c-0.191-3.952,0.65-7.447,1.539-8.421
	c0.637-0.698,2.427-1.87,7.253-1.87c5.516,0,11.887,1.538,14.781,2.449c3.437,1.08,11.197,4.236,16.36,6.379
	C39.007,15.538,31.417,18.682,28.041,19.714z M95.779,14.849c-0.14,2.923-0.81,4.789-1.374,5.286
	c-1.328,1.178-4.133,1.825-7.896,1.825c-5.02,0-10.956-1.129-14.614-2.246c-3.375-1.032-10.965-4.176-16.048-6.328
	c5.164-2.143,12.925-5.299,16.359-6.379c2.896-0.911,9.266-2.449,14.782-2.449c4.825,0,6.616,1.172,7.254,1.87
	C95.131,7.401,95.972,10.896,95.779,14.849z"/>
</svg>
