<?xml version="1.0" encoding="utf-8"?>
<!-- Generator: Adobe Illustrator 14.0.0, SVG Export Plug-In . SVG Version: 6.00 Build 43363)  -->
<!DOCTYPE svg PUBLIC "-//W3C//DTD SVG 1.0//EN" "http://www.w3.org/TR/2001/REC-SVG-20010904/DTD/svg10.dtd">
<svg version="1.0" id="Layer_1" xmlns="http://www.w3.org/2000/svg" xmlns:xlink="http://www.w3.org/1999/xlink" x="0px" y="0px"
	 width="100px" height="51.052px" viewBox="0 0 100 51.052" enable-background="new 0 0 100 51.052" xml:space="preserve">
<path d="M94.413,31.111L94.413,31.111c3.084,0,5.587-2.5,5.587-5.585c0-3.086-2.503-5.585-5.587-5.585l0,0V31.111z"/>
<path d="M94.413,2.137V0H7.126c-2.22,0-4.011,2.684-5.321,7.975C0.641,12.677,0,18.908,0,25.526c0,6.617,0.641,12.85,1.805,17.55
	c1.311,5.291,3.101,7.976,5.321,7.976h87.287v-2.138c-1.74,0-4.986-8.033-4.986-23.388S92.673,2.137,94.413,2.137z M89.093,43.076
	c0.634,2.561,1.38,4.506,2.233,5.838h-84.2c-1.74,0-4.988-8.033-4.988-23.388S5.386,2.137,7.126,2.137h84.2
	c-0.854,1.331-1.6,3.277-2.233,5.838c-1.164,4.702-1.805,10.933-1.805,17.551C87.288,32.143,87.929,38.376,89.093,43.076z"/>
<path d="M55.815,25.526c0-10.105,1.939-18.382,4.396-19.101H11.147c-0.115-0.033-0.231-0.052-0.348-0.052
	c-2.62,0-4.741,8.576-4.741,19.153c0,10.577,2.122,19.151,4.741,19.151c0.086,0,0.172-0.009,0.257-0.028h49.248
	C57.803,44.114,55.815,35.757,55.815,25.526z"/>
</svg>
