<?xml version="1.0" encoding="utf-8"?>
<!-- Generator: Adobe Illustrator 14.0.0, SVG Export Plug-In . SVG Version: 6.00 Build 43363)  -->
<!DOCTYPE svg PUBLIC "-//W3C//DTD SVG 1.0//EN" "http://www.w3.org/TR/2001/REC-SVG-20010904/DTD/svg10.dtd">
<svg version="1.0" id="Layer_1" xmlns="http://www.w3.org/2000/svg" xmlns:xlink="http://www.w3.org/1999/xlink" x="0px" y="0px"
	 width="100px" height="92.308px" viewBox="0 0 100 92.308" enable-background="new 0 0 100 92.308" xml:space="preserve">
<rect x="28.172" y="78.314" width="43.658" height="1.977"/>
<path d="M91.438,29.516H80.791V1.976c0-0.52-0.211-1.031-0.579-1.397C79.844,0.209,79.335,0,78.814,0H21.187
	c-0.52,0-1.028,0.209-1.397,0.579c-0.368,0.366-0.579,0.877-0.579,1.397v27.541H8.565C3.833,29.518,0.002,33.35,0,38.081v25.244
	c0.001,4.729,3.833,8.561,8.565,8.563h10.696v18.445c0,0.519,0.21,1.029,0.58,1.397c0.368,0.367,0.877,0.576,1.397,0.576h57.524
	c0.521,0,1.03-0.209,1.397-0.576c0.369-0.368,0.58-0.879,0.58-1.397V71.889h10.697c4.729-0.003,8.562-3.835,8.562-8.563V38.081
	C99.999,33.35,96.167,29.518,91.438,29.516z M76.786,88.356H23.214V66.312h53.572V88.356z M76.838,29.346H23.162V3.951h53.676
	V29.346z"/>
</svg>
