<?xml version="1.0" encoding="utf-8"?>
<!-- Generator: Adobe Illustrator 14.0.0, SVG Export Plug-In . SVG Version: 6.00 Build 43363)  -->
<!DOCTYPE svg PUBLIC "-//W3C//DTD SVG 1.0//EN" "http://www.w3.org/TR/2001/REC-SVG-20010904/DTD/svg10.dtd">
<svg version="1.0" id="Layer_1" xmlns="http://www.w3.org/2000/svg" xmlns:xlink="http://www.w3.org/1999/xlink" x="0px" y="0px"
	 width="100px" height="45.455px" viewBox="0 0 100 45.455" enable-background="new 0 0 100 45.455" xml:space="preserve">
<path d="M77.272,0C64.74,0,54.544,10.196,54.544,22.728c0,5.571,2.018,10.677,5.357,14.633H40.098
	c3.34-3.956,5.357-9.062,5.357-14.633C45.456,10.196,35.26,0,22.728,0C10.195,0,0,10.196,0,22.728
	C0,35.26,10.195,45.455,22.728,45.455h54.544C89.805,45.455,100,35.26,100,22.728C100,10.196,89.805,0,77.272,0z M8.094,22.728
	c0-8.069,6.565-14.634,14.634-14.634c8.069,0,14.634,6.565,14.634,14.634c0,8.069-6.565,14.633-14.634,14.633
	C14.659,37.361,8.094,30.797,8.094,22.728z M77.272,37.361c-8.069,0-14.634-6.564-14.634-14.633c0-8.069,6.564-14.634,14.634-14.634
	s14.635,6.565,14.635,14.634C91.907,30.797,85.341,37.361,77.272,37.361z"/>
</svg>
