<?xml version="1.0" encoding="utf-8"?>
<!-- Generator: Adobe Illustrator 14.0.0, SVG Export Plug-In . SVG Version: 6.00 Build 43363)  -->
<!DOCTYPE svg PUBLIC "-//W3C//DTD SVG 1.0//EN" "http://www.w3.org/TR/2001/REC-SVG-20010904/DTD/svg10.dtd">
<svg version="1.0" id="Layer_1" xmlns="http://www.w3.org/2000/svg" xmlns:xlink="http://www.w3.org/1999/xlink" x="0px" y="0px"
	 width="79.763px" height="100px" viewBox="0 0 79.763 100" enable-background="new 0 0 79.763 100" xml:space="preserve">
<path d="M64.322,40.118v2.21h-7.868v-8.306h-2.961c6.363-2.686,10.829-8.98,10.829-16.32C64.322,7.927,56.397,0,46.622,0
	c-5.974,0-11.253,2.963-14.46,7.497C28.955,2.963,23.677,0,17.701,0C7.926,0,0,7.927,0,17.702c0,7.34,4.466,13.634,10.83,16.32
	H7.807v11.206H1.81v5.997h5.998v11.207h21.262l-1.52,2.096H23.82v3.546h2.078L3.158,100l4.984-0.006l22.772-31.921h3.025L11.198,100
	l4.984-0.006l22.771-31.921h1.487v-3.546h-3.727l-1.522-2.096h21.263v-8.309h7.868v2.213h15.441V40.118H64.322z M24.573,34.022
	c3.069-1.295,5.69-3.429,7.588-6.114c1.897,2.685,4.52,4.818,7.587,6.114H24.573z"/>
</svg>
