<?xml version="1.0" encoding="utf-8"?>
<!-- Generator: Adobe Illustrator 14.0.0, SVG Export Plug-In . SVG Version: 6.00 Build 43363)  -->
<!DOCTYPE svg PUBLIC "-//W3C//DTD SVG 1.0//EN" "http://www.w3.org/TR/2001/REC-SVG-20010904/DTD/svg10.dtd">
<svg version="1.0" id="Layer_1" xmlns="http://www.w3.org/2000/svg" xmlns:xlink="http://www.w3.org/1999/xlink" x="0px" y="0px"
	 width="81.524px" height="100px" viewBox="0 0 81.524 100" enable-background="new 0 0 81.524 100" xml:space="preserve">
<path d="M75.795,0H11.767C9.019,0,6.726,3.382,6.169,7.893c-1.467,0-2.933,0-4.399,0C0.805,7.893,0,8.698,0,9.662
	c0,6.599,0,13.197,0,19.795c0,0.964,0.805,1.77,1.77,1.77c13.414,0,26.828,0,40.242,0c0,6.487,0,12.974,0,19.461h-2.218
	c-1.117,0-2.022,0.905-2.022,2.022v1.909c0,1.117,1.579,2.022,2.696,2.022c0,0,0.06,0.967,0.039,1.348
	c-0.656,11.794-3.158,35.287-2.062,37.854c1.615,3.775,5.328,4.155,5.336,4.156l0,0c0.008-0.001,3.722-0.381,5.336-4.156
	c1.097-2.567-1.405-26.061-2.061-37.854c-0.021-0.381,0.038-1.348,0.038-1.348c1.117,0,2.696-0.905,2.696-2.022V52.71
	c0-1.117-0.905-2.022-2.022-2.022H45.55c0-7.077,0-14.154,0-21.231c0-0.964-0.805-1.769-1.769-1.769c-13.414,0-26.829,0-40.242,0
	c0-5.419,0-10.838,0-16.256c0.854,0,1.708,0,2.562,0c0.396,4.854,2.777,8.59,5.665,8.59h64.028c3.164,0,5.729-4.481,5.729-10.01
	S78.959,0,75.795,0z"/>
</svg>
