<?xml version="1.0" encoding="utf-8"?>
<!-- Generator: Adobe Illustrator 14.0.0, SVG Export Plug-In . SVG Version: 6.00 Build 43363)  -->
<!DOCTYPE svg PUBLIC "-//W3C//DTD SVG 1.0//EN" "http://www.w3.org/TR/2001/REC-SVG-20010904/DTD/svg10.dtd">
<svg version="1.0" id="Layer_1" xmlns="http://www.w3.org/2000/svg" xmlns:xlink="http://www.w3.org/1999/xlink" x="0px" y="0px"
	 width="100px" height="59.117px" viewBox="0 0 100 59.117" enable-background="new 0 0 100 59.117" xml:space="preserve">
<path d="M95.274,8.154C93.743,1.389,78.197-2.362,70.168,1.646C69.447,2.006,68.715,2.464,67.98,3H50H32.02
	c-0.734-0.535-1.467-0.994-2.188-1.353C21.803-2.362,6.257,1.389,4.727,8.154C2.268,18.998-5.156,57.697,5.89,58.969
	c15.378,1.77,22.604-12.621,29.735-23.165H50h14.375c7.132,10.544,14.357,24.935,29.735,23.165
	C105.156,57.697,97.732,18.998,95.274,8.154z M21.768,29.559c-5.038,0-9.123-4.085-9.123-9.123s4.085-9.123,9.123-9.123
	s9.123,4.085,9.123,9.123S26.806,29.559,21.768,29.559z M78.232,29.559c-5.038,0-9.123-4.085-9.123-9.123s4.085-9.123,9.123-9.123
	s9.123,4.085,9.123,9.123S83.271,29.559,78.232,29.559z"/>
<polygon points="28.891,18.436 23.768,18.436 23.768,13.312 19.768,13.312 19.768,18.436 14.644,18.436 14.644,22.435 
	19.768,22.435 19.768,27.559 23.768,27.559 23.768,22.435 28.891,22.435 "/>
<circle cx="81.06" cy="23.263" r="3.031"/>
<circle cx="75.405" cy="17.607" r="3.031"/>
</svg>
