<?xml version="1.0" encoding="utf-8"?>
<!-- Generator: Adobe Illustrator 14.0.0, SVG Export Plug-In . SVG Version: 6.00 Build 43363)  -->
<!DOCTYPE svg PUBLIC "-//W3C//DTD SVG 1.0//EN" "http://www.w3.org/TR/2001/REC-SVG-20010904/DTD/svg10.dtd">
<svg version="1.0" id="Layer_1" xmlns="http://www.w3.org/2000/svg" xmlns:xlink="http://www.w3.org/1999/xlink" x="0px" y="0px"
	 width="100px" height="75.335px" viewBox="0 0 100 75.335" enable-background="new 0 0 100 75.335" xml:space="preserve">
<path d="M100,75.335c0,0-16.592-9.837-22.973-17.174c7.538-3.758,12.719-11.536,12.719-20.531v-14.7
	C89.746,10.267,79.479,0,66.815,0H22.931C10.267,0,0,10.267,0,22.931v14.7c0,12.665,10.267,22.931,22.931,22.931h36.354
	C67.039,68.803,100,75.335,100,75.335z M12.792,12.716h64.162c0.735,0,1.326,0.591,1.326,1.322s-0.591,1.322-1.326,1.322H12.792
	c-0.731,0-1.324-0.591-1.324-1.322S12.06,12.716,12.792,12.716z M12.792,20.378h64.162c0.735,0,1.326,0.592,1.326,1.322
	c0,0.731-0.591,1.323-1.326,1.323H12.792c-0.731,0-1.324-0.592-1.324-1.323C11.468,20.97,12.06,20.378,12.792,20.378z M12.792,28.04
	h64.162c0.735,0,1.326,0.592,1.326,1.322c0,0.731-0.591,1.323-1.326,1.323H12.792c-0.731,0-1.324-0.592-1.324-1.323
	C11.468,28.632,12.06,28.04,12.792,28.04z M12.792,35.702h64.162c0.735,0,1.326,0.592,1.326,1.323c0,0.73-0.591,1.323-1.326,1.323
	H12.792c-0.731,0-1.324-0.593-1.324-1.323C11.468,36.294,12.06,35.702,12.792,35.702z M12.792,46.011
	c-0.731,0-1.324-0.591-1.324-1.326c0-0.729,0.592-1.321,1.324-1.321h64.162c0.735,0,1.326,0.592,1.326,1.321
	c0,0.735-0.591,1.326-1.326,1.326H12.792z"/>
</svg>
