<?xml version="1.0" encoding="utf-8"?>
<!-- Generator: Adobe Illustrator 14.0.0, SVG Export Plug-In . SVG Version: 6.00 Build 43363)  -->
<!DOCTYPE svg PUBLIC "-//W3C//DTD SVG 1.0//EN" "http://www.w3.org/TR/2001/REC-SVG-20010904/DTD/svg10.dtd">
<svg version="1.0" id="Layer_1" xmlns="http://www.w3.org/2000/svg" xmlns:xlink="http://www.w3.org/1999/xlink" x="0px" y="0px"
	 width="100px" height="63.863px" viewBox="0 0 100 63.863" enable-background="new 0 0 100 63.863" xml:space="preserve">
<path d="M24.53,23.912H0.258c0.458,2.175,1.565,3.905,3.618,4.636h17.356C23.109,27.555,23.955,25.787,24.53,23.912z"/>
<path d="M78.768,28.548h17.356c2.053-0.73,3.159-2.46,3.617-4.636H75.47C76.045,25.787,76.891,27.555,78.768,28.548z"/>
<path d="M66.325,20.646v-5.097c2.817,0.422,5.187,0.979,6.261,1.707c1.203,0.814,1.726,2.341,2.18,4.042H100
	c0.023-4.964-2.186-10.921-4.114-13.195C88.366-0.768,50,0.018,50,0.018S11.634-0.768,4.114,8.102
	C2.186,10.375-0.024,16.333,0,21.297h25.234c0.454-1.701,0.977-3.228,2.18-4.042c1.074-0.728,3.443-1.284,6.261-1.707v5.097
	l-6.854,7.833l-9.984,24.606v4.992v2.934c0,1.575,1.277,2.853,2.853,2.853H50h30.312c1.575,0,2.853-1.277,2.853-2.853v-2.934v-4.992
	L73.18,28.479L66.325,20.646z M50,14.283c0,0,6.828,0.172,13.076,0.851l-2.222,4.786H50H39.146l-2.223-4.786
	C43.172,14.455,50,14.283,50,14.283z M50,52.828c-7.397,0-13.394-5.996-13.394-13.393c0-7.397,5.996-13.394,13.394-13.394
	s13.394,5.997,13.394,13.394C63.394,46.832,57.397,52.828,50,52.828z"/>
</svg>
