<?xml version="1.0" encoding="utf-8"?>
<!-- Generator: Adobe Illustrator 14.0.0, SVG Export Plug-In . SVG Version: 6.00 Build 43363)  -->
<!DOCTYPE svg PUBLIC "-//W3C//DTD SVG 1.0//EN" "http://www.w3.org/TR/2001/REC-SVG-20010904/DTD/svg10.dtd">
<svg version="1.0" id="Layer_1" xmlns="http://www.w3.org/2000/svg" xmlns:xlink="http://www.w3.org/1999/xlink" x="0px" y="0px"
	 width="96.15px" height="99.999px" viewBox="0 0 96.15 99.999" enable-background="new 0 0 96.15 99.999" xml:space="preserve">
<path d="M95.642,17.66l-6.47,6.733l-1.573,1.637l-4.915,5.102l-6.572-1.722l-6.572-1.727l-3.322-13.676l6.482-6.745l3.338-3.477
	L79.17,0.53c-6.983-1.599-14.6,0.417-20.018,6.054c-6.497,6.755-7.99,16.798-4.486,25.072L2.28,86.127
	c-3.04,3.166-3.04,8.337,0,11.498c3.041,3.166,8.012,3.166,11.058,0L65.72,43.15c7.946,3.641,17.601,2.085,24.104-4.669
	C95.234,32.843,97.177,24.928,95.642,17.66z M8.321,96.423c-2.61,0-4.736-2.327-4.736-5.184c0-2.855,2.126-5.183,4.736-5.183
	c2.605,0,4.733,2.327,4.733,5.183C13.055,94.096,10.926,96.423,8.321,96.423z"/>
</svg>
