<?xml version="1.0" encoding="utf-8"?>
<!-- Generator: Adobe Illustrator 14.0.0, SVG Export Plug-In . SVG Version: 6.00 Build 43363)  -->
<!DOCTYPE svg PUBLIC "-//W3C//DTD SVG 1.0//EN" "http://www.w3.org/TR/2001/REC-SVG-20010904/DTD/svg10.dtd">
<svg version="1.0" id="Layer_1" xmlns="http://www.w3.org/2000/svg" xmlns:xlink="http://www.w3.org/1999/xlink" x="0px" y="0px"
	 width="55.972px" height="100px" viewBox="0 0 55.972 100" enable-background="new 0 0 55.972 100" xml:space="preserve">
<g>
	<path d="M38.024,81.513c0.712,0,1.289-0.637,1.289-1.42v-1.345c0-0.783-0.577-1.42-1.289-1.42H17.951
		c-0.713,0-1.291,0.637-1.291,1.42v1.345c0,0.783,0.578,1.42,1.291,1.42H38.024z"/>
</g>
<g>
	<path d="M38.024,87.632c0.712,0,1.289-0.637,1.289-1.422v-1.344c0-0.784-0.577-1.421-1.289-1.421H17.951
		c-0.713,0-1.291,0.637-1.291,1.421v1.344c0,0.785,0.578,1.422,1.291,1.422H38.024z"/>
</g>
<g>
	<path d="M38.024,93.75c0.712,0,1.289-0.637,1.289-1.421v-1.344c0-0.785-0.577-1.422-1.289-1.422H17.951
		c-0.713,0-1.291,0.637-1.291,1.422v1.344c0,0.784,0.578,1.421,1.291,1.421H38.024z"/>
</g>
<g>
	<path d="M34.601,95.89C33.389,98.306,30.889,100,28.003,100c-2.869,0-5.41-1.719-6.632-4.109H34.601z"/>
</g>
<path d="M27.986,0C12.531,0,0,12.53,0,27.986c0,5.089,1.429,9.82,3.731,13.973c6.873,12.382,8.694,19.335,9.815,26.065
	c0.941,5.64,2.243,6.95,6.504,6.95c1.812,0,4.779,0,7.936,0c3.157,0,6.125,0,7.936,0c4.262,0,5.564-1.311,6.505-6.95
	c1.121-6.729,2.942-13.683,9.815-26.065c2.302-4.153,3.73-8.884,3.73-13.973C55.972,12.53,43.442,0,27.986,0z"/>
</svg>
