<?xml version="1.0" encoding="utf-8"?>
<!-- Generator: Adobe Illustrator 14.0.0, SVG Export Plug-In . SVG Version: 6.00 Build 43363)  -->
<!DOCTYPE svg PUBLIC "-//W3C//DTD SVG 1.0//EN" "http://www.w3.org/TR/2001/REC-SVG-20010904/DTD/svg10.dtd">
<svg version="1.0" id="Layer_1" xmlns="http://www.w3.org/2000/svg" xmlns:xlink="http://www.w3.org/1999/xlink" x="0px" y="0px"
	 width="69.676px" height="100px" viewBox="0 0 69.676 100" enable-background="new 0 0 69.676 100" xml:space="preserve">
<path d="M42.172,16.502H27.503H2.68l3.05,18.806l4.94,30.465L16.22,100h11.283h14.668h11.284l5.549-34.228l4.94-30.465l3.051-18.806
	H42.172z M56.735,65.772H12.974L8.017,35.308h53.642L56.735,65.772z"/>
<path d="M66.996,9.098h-4.963L60.038,0H46.121H23.554H9.637L7.643,9.098H2.68L0,14.95h2.68h64.316h2.68L66.996,9.098z
	 M34.838,11.848c-3.427,0-6.206-1.263-6.206-2.821c0-1.558,2.779-2.82,6.206-2.82s6.206,1.263,6.206,2.82
	C41.044,10.585,38.265,11.848,34.838,11.848z"/>
</svg>
