<?xml version="1.0" encoding="utf-8"?>
<!-- Generator: Adobe Illustrator 14.0.0, SVG Export Plug-In . SVG Version: 6.00 Build 43363)  -->
<!DOCTYPE svg PUBLIC "-//W3C//DTD SVG 1.0//EN" "http://www.w3.org/TR/2001/REC-SVG-20010904/DTD/svg10.dtd">
<svg version="1.0" id="Layer_1" xmlns="http://www.w3.org/2000/svg" xmlns:xlink="http://www.w3.org/1999/xlink" x="0px" y="0px"
	 width="100px" height="95.565px" viewBox="0 0 100 95.565" enable-background="new 0 0 100 95.565" xml:space="preserve">
<path d="M35.765,33.084c5.389-3.741,9.296-4.384,14.015-4.495c5.723-0.14,10.135,0.977,14.323,4.245l3.043-6.394
	c-5.333-3.91-11.837-5.473-17.45-5.361c-6.393,0.168-12.423,1.815-17.197,5.388L35.765,33.084L35.765,33.084L35.765,33.084z"/>
<path d="M57.792,57.4c-0.754,1.34-1.871,2.485-3.295,3.294c-3.742,2.122-8.347,1.257-11.084-1.87l-1.285-1.2
	c5.083,9.716,1.621,21.412-8.011,26.913c-9.604,5.473-22.195,2.735-27.974-6.616l0.111,0.557
	c17.282,29.036,43.302,11.085,43.302,11.085s15.634,12.787,31.017,1.034c4.746-3.63,9.324-7.064,12.283-11.811l-0.084-0.587
	c-1.729,2.736-4.158,5.109-7.146,6.812c-9.855,5.611-22.363,2.178-27.946-7.649c-3.07-5.389-3.434-11.586-1.507-17.002L57.792,57.4
	L57.792,57.4L57.792,57.4z"/>
<path d="M50.841,41.347c1.535,0,3.07,0.392,4.493,1.229c3.714,2.178,5.249,6.616,3.938,10.554l-0.419,1.675
	c5.863-9.269,17.755-12.061,27.304-6.478c9.576,5.556,13.486,17.839,8.265,27.5l0.445-0.363c16.501-29.482-12.06-43.05-12.06-43.05
	s3.015-19.375-14.603-27.388c-5.387-2.429-10.58-4.83-16.164-4.997l-0.698,0.224c3.238,0.14,6.506,1.396,9.493,3.126
	c9.771,5.723,13.038,18.343,7.343,28.114c-3.126,5.332-8.32,8.738-13.987,9.798L50.841,41.347L50.841,41.347L50.841,41.347z"/>
<path d="M40.343,55.14c-0.754-1.312-1.201-2.82-1.173-4.467c0.028-4.3,3.1-7.874,7.147-8.683l1.675-0.502
	c-10.972-0.418-19.346-9.326-19.264-20.38c0.056-11.083,8.712-20.604,19.684-20.939L47.854,0C14.1,0.447,16.64,31.967,16.64,31.967
	S-2.259,39.114,0.225,58.266c0.754,5.947,1.451,11.614,4.076,16.556l0.558,0.224c-1.508-2.875-2.345-6.142-2.318-9.604
	c0.056-11.307,9.269-20.408,20.604-20.324c6.199,0.028,11.727,2.818,15.467,7.174L40.343,55.14L40.343,55.14L40.343,55.14z"/>
<path d="M40.957,73.091c-7.481-3.519-7.705-4.635-10.916-9.883c-2.986-4.913-4.215-9.27-3.46-14.517l-7.065,0.557
	c-0.725,6.562,1.173,12.981,4.078,17.757c4.131,6.784,7.007,9.548,13.289,12.229L40.957,73.091L40.957,73.091L40.957,73.091z"/>
<path d="M72.756,48.104c0.698,8.208-0.139,8.963-3.099,14.378c-2.765,5.025-5.92,8.293-10.861,10.274l4.021,5.835
	c6.059-2.652,10.664-7.512,13.372-12.425c3.072-5.639,4.663-11.669,3.938-17.588L72.756,48.104L72.756,48.104L72.756,48.104z"/>
</svg>
