<?xml version="1.0" encoding="utf-8"?>
<!-- Generator: Adobe Illustrator 14.0.0, SVG Export Plug-In . SVG Version: 6.00 Build 43363)  -->
<!DOCTYPE svg PUBLIC "-//W3C//DTD SVG 1.0//EN" "http://www.w3.org/TR/2001/REC-SVG-20010904/DTD/svg10.dtd">
<svg version="1.0" id="Layer_1" xmlns="http://www.w3.org/2000/svg" xmlns:xlink="http://www.w3.org/1999/xlink" x="0px" y="0px"
	 width="99.472px" height="100px" viewBox="0 0 99.472 100" enable-background="new 0 0 99.472 100" xml:space="preserve">
<path d="M77.036,4.448l5.584,5.583L66.887,25.767c-7.024-5.461-15.839-8.727-25.406-8.727C18.608,17.041,0,35.649,0,58.522
	C0,81.395,18.608,100,41.481,100S82.96,81.395,82.96,58.522c0-9.837-3.448-18.881-9.191-25.999L89.44,16.852l5.582,5.583L99.472,0
	L77.036,4.448z M41.481,90.355c-17.554,0-31.836-14.279-31.836-31.833c0-17.555,14.282-31.837,31.836-31.837
	c17.553,0,31.834,14.282,31.834,31.837C73.315,76.076,59.034,90.355,41.481,90.355z"/>
</svg>
