<?xml version="1.0" encoding="utf-8"?>
<!-- Generator: Adobe Illustrator 14.0.0, SVG Export Plug-In . SVG Version: 6.00 Build 43363)  -->
<!DOCTYPE svg PUBLIC "-//W3C//DTD SVG 1.0//EN" "http://www.w3.org/TR/2001/REC-SVG-20010904/DTD/svg10.dtd">
<svg version="1.0" id="Layer_1" xmlns="http://www.w3.org/2000/svg" xmlns:xlink="http://www.w3.org/1999/xlink" x="0px" y="0px"
	 width="77.933px" height="100px" viewBox="0 0 77.933 100" enable-background="new 0 0 77.933 100" xml:space="preserve">
<path d="M73.155,0H4.777C2.139,0,0,2.139,0,4.778v90.445C0,97.861,2.139,100,4.777,100h68.377c2.639,0,4.778-2.139,4.778-4.777
	V4.778C77.933,2.139,75.793,0,73.155,0z M38.966,97.406c-1.319,0-2.389-1.069-2.389-2.389s1.069-2.389,2.389-2.389
	s2.389,1.069,2.389,2.389S40.286,97.406,38.966,97.406z M68.934,89.957c0,0.239-0.194,0.434-0.435,0.434H9.433
	c-0.24,0-0.434-0.194-0.434-0.434V10.043c0-0.24,0.194-0.435,0.434-0.435H68.5c0.24,0,0.435,0.195,0.435,0.435V89.957z"/>
</svg>
