<?xml version="1.0" encoding="utf-8"?>
<!-- Generator: Adobe Illustrator 14.0.0, SVG Export Plug-In . SVG Version: 6.00 Build 43363)  -->
<!DOCTYPE svg PUBLIC "-//W3C//DTD SVG 1.0//EN" "http://www.w3.org/TR/2001/REC-SVG-20010904/DTD/svg10.dtd">
<svg version="1.0" id="Layer_1" xmlns="http://www.w3.org/2000/svg" xmlns:xlink="http://www.w3.org/1999/xlink" x="0px" y="0px"
	 width="73.673px" height="100px" viewBox="0 0 73.673 100" enable-background="new 0 0 73.673 100" xml:space="preserve">
<path d="M11.964,30.882c-2.084,0-3.773,2.226-3.773,4.97v4.97h7.547v-4.97C15.738,33.108,14.048,30.882,11.964,30.882z"/>
<path d="M28.991,35.853c0-2.745-1.689-4.97-3.773-4.97s-3.773,2.226-3.773,4.97v4.97h7.546V35.853z"/>
<path d="M42.244,35.853c0-2.745-1.689-4.97-3.773-4.97s-3.773,2.226-3.773,4.97v4.97h7.547V35.853z"/>
<path d="M66.668,19.772l-6.938-1.843v-4.276v-0.061V4.144C59.73,1.858,57.872,0,55.586,0H47.86c-1.062,0-2.029,0.405-2.763,1.064
	C44.362,0.405,43.395,0,42.333,0h-7.727c-2.285,0-4.144,1.858-4.144,4.144v0.332c-0.433-0.154-0.897-0.242-1.382-0.242h-7.727
	c-2.285,0-4.144,1.858-4.144,4.144v0.148c-0.433-0.154-0.896-0.243-1.383-0.243H8.102c-2.286,0-4.144,1.859-4.144,4.144v1.166v0.061
	v1.957v14.093L0,35.225v26.483l9.111,12.333V100h40.495V74.12l24.067-26.475L66.668,19.772z M46.477,4.144
	c0-0.762,0.62-1.383,1.383-1.383h7.727c0.763,0,1.383,0.621,1.383,1.383v9.449v0.061v3.543L46.477,14.41v-0.757v-0.061V4.144z
	 M33.224,8.377V4.144c0-0.762,0.62-1.383,1.382-1.383h7.727c0.763,0,1.383,0.621,1.383,1.383v9.449v0.061v0.024l-9.204-2.444v1.795
	c0,6.025,1.719,10.74,5.109,14.014c1.293,1.249,2.705,2.164,4.095,2.835v11.036c0,0.763-0.62,1.383-1.383,1.383h-7.727
	c-0.762,0-1.382-0.62-1.382-1.383V15.61v-1.957v-0.061V8.377z M19.972,12.426V8.377c0-0.763,0.62-1.383,1.382-1.383h7.727
	c0.763,0,1.382,0.62,1.382,1.383v5.215v0.061v1.957v25.303c0,0.763-0.62,1.383-1.382,1.383h-7.727c-0.762,0-1.382-0.62-1.382-1.383
	V15.61v-1.957v-0.061V12.426z M6.718,13.592v-1.166c0-0.762,0.62-1.382,1.383-1.382h7.726c0.763,0,1.383,0.62,1.383,1.382v1.166
	v0.061v1.957v25.303c0,0.763-0.62,1.383-1.383,1.383H8.102c-0.763,0-1.383-0.62-1.383-1.383V15.61v-1.957V13.592z M46.845,73.053
	v24.187H11.873V73.132L2.761,60.799V36.112l1.196-1.669v6.47c0,2.285,1.858,4.144,4.144,4.144h7.726
	c1.063,0,2.029-0.405,2.764-1.064c0.734,0.66,1.701,1.064,2.763,1.064h7.727c1.062,0,2.029-0.405,2.763-1.064
	c0.734,0.66,1.701,1.064,2.763,1.064h1.986c-2.021,0.949-3.733,2.14-5.128,3.572c-5.227,5.362-5.031,12.936-4.903,17.947
	c0.019,0.73,0.037,1.421,0.037,2.041h2.761c0-0.655-0.018-1.363-0.038-2.112c-0.124-4.819-0.293-11.421,4.12-15.949
	c3.556-3.649,9.707-5.499,18.282-5.499h1.38v-1.38v-1.38v-1.473V31.23v-2.33l-1.429,0.05c-0.036,0.001-2.401,0.063-5.197-0.916
	c-0.897-0.314-1.838-0.736-2.761-1.302c-0.749-0.458-1.485-1.01-2.176-1.677c-2.497-2.411-3.908-5.842-4.207-10.217l6.382,1.694
	l2.761,0.733l10.492,2.786l2.761,0.733l4.658,1.237l6.247,24.86L46.845,73.053z M50.342,40.822v1.473H47.86
	c-0.763,0-1.383-0.62-1.383-1.383v-9.976c1.236,0.363,2.362,0.557,3.256,0.661c-1.096,0.868-1.83,2.447-1.83,4.255v4.97H50.342z"/>
</svg>
