<?xml version="1.0" encoding="utf-8"?>
<!-- Generator: Adobe Illustrator 14.0.0, SVG Export Plug-In . SVG Version: 6.00 Build 43363)  -->
<!DOCTYPE svg PUBLIC "-//W3C//DTD SVG 1.0//EN" "http://www.w3.org/TR/2001/REC-SVG-20010904/DTD/svg10.dtd">
<svg version="1.0" id="Layer_1" xmlns="http://www.w3.org/2000/svg" xmlns:xlink="http://www.w3.org/1999/xlink" x="0px" y="0px"
	 width="100.001px" height="100.001px" viewBox="0 0 100.001 100.001" enable-background="new 0 0 100.001 100.001"
	 xml:space="preserve">
<path d="M74.023,3.834c0.877-0.877,0.877-2.299,0-3.176s-2.299-0.877-3.176,0L66.794,4.71c1.132,0.873,2.413,1.714,3.782,2.57
	L74.023,3.834z"/>
<path d="M96.166,25.977c0.877-0.877,2.3-0.877,3.177,0s0.877,2.299,0,3.176l-4.054,4.053c-0.872-1.131-1.714-2.413-2.569-3.782
	L96.166,25.977z"/>
<path d="M3.834,74.023c-0.877,0.877-2.299,0.877-3.176,0s-0.877-2.299,0-3.176l4.053-4.054c0.873,1.132,1.714,2.413,2.57,3.782
	L3.834,74.023z"/>
<path d="M25.977,96.166c-0.877,0.877-0.877,2.299,0,3.177c0.877,0.877,2.299,0.877,3.176,0l4.053-4.054
	c-1.131-0.872-2.413-1.714-3.782-2.57L25.977,96.166z"/>
<path d="M82.529,17.471c-5.335-5.335-12.206-8.32-16.705-11.79L5.702,65.803c3.47,4.499,6.454,11.37,11.79,16.705
	c5.335,5.336,12.207,8.32,16.705,11.79l60.123-60.122C90.85,29.677,87.865,22.806,82.529,17.471z M61.08,55.861l-5.198,5.197
	l-5.871-5.871l-5.872,5.872l-5.198-5.198l5.872-5.872l-5.872-5.872l5.198-5.198l5.872,5.872l5.871-5.872l5.198,5.198l-5.872,5.872
	L61.08,55.861z"/>
</svg>
