<?xml version="1.0" encoding="utf-8"?>
<!-- Generator: Adobe Illustrator 14.0.0, SVG Export Plug-In . SVG Version: 6.00 Build 43363)  -->
<!DOCTYPE svg PUBLIC "-//W3C//DTD SVG 1.0//EN" "http://www.w3.org/TR/2001/REC-SVG-20010904/DTD/svg10.dtd">
<svg version="1.0" id="Layer_1" xmlns="http://www.w3.org/2000/svg" xmlns:xlink="http://www.w3.org/1999/xlink" x="0px" y="0px"
	 width="77.083px" height="100px" viewBox="0 0 77.083 100" enable-background="new 0 0 77.083 100" xml:space="preserve">
<path fill="#333333" d="M20.076,52.852c0,0-5.911,1.85-9.416,4.602c0.228,17.387,9.665,38.298,9.665,38.298l-0.466,4.066L21.84,100
	l-0.265-4.268c0,0,0.61-1.152-0.25-3.119c-0.858-1.968-8.623-22.273-8.969-32.892c2.885-2.328,7.329-4.887,7.329-4.887
	L20.076,52.852z"/>
<path fill="#333333" d="M23.583,42.394c0,0-6.891-1.368-11.153-0.896C9.279,47.37,5.896,59.286,5.196,69.604
	c-0.714,1.051-2.149,2.839-2.149,2.839l1.368,1.023l1.619-3.561c0,0,1.247-0.224,1.429-2.309c0.181-2.086,0.663-12.921,5.112-23.081
	c3.123-0.042,10.104,0.18,10.104,0.18L23.583,42.394z"/>
<path fill="#333333" d="M57.006,52.852c0,0,5.91,1.85,9.415,4.602c-0.228,17.387-9.664,38.298-9.664,38.298l0.465,4.066L55.242,100
	l0.263-4.268c0,0-0.608-1.152,0.252-3.119c0.856-1.968,8.621-22.273,8.968-32.892c-2.884-2.328-7.328-4.887-7.328-4.887
	L57.006,52.852z"/>
<path fill="#333333" d="M53.497,42.394c0,0,6.892-1.368,11.155-0.896c3.15,5.872,6.534,17.788,7.233,28.105
	c0.713,1.051,2.149,2.839,2.149,2.839l-1.368,1.023l-1.62-3.561c0,0-1.246-0.224-1.427-2.309
	c-0.181-2.086-0.663-12.921-5.113-23.081c-3.121-0.042-10.103,0.18-10.103,0.18L53.497,42.394z"/>
<path fill="#333333" d="M45.018,85.704c3.888-2.76,8.104-6.558,10.926-15.476c2.825-8.918,1.315-20.81-6.942-34.247
	c-0.188-9.686-3.16-13.162-3.551-15.145s0.895-4.674,2.658-4.131c2.794,0.857,6.878,4.616,9.969,8.659l-9.88,0.298l0.703,1.988
	l11.296,0.8c3.059,5.038,14.646,29.947,16.887,49.762C76.511,58.21,64.207,32.355,61.352,27.632l0.366-0.75
	c0,0-0.357-12.188-0.418-15.73c-0.056-3.541-0.961-6.051-0.961-6.051l2.035-4.347L60.508,0l-1.101,4.671c0,0-1.252,0.191-0.76,2.386
	c0.492,2.191,1.175,18.235,1.175,18.235c-3.168-4.527-8.126-9.989-11.689-10.564c-4.129-0.653-7.438,3.443-7.438,3.443h-4.309
	c0,0-3.309-4.096-7.438-3.443c-3.562,0.575-8.521,6.038-11.688,10.564c0,0,0.683-16.044,1.175-18.235
	c0.492-2.195-0.761-2.386-0.761-2.386L16.571,0l-1.864,0.754l2.035,4.347c0,0-0.904,2.511-0.961,6.051
	c-0.059,3.542-0.419,15.73-0.419,15.73l0.367,0.75C12.875,32.355,0.569,58.21,0,78.213c2.239-19.815,13.827-44.725,16.885-49.762
	l11.295-0.8l0.702-1.988l-9.877-0.298c3.09-4.043,7.176-7.802,9.97-8.659c1.763-0.543,3.048,2.147,2.657,4.131
	s-3.364,5.459-3.551,15.145c-8.258,13.437-9.768,25.329-6.944,34.247c2.825,8.918,7.039,12.716,10.928,15.476
	c3.891,2.76,6.466,8.662,6.466,8.662S41.128,88.464,45.018,85.704z"/>
</svg>
