<?xml version="1.0" encoding="utf-8"?>
<!-- Generator: Adobe Illustrator 14.0.0, SVG Export Plug-In . SVG Version: 6.00 Build 43363)  -->
<!DOCTYPE svg PUBLIC "-//W3C//DTD SVG 1.0//EN" "http://www.w3.org/TR/2001/REC-SVG-20010904/DTD/svg10.dtd">
<svg version="1.0" id="Layer_1" xmlns="http://www.w3.org/2000/svg" xmlns:xlink="http://www.w3.org/1999/xlink" x="0px" y="0px"
	 width="100px" height="88.334px" viewBox="0 0 100 88.334" enable-background="new 0 0 100 88.334" xml:space="preserve">
<path d="M90,30c0-5.523-4.477-10-10-10c0-5.523-4.477-10-10-10C61.76,10,50,0,50,0S38.241,10,30,10c-5.523,0-10,4.478-10,10
	c-5.523,0-10,4.477-10,10C4.477,30,0,34.478,0,40s4.477,10,10,10h40h40c5.523,0,10-4.477,10-10S95.523,30,90,30z"/>
<polygon points="12.963,55.834 25.752,88.334 50.742,88.334 75.731,88.334 88.52,55.834 50.742,55.834 "/>
</svg>
