<?xml version="1.0" encoding="utf-8"?>
<!-- Generator: Adobe Illustrator 14.0.0, SVG Export Plug-In . SVG Version: 6.00 Build 43363)  -->
<!DOCTYPE svg PUBLIC "-//W3C//DTD SVG 1.0//EN" "http://www.w3.org/TR/2001/REC-SVG-20010904/DTD/svg10.dtd">
<svg version="1.0" id="Layer_1" xmlns="http://www.w3.org/2000/svg" xmlns:xlink="http://www.w3.org/1999/xlink" x="0px" y="0px"
	 width="44.44px" height="100px" viewBox="0 0 44.44 100" enable-background="new 0 0 44.44 100" xml:space="preserve">
<path d="M30.544,81.267H13.96c-0.591,0-1.067,0.526-1.067,1.174v1.111c0,0.647,0.477,1.174,1.067,1.174h16.584
	c0.589,0,1.065-0.526,1.065-1.174V82.44C31.61,81.793,31.133,81.267,30.544,81.267z"/>
<path d="M30.544,86.322H13.96c-0.591,0-1.067,0.526-1.067,1.174v1.11c0,0.648,0.477,1.175,1.067,1.175h16.584
	c0.589,0,1.065-0.526,1.065-1.175v-1.11C31.61,86.849,31.133,86.322,30.544,86.322z"/>
<path d="M30.544,91.377H13.96c-0.591,0-1.067,0.527-1.067,1.174v1.112c0,0.646,0.477,1.174,1.067,1.174h16.584
	c0.589,0,1.065-0.527,1.065-1.174v-1.112C31.61,91.904,31.133,91.377,30.544,91.377z"/>
<path d="M22.25,100c2.386,0,4.45-1.398,5.45-3.396H16.772C17.781,98.58,19.881,100,22.25,100z"/>
<path d="M39.979,20.736C27.504,24.813,15.032,28.89,2.557,32.969c-3.523,1.152-3.033,5.825-0.436,6.94
	c0.049,0.023,0.098,0.043,0.148,0.063c0.002,0.001,0.002,0.003,0.004,0.003c0.414,0.171,0.886,0.272,1.421,0.275
	c0.822,0.004,1.642,0.034,2.46,0.096c0.225,0.018,0.449,0.04,0.672,0.066c0.021,0.003,0.037,0.005,0.06,0.009
	c0.438,0.066,0.871,0.159,1.302,0.258c0.42,0.096,0.834,0.22,1.244,0.35c0.174,0.058,0.347,0.122,0.518,0.187
	c0.023,0.01,0.045,0.021,0.072,0.032c0.372,0.172,0.725,0.381,1.074,0.593c0.113,0.073,0.221,0.15,0.33,0.227
	c0.037,0.031,0.083,0.07,0.146,0.123c0.23,0.201,0.439,0.425,0.647,0.648c0.041,0.049,0.072,0.087,0.101,0.119
	c0.092,0.135,0.184,0.267,0.269,0.404c0.064,0.1,0.479,0.947,0.438,0.804c0.148,0.391,0.262,0.797,0.369,1.201
	c0.48,1.817,0.33,4.288-0.053,6.513c-0.046,0.27-0.068,0.539-0.07,0.805H8.817c-1.716,0-3.106,1.527-3.106,3.41v14.399
	c0,1.154,0.524,2.172,1.324,2.788l6.092,5.972h0.006c0.06,0.104,0.138,0.196,0.218,0.284c0.036,0.04,0.07,0.076,0.11,0.112
	c0.123,0.113,0.262,0.203,0.413,0.278c0.051,0.025,0.099,0.046,0.152,0.065c0.186,0.069,0.381,0.119,0.592,0.119h15.267
	c0.209,0,0.405-0.05,0.592-0.119c0.053-0.02,0.102-0.042,0.151-0.065c0.15-0.073,0.29-0.164,0.41-0.276
	c0.042-0.038,0.078-0.077,0.115-0.118c0.079-0.087,0.156-0.178,0.216-0.28h0.006l5.444-5.972c0.8-0.616,1.323-1.634,1.323-2.788
	V56.096c0-1.883-1.391-3.41-3.105-3.41h-3.869c0.04-0.412,0.024-0.84-0.048-1.268c-0.386-2.224-0.534-4.694-0.055-6.511
	c0.106-0.406,0.221-0.81,0.368-1.202c-0.039,0.144,0.376-0.704,0.438-0.802c0.086-0.139,0.178-0.272,0.27-0.405
	c0.028-0.033,0.06-0.071,0.102-0.118c0.207-0.224,0.417-0.449,0.647-0.649c0.062-0.052,0.108-0.092,0.145-0.123
	c0.112-0.078,0.218-0.154,0.332-0.226c0.349-0.213,0.702-0.421,1.072-0.594c0.027-0.012,0.05-0.022,0.073-0.033
	c0.171-0.064,0.344-0.128,0.518-0.187c0.411-0.129,0.824-0.255,1.244-0.351c0.43-0.097,0.863-0.19,1.303-0.257
	c0.021-0.004,0.039-0.006,0.059-0.009c0.224-0.025,0.449-0.048,0.672-0.066c0.82-0.062,1.638-0.092,2.46-0.097
	c4.67-0.023,4.675-7.27,0-7.245c-4.631,0.024-9.802,0.85-13.225,4.271c-4.238,4.239-4.395,10.299-3.518,15.871h-3.518
	c0.796-5.443,0.534-11.288-3.587-15.41c-0.368-0.367-0.757-0.697-1.163-1.006c8.716-2.85,17.432-5.698,26.148-8.547
	C46.326,26.277,44.431,19.278,39.979,20.736z"/>
<path d="M4.503,27.833c12.474-4.078,24.947-8.154,37.423-12.233c4.42-1.444,2.526-8.441-1.928-6.987
	C27.525,12.691,15.051,16.77,2.578,20.847C-1.843,22.292,0.05,29.29,4.503,27.833z"/>
<path d="M4.44,15.712c8.696-2.842,17.391-5.685,26.086-8.527c4.42-1.445,2.527-8.443-1.927-6.987
	C19.905,3.04,11.209,5.883,2.514,8.725C-1.906,10.171-0.013,17.168,4.44,15.712z"/>
</svg>
