<?xml version="1.0" encoding="utf-8"?>
<!-- Generator: Adobe Illustrator 14.0.0, SVG Export Plug-In . SVG Version: 6.00 Build 43363)  -->
<!DOCTYPE svg PUBLIC "-//W3C//DTD SVG 1.1//EN" "http://www.w3.org/Graphics/SVG/1.1/DTD/svg11.dtd">
<svg version="1.1" id="Layer_1" xmlns="http://www.w3.org/2000/svg" xmlns:xlink="http://www.w3.org/1999/xlink" x="0px" y="0px"
	 width="46.72px" height="100px" viewBox="-0.728 -1.925 46.72 100" enable-background="new -0.728 -1.925 46.72 100"
	 xml:space="preserve">
<path d="M22.938,15.039c4.698-0.013,8.49-3.805,8.481-8.48c0.009-4.677-3.783-8.468-8.481-8.484
	c-4.655,0.016-8.448,3.807-8.433,8.484C14.491,11.234,18.284,15.026,22.938,15.039L22.938,15.039z"/>
<path d="M22.938,6.559"/>
<path d="M32.585,29.156l6.653,22.449l6.754-2.337l-7.363-24.376c-0.809-2.785-4.323-7.714-10.411-7.72h-5.585h-5.585
	c-6.088,0.006-9.603,4.935-10.411,7.72l-7.364,24.376l6.753,2.337l6.654-22.449h1.776L2.978,68.975h10.768v29.101h7.973V68.773
	h0.914h0.914v29.302h7.973V68.975h10.769L30.808,29.156H32.585z"/>
</svg>
