<?xml version="1.0" encoding="utf-8"?>
<!-- Generator: Adobe Illustrator 14.0.0, SVG Export Plug-In . SVG Version: 6.00 Build 43363)  -->
<!DOCTYPE svg PUBLIC "-//W3C//DTD SVG 1.0//EN" "http://www.w3.org/TR/2001/REC-SVG-20010904/DTD/svg10.dtd">
<svg version="1.0" id="Layer_1" xmlns="http://www.w3.org/2000/svg" xmlns:xlink="http://www.w3.org/1999/xlink" x="0px" y="0px"
	 width="100px" height="99.999px" viewBox="0 0 100 99.999" enable-background="new 0 0 100 99.999" xml:space="preserve">
<path d="M50,0C22.43,0,0,22.431,0,50s22.43,49.999,50,49.999S100,77.57,100,50S77.571,0,50,0z M92.287,46.232H53.769V7.713
	C74.18,9.518,90.482,25.821,92.287,46.232z M46.232,7.713v38.519H7.713C9.518,25.821,25.821,9.518,46.232,7.713z M7.713,53.77
	h38.519v38.517C25.821,90.482,9.518,74.18,7.713,53.77z M53.769,92.286V53.77h38.518C90.482,74.18,74.18,90.482,53.769,92.286z"/>
</svg>
