<?xml version="1.0" encoding="utf-8"?>
<!-- Generator: Adobe Illustrator 14.0.0, SVG Export Plug-In . SVG Version: 6.00 Build 43363)  -->
<!DOCTYPE svg PUBLIC "-//W3C//DTD SVG 1.0//EN" "http://www.w3.org/TR/2001/REC-SVG-20010904/DTD/svg10.dtd">
<svg version="1.0" id="Layer_1" xmlns="http://www.w3.org/2000/svg" xmlns:xlink="http://www.w3.org/1999/xlink" x="0px" y="0px"
	 width="100px" height="85.621px" viewBox="0 0 100 85.621" enable-background="new 0 0 100 85.621" xml:space="preserve">
<path d="M78.573,70.145v4.814h-4.762v-4.814H50H26.189v4.814h-4.762v-4.814H0.06c0.613,8.646,7.804,15.477,16.607,15.477H50h33.333
	c8.804,0,15.993-6.83,16.606-15.477H78.573z"/>
<path d="M100,16.666H70.239V7.738C70.239,3.471,66.768,0,62.5,0h-25c-4.267,0-7.738,3.471-7.738,7.738v8.928H0v45.238v5.264h21.428
	V52.777h4.762v14.391H50h23.811V52.777h4.762v14.391H100v-5.264L100,16.666L100,16.666z M37.501,5.952h25
	c0.984,0,1.786,0.802,1.786,1.786v8.928h-0.596H50H36.31h-0.595V7.738C35.715,6.754,36.516,5.952,37.501,5.952z"/>
</svg>
