<?xml version="1.0" encoding="utf-8"?>
<!-- Generator: Adobe Illustrator 14.0.0, SVG Export Plug-In . SVG Version: 6.00 Build 43363)  -->
<!DOCTYPE svg PUBLIC "-//W3C//DTD SVG 1.0//EN" "http://www.w3.org/TR/2001/REC-SVG-20010904/DTD/svg10.dtd">
<svg version="1.0" id="Layer_1" xmlns="http://www.w3.org/2000/svg" xmlns:xlink="http://www.w3.org/1999/xlink" x="0px" y="0px"
	 width="100px" height="54.176px" viewBox="0 0 100 54.176" enable-background="new 0 0 100 54.176" xml:space="preserve">
<path d="M71.718,9.115l-1.516,3.543l5.052,8.607c2.525-1.013,5.05-1.52,7.576-1.52c9.597,0,17.17,7.595,17.17,17.216
	c0,9.62-7.573,17.215-17.17,17.215c-8.082,0-15.153-5.063-16.668-12.659l-12.625,1.014C50.505,43.036,48.99,40,48.99,37.468
	c0-1.014,0-2.024,1.011-3.038L29.798,17.72l-3.031,5.065c5.05,3.037,8.08,8.605,8.08,14.176c0,9.62-8.08,17.215-17.171,17.215
	C8.081,54.176,0,46.582,0,36.961c0-9.621,8.081-17.216,17.676-17.216c2.526,0,5.052,0.507,7.071,1.52L31.818,8.61
	c0-1.52-2.525-3.545-1.516-6.583C30.807,1.013,31.818,0,33.838,0h10.101c1.516,0,1.011,2.533,0,2.533h-8.586
	c-1.009,0-2.02,0-2.526,1.014c0,2.024,2.526,4.555,2.02,5.568l-2.523,4.05h34.85l2.019-4.555c-1.516-0.509-2.525-1.013-4.04-1.52
	c-1.517-0.505-1.011-2.025,0-2.532c3.032,0,6.062,0,9.091,0c1.011,0,2.021,0,2.021,1.519c0,1.52,0,2.533,0,3.544
	c0,1.014-0.506,1.517-1.517,1.014C73.739,10.127,72.729,9.621,71.718,9.115L71.718,9.115L71.718,9.115z M69.192,41.517
	c1.518,6.077,7.072,10.129,13.638,10.129c8.081,0,14.645-6.584,14.645-14.685S90.911,22.279,82.83,22.279
	c-2.021,0-4.041,0.506-6.062,1.518l6.565,10.633c1.517,0,2.525,1.518,2.525,2.531c0,1.519-1.514,3.038-2.525,3.038L69.192,41.517
	L69.192,41.517z M53.537,32.405h3.03l9.092-16.708H47.476H31.312L52.021,32.91C52.526,32.91,53.03,32.405,53.537,32.405
	L53.537,32.405L53.537,32.405z M59.598,32.91l6.564,0.508c0.505-4.557,3.537-8.607,7.07-11.138l-4.544-6.582L59.598,32.91
	L59.598,32.91z M68.688,33.417l11.615,1.013l-5.556-9.62C71.718,26.836,69.699,29.875,68.688,33.417L68.688,33.417L68.688,33.417z
	 M17.676,34.43l5.557-10.633c-1.517-1.012-3.535-1.518-5.557-1.518c-8.081,0-14.646,6.582-14.646,14.682s6.566,14.685,14.646,14.685
	c7.576,0,14.142-6.584,14.142-14.685c0-4.557-2.02-9.113-6.062-11.644l-6.058,10.126c0.504,0.504,0.504,1.011,0.504,1.518
	c0,2.025-1.01,3.038-2.526,3.038c-1.515,0-3.029-1.52-3.029-3.038C14.646,35.444,16.161,34.43,17.676,34.43L17.676,34.43
	L17.676,34.43z"/>
</svg>
