<?xml version="1.0" encoding="utf-8"?>
<!-- Generator: Adobe Illustrator 14.0.0, SVG Export Plug-In . SVG Version: 6.00 Build 43363)  -->
<!DOCTYPE svg PUBLIC "-//W3C//DTD SVG 1.0//EN" "http://www.w3.org/TR/2001/REC-SVG-20010904/DTD/svg10.dtd">
<svg version="1.0" id="Layer_1" xmlns="http://www.w3.org/2000/svg" xmlns:xlink="http://www.w3.org/1999/xlink" x="0px" y="0px"
	 width="100px" height="94.002px" viewBox="0 0 100 94.002" enable-background="new 0 0 100 94.002" xml:space="preserve">
<polygon points="22.169,0 14.387,0 20.801,7.538 22.169,7.538 23.538,7.538 29.952,0 "/>
<path d="M74.521,16.059c-14.05,0-25.48,11.43-25.48,25.479c0,5.195-4.226,9.422-9.421,9.422c-5.195,0-9.421-4.227-9.421-9.422
	V15.192l6.514-7.654h62.195V0H33.229l-8.32,9.777h-2.74H19.43L11.11,0H0v7.538h7.626l6.514,7.654v26.346
	c0,14.05,11.43,25.48,25.479,25.48c14.05,0,25.479-11.431,25.479-25.48H65.1c0-5.195,4.226-9.421,9.421-9.421
	c5.194,0,9.421,4.226,9.421,9.421v52.464H100V41.538C100,27.489,88.571,16.059,74.521,16.059z"/>
</svg>
