<?xml version="1.0" encoding="utf-8"?>
<!-- Generator: Adobe Illustrator 14.0.0, SVG Export Plug-In . SVG Version: 6.00 Build 43363)  -->
<!DOCTYPE svg PUBLIC "-//W3C//DTD SVG 1.0//EN" "http://www.w3.org/TR/2001/REC-SVG-20010904/DTD/svg10.dtd">
<svg version="1.0" id="Layer_1" xmlns="http://www.w3.org/2000/svg" xmlns:xlink="http://www.w3.org/1999/xlink" x="0px" y="0px"
	 width="100px" height="71.437px" viewBox="0 0 100 71.437" enable-background="new 0 0 100 71.437" xml:space="preserve">
<path d="M11.93,28.358V0h-1.862v28.394c-1.123,0.366-1.933,1.444-1.933,2.7c0,1.247,0.829,2.326,1.933,2.726v17.67
	c0,2.282-1.816,4.105-4.098,4.105c-2.265,0-4.091-1.823-4.091-4.105c0-0.562,0.106-1.096,0.322-1.587l0.168,0.143l1.444,1.319
	l-0.899-8.054L0.56,48.735c-0.711,1.675-0.542,2.754-0.542,2.754c0,3.288,2.663,5.969,5.952,5.969c3.305,0,5.96-2.681,5.96-5.969
	V33.785c1.112-0.392,1.916-1.462,1.916-2.691C13.845,29.838,13.042,28.759,11.93,28.358z"/>
<path d="M92.57,59.942l7.289-9.078C99.94,50.715,100,50.554,100,50.38c0-0.535-0.433-0.969-0.969-0.969
	c-0.133,0-0.272,0.041-0.394,0.101L86.279,55.54c-14.461-5.592-26.362-7.525-35.873-7.586v-0.052
	c-20.285-0.189-29.748,8.176-29.748,8.176c-0.084,0.087-0.142,0.211-0.142,0.355c0,0.187,0.092,0.349,0.246,0.434l7.757,3.71
	c0.326,0.167,0.468,0.379,0.468,0.693c0,0.423-0.332,0.76-0.754,0.76l-8.576-0.01c-0.171,0-0.304,0.13-0.304,0.29
	c0,0.086,0.036,0.142,0.075,0.2c8.725,6.998,20.101,9.079,30.976,8.917v-0.028c18.625-0.232,35.873-7.075,35.873-7.075l12.358,6.03
	c0.121,0.058,0.261,0.1,0.394,0.1c0.536,0,0.969-0.435,0.969-0.949c0-0.193-0.06-0.354-0.141-0.517L92.57,59.942z M32.208,58.188
	c-1.006,0-1.828-0.828-1.828-1.839c0-1.02,0.822-1.836,1.828-1.836c1.018,0,1.841,0.816,1.841,1.836
	C34.049,57.359,33.226,58.188,32.208,58.188z"/>
</svg>
