<?xml version="1.0" encoding="utf-8"?>
<!-- Generator: Adobe Illustrator 14.0.0, SVG Export Plug-In . SVG Version: 6.00 Build 43363)  -->
<!DOCTYPE svg PUBLIC "-//W3C//DTD SVG 1.0//EN" "http://www.w3.org/TR/2001/REC-SVG-20010904/DTD/svg10.dtd">
<svg version="1.0" id="Layer_1" xmlns="http://www.w3.org/2000/svg" xmlns:xlink="http://www.w3.org/1999/xlink" x="0px" y="0px"
	 width="99.999px" height="70.462px" viewBox="0 0 99.999 70.462" enable-background="new 0 0 99.999 70.462" xml:space="preserve">
<path d="M93.842,16.035c-2.771,2.771-5.542,5.542-8.312,8.312H50H14.47c-2.771-2.771-5.542-5.542-8.312-8.312
	c-3.289-3.289-8.384,1.807-5.095,5.095c4.234,4.235,8.469,8.469,12.704,12.704v16.865c0,10.915,8.848,19.764,19.764,19.764H50h16.47
	c10.914,0,19.764-8.849,19.764-19.764V33.833c4.234-4.234,8.469-8.469,12.703-12.704C102.226,17.842,97.13,12.746,93.842,16.035z"/>
<path d="M53.587,10.84c0.002-0.055,0.016-0.101,0.016-0.157c0-2.399,0-4.798,0-7.198c0-4.646-7.205-4.646-7.205,0
	c0,2.399,0,4.799,0,7.198c0,0.056,0.013,0.103,0.015,0.157C31.16,12.108,18.159,20.909,18.159,20.909H50h31.84
	C81.84,20.909,68.839,12.108,53.587,10.84z"/>
</svg>
