<?xml version="1.0" encoding="utf-8"?>
<!-- Generator: Adobe Illustrator 14.0.0, SVG Export Plug-In . SVG Version: 6.00 Build 43363)  -->
<!DOCTYPE svg PUBLIC "-//W3C//DTD SVG 1.0//EN" "http://www.w3.org/TR/2001/REC-SVG-20010904/DTD/svg10.dtd">
<svg version="1.0" id="Layer_1" xmlns="http://www.w3.org/2000/svg" xmlns:xlink="http://www.w3.org/1999/xlink" x="0px" y="0px"
	 width="100px" height="100px" viewBox="0 0 100 100" enable-background="new 0 0 100 100" xml:space="preserve">
<path d="M50,60.285c-5.67,0-10.284-4.614-10.284-10.285S44.33,39.716,50,39.716c5.67,0,10.284,4.613,10.284,10.284
	S55.67,60.285,50,60.285L50,60.285z M50,42.553c-4.106,0-7.447,3.34-7.447,7.447c0,4.106,3.34,7.448,7.447,7.448
	c4.107,0,7.447-3.342,7.447-7.448C57.447,45.894,54.107,42.553,50,42.553L50,42.553z"/>
<path d="M50,0C22.43,0,0,22.43,0,50c0,27.57,22.43,50,50,50c27.569,0,50-22.431,50-50C100,22.43,77.569,0,50,0z M80.979,14.482
	l-20.27,23.244c-0.64-0.56-1.324-1.067-2.046-1.522l16.362-26.152C77.126,11.373,79.115,12.856,80.979,14.482z M36.525,50
	c0-7.43,6.045-13.475,13.475-13.475c7.431,0,13.476,6.045,13.476,13.475c0,7.431-6.045,13.476-13.476,13.476
	C42.57,63.476,36.525,57.431,36.525,50z M6.114,67.24C4.007,61.895,2.837,56.084,2.837,50C2.837,23.994,23.994,2.837,50,2.837
	c7.277,0,14.175,1.659,20.336,4.615L57.032,35.304c-2.133-1.025-4.513-1.616-7.032-1.616c-8.995,0-16.312,7.317-16.312,16.312
	c0,2.1,0.413,4.104,1.14,5.95L6.114,67.24z M19.022,85.517l20.284-23.229c0.644,0.562,1.332,1.069,2.057,1.526L24.975,89.948
	C22.874,88.626,20.885,87.143,19.022,85.517z M50,97.164c-7.278,0-14.175-1.659-20.336-4.615l13.319-27.846
	c2.129,1.02,4.502,1.61,7.017,1.61c8.994,0,16.312-7.318,16.312-16.313c0-2.104-0.415-4.109-1.144-5.957L93.886,32.76
	c2.106,5.344,3.277,11.157,3.277,17.24C97.163,76.006,76.006,97.164,50,97.164z"/>
</svg>
