<?xml version="1.0" encoding="utf-8"?>
<!-- Generator: Adobe Illustrator 14.0.0, SVG Export Plug-In . SVG Version: 6.00 Build 43363)  -->
<!DOCTYPE svg PUBLIC "-//W3C//DTD SVG 1.0//EN" "http://www.w3.org/TR/2001/REC-SVG-20010904/DTD/svg10.dtd">
<svg version="1.0" id="Layer_1" xmlns="http://www.w3.org/2000/svg" xmlns:xlink="http://www.w3.org/1999/xlink" x="0px" y="0px"
	 width="100px" height="76.871px" viewBox="0 0 100 76.871" enable-background="new 0 0 100 76.871" xml:space="preserve">
<path d="M94.799,33.247l-15.185,7.721V0.755C79.614,0.338,79.276,0,78.859,0h-4.027c-0.417,0-0.755,0.338-0.755,0.755v40.772
	l-4.278-8.28l-6.124,3.114V0.755C63.675,0.338,63.336,0,62.919,0h-4.026c-0.417,0-0.755,0.338-0.755,0.755v38.421L50,43.314
	l-5.201-10.067L25,43.314l-5.201-10.067L0,43.314v33.557h25h25h25h25V43.314L94.799,33.247z M22.483,68.507H6.473V58.027h16.01
	V68.507z M45.985,68.507h-16.01V58.027h16.01V68.507z M69.486,68.507h-16.01V58.027h16.01V68.507z M92.988,68.507h-16.01V58.027
	h16.01V68.507z"/>
</svg>
