<?xml version="1.0" encoding="utf-8"?>
<!-- Generator: Adobe Illustrator 14.0.0, SVG Export Plug-In . SVG Version: 6.00 Build 43363)  -->
<!DOCTYPE svg PUBLIC "-//W3C//DTD SVG 1.0//EN" "http://www.w3.org/TR/2001/REC-SVG-20010904/DTD/svg10.dtd">
<svg version="1.0" id="Layer_1" xmlns="http://www.w3.org/2000/svg" xmlns:xlink="http://www.w3.org/1999/xlink" x="0px" y="0px"
	 width="100px" height="38.096px" viewBox="0 0 100 38.096" enable-background="new 0 0 100 38.096" xml:space="preserve">
<path d="M88.374,14.845c-5.245,0-9.688,3.493-11.131,8.274c-0.69-0.112-1.381-0.224-2.071-0.335L87.972,2.571h1.886V0H38.267v16.82
	c-8.469-1.368-16.938-2.737-25.407-4.105c-3.641-0.588-7.281-1.177-10.921-1.765c-1.946-0.314-2.78,2.658-0.82,2.975
	c9.738,1.574,19.476,3.147,29.213,4.721c2.645,0.427,5.29,0.855,7.935,1.282v18.051h3.085V20.426
	c11.801,1.906,23.603,3.813,35.404,5.721c-0.003,0.108-0.008,0.215-0.008,0.323c0,6.411,5.215,11.626,11.625,11.626
	c6.411,0,11.627-5.215,11.627-11.626C100,20.06,94.785,14.845,88.374,14.845z M88.374,35.011c-4.65,0-8.442-3.737-8.536-8.366
	c2.709,0.438,5.418,0.876,8.127,1.313c1.945,0.314,2.78-2.658,0.819-2.976c-2.819-0.455-5.639-0.911-8.458-1.366
	c1.177-3.31,4.34-5.687,8.048-5.687c4.71,0,8.541,3.831,8.541,8.54C96.915,31.18,93.083,35.011,88.374,35.011z"/>
</svg>
