<?xml version="1.0" encoding="utf-8"?>
<!-- Generator: Adobe Illustrator 14.0.0, SVG Export Plug-In . SVG Version: 6.00 Build 43363)  -->
<!DOCTYPE svg PUBLIC "-//W3C//DTD SVG 1.0//EN" "http://www.w3.org/TR/2001/REC-SVG-20010904/DTD/svg10.dtd">
<svg version="1.0" id="Layer_1" xmlns="http://www.w3.org/2000/svg" xmlns:xlink="http://www.w3.org/1999/xlink" x="0px" y="0px"
	 width="100px" height="100px" viewBox="0 0 100 100" enable-background="new 0 0 100 100" xml:space="preserve">
<path d="M56.908,60.896h-20.97v12.396c-0.011,6.85-10.372,6.85-10.375,0V46.15H20.92c-6.679,0.004-6.74-9.204-0.164-9.229h8.301
	v0.054l26.322-0.054l15.945-15.945v8.134c0,0,10.991,11.014,11.031,11.032c2.562,2.681,1.083,5.94-1.256,5.954H67.23l-0.056,27.195
	c-0.004,6.85-10.267,6.85-10.267,0V60.896"/>
<path d="M85.36,14.639C75.917,5.2,63.361,0,50.003,0h-0.062C36.599,0,24.053,5.2,14.618,14.642C5.182,24.085-0.008,36.633,0,49.969
	c-0.008,13.362,5.185,25.927,14.629,35.38C24.068,94.797,36.621,100,49.972,100l0,0c13.368,0,25.931-5.202,35.378-14.649
	C94.796,75.904,99.999,63.34,100,49.973C99.999,36.625,94.8,24.078,85.36,14.639z M50.003,11.15
	c21.42,0,38.847,17.417,38.847,38.823c0,8.472-2.726,16.317-7.344,22.711l-54.2-54.248c6.553-4.731,14.396-7.286,22.635-7.286
	H50.003z M22.516,77.469c-7.335-7.344-11.374-17.107-11.365-27.5c-0.008-8.508,2.713-16.604,7.745-23.287l54.361,54.406
	c-6.495,4.872-14.558,7.764-23.285,7.764C39.6,88.852,29.85,84.809,22.516,77.469z"/>
</svg>
