<?xml version="1.0" encoding="utf-8"?>
<!-- Generator: Adobe Illustrator 14.0.0, SVG Export Plug-In . SVG Version: 6.00 Build 43363)  -->
<!DOCTYPE svg PUBLIC "-//W3C//DTD SVG 1.0//EN" "http://www.w3.org/TR/2001/REC-SVG-20010904/DTD/svg10.dtd">
<svg version="1.0" id="Layer_1" xmlns="http://www.w3.org/2000/svg" xmlns:xlink="http://www.w3.org/1999/xlink" x="0px" y="0px"
	 width="100px" height="100px" viewBox="0 0 100 100" enable-background="new 0 0 100 100" xml:space="preserve">
<path d="M50,0C36.644,0,24.088,5.201,14.644,14.645C5.2,24.089,0,36.645,0,50c0,13.355,5.2,25.912,14.644,35.355
	C24.088,94.8,36.645,100.001,50,100c13.355,0.001,25.912-5.2,35.356-14.645C94.799,75.912,100,63.356,100,50
	c0-13.356-5.2-25.912-14.644-35.356C75.911,5.201,63.355,0,50,0z M10.919,25.184c1.857-2.754,4.001-5.372,6.436-7.806
	c2.434-2.434,5.051-4.578,7.805-6.435l8.104,8.104c-2.853,1.71-5.543,3.787-7.999,6.242c-2.457,2.456-4.533,5.146-6.243,7.999
	L10.919,25.184z M26.322,89.954c-2.753-1.857-5.371-4-7.805-6.435c-2.435-2.435-4.577-5.052-6.435-7.806l8.104-8.104
	c1.71,2.852,3.787,5.543,6.242,7.999c2.455,2.455,5.148,4.532,7.999,6.242L26.322,89.954z M89.171,74.953
	c-1.857,2.754-4,5.371-6.435,7.806c-2.434,2.435-5.052,4.577-7.805,6.436l-8.104-8.105c2.852-1.709,5.542-3.787,7.999-6.242
	c2.455-2.455,4.531-5.146,6.241-7.998L89.171,74.953z M81.159,50c0,8.323-3.241,16.148-9.126,22.033
	C66.147,77.918,58.323,81.16,50,81.16c-8.323,0-16.147-3.241-22.033-9.126C22.081,66.148,18.84,58.324,18.841,50
	c0-8.323,3.24-16.147,9.126-22.033c5.885-5.885,13.71-9.126,22.033-9.126c8.323,0,16.148,3.241,22.033,9.126
	C77.918,33.853,81.159,41.677,81.159,50z M82.191,34.085c-1.71-2.852-3.787-5.543-6.242-7.999s-5.147-4.532-7.999-6.242l8.104-8.104
	c2.754,1.857,5.372,4,7.807,6.435c2.434,2.434,4.576,5.052,6.434,7.806L82.191,34.085z"/>
</svg>
