<?xml version="1.0" encoding="utf-8"?>
<!-- Generator: Adobe Illustrator 14.0.0, SVG Export Plug-In . SVG Version: 6.00 Build 43363)  -->
<!DOCTYPE svg PUBLIC "-//W3C//DTD SVG 1.0//EN" "http://www.w3.org/TR/2001/REC-SVG-20010904/DTD/svg10.dtd">
<svg version="1.0" id="Layer_1" xmlns="http://www.w3.org/2000/svg" xmlns:xlink="http://www.w3.org/1999/xlink" x="0px" y="0px"
	 width="100px" height="82.78px" viewBox="0 0 100 82.78" enable-background="new 0 0 100 82.78" xml:space="preserve">
<path d="M62.747,78.067c0,0-0.98-0.928-1.172-1.398c-0.433-1.063-0.331-4.14-0.273-5.325h-8.416h-5.462h-8.416
	c0.057,1.186,0.159,4.262-0.273,5.325c-0.192,0.471-1.172,1.398-1.172,1.398l-4.445,3.971c0,0.41,0.332,0.742,0.742,0.742h13.564
	h5.462H66.45c0.41,0,0.742-0.332,0.742-0.742L62.747,78.067z"/>
<path d="M97.038,0H2.961C1.326,0,0,1.326,0,2.963v63.381c0,1.637,1.326,2.963,2.961,2.963h94.077c1.636,0,2.962-1.326,2.962-2.963
	V2.963C100,1.326,98.674,0,97.038,0z M95.372,56.894H4.627V5.006h90.745V56.894z"/>
</svg>
