<?xml version="1.0" encoding="utf-8"?>
<!-- Generator: Adobe Illustrator 14.0.0, SVG Export Plug-In . SVG Version: 6.00 Build 43363)  -->
<!DOCTYPE svg PUBLIC "-//W3C//DTD SVG 1.0//EN" "http://www.w3.org/TR/2001/REC-SVG-20010904/DTD/svg10.dtd">
<svg version="1.0" id="Layer_1" xmlns="http://www.w3.org/2000/svg" xmlns:xlink="http://www.w3.org/1999/xlink" x="0px" y="0px"
	 width="100px" height="100px" viewBox="0 0 100 100" enable-background="new 0 0 100 100" xml:space="preserve">
<polygon points="70.603,42.477 50,17.726 29.397,42.477 40.407,42.477 40.407,82.275 59.593,82.275 59.593,42.477 "/>
<path d="M50,100C22.43,100,0,77.57,0,50C0,22.43,22.43,0,50,0s50,22.43,50,50C100,77.57,77.57,100,50,100L50,100z M50,7.018
	C26.3,7.018,7.018,26.3,7.018,50S26.3,92.982,50,92.982S92.982,73.7,92.982,50S73.7,7.018,50,7.018L50,7.018z"/>
</svg>
