<?xml version="1.0" encoding="utf-8"?>
<!-- Generator: Adobe Illustrator 14.0.0, SVG Export Plug-In . SVG Version: 6.00 Build 43363)  -->
<!DOCTYPE svg PUBLIC "-//W3C//DTD SVG 1.0//EN" "http://www.w3.org/TR/2001/REC-SVG-20010904/DTD/svg10.dtd">
<svg version="1.0" id="Layer_1" xmlns="http://www.w3.org/2000/svg" xmlns:xlink="http://www.w3.org/1999/xlink" x="0px" y="0px"
	 width="91.491px" height="100px" viewBox="0 0 91.491 100" enable-background="new 0 0 91.491 100" xml:space="preserve">
<path d="M91.491,100c-1.983,0-3.915-0.467-5.629-1.246c-1.748-0.832-3.732-1.312-5.803-1.312c-2.055,0-4.038,0.48-5.787,1.312
	C72.537,99.534,70.626,100,68.623,100c-1.982,0-3.923-0.467-5.629-1.246c-1.757-0.832-3.739-1.312-5.811-1.312
	c-2.048,0-4.032,0.48-5.787,1.312C49.669,99.534,47.75,100,45.747,100c-2.005,0-3.917-0.467-5.628-1.246
	c-1.757-0.832-3.741-1.312-5.803-1.312c-2.07,0-4.054,0.48-5.803,1.312C26.797,99.534,24.875,100,22.87,100
	c-1.991,0-3.915-0.467-5.636-1.246c-1.758-0.832-3.739-1.312-5.803-1.312c-2.056,0-4.038,0.48-5.795,1.312
	C3.914,99.534,2.004,100,0,100v-8.55c2.004,0,3.914-0.458,5.636-1.245c1.757-0.803,3.739-1.283,5.795-1.283
	c2.064,0,4.044,0.48,5.803,1.283c1.721,0.787,3.645,1.245,5.636,1.245c2.004,0,3.927-0.458,5.642-1.245
	c1.749-0.803,3.733-1.283,5.803-1.283c2.062,0,4.046,0.48,5.803,1.283c1.712,0.787,3.623,1.245,5.628,1.245
	c2.003,0,3.922-0.458,5.65-1.245c1.755-0.803,3.739-1.283,5.787-1.283c2.071,0,4.054,0.48,5.811,1.283
	c1.706,0.787,3.646,1.245,5.629,1.245c2.003,0,3.914-0.458,5.649-1.245c1.749-0.803,3.732-1.283,5.787-1.283
	c2.07,0,4.055,0.48,5.803,1.283c1.714,0.787,3.646,1.245,5.629,1.245V100z"/>
<polygon points="54.772,0 54.772,64.298 2.677,64.298 "/>
<path d="M59.714,14.827c15.331,7.206,33.534,26.419,31.143,49.471H59.714V14.827L59.714,14.827z"/>
<path d="M84.274,68.952H70.059H14.976v12.712c0.78,0.207,1.553,0.436,2.26,0.781c1.72,0.758,3.644,1.225,5.635,1.225
	c2.005,0,3.929-0.467,5.642-1.225c1.749-0.826,3.733-1.312,5.803-1.312c2.062,0,4.046,0.486,5.804,1.312
	c1.713,0.758,3.623,1.225,5.627,1.225c2.003,0,3.922-0.467,5.651-1.225c1.756-0.826,3.739-1.312,5.786-1.312
	c2.071,0,4.056,0.486,5.811,1.312c1.707,0.758,3.646,1.225,5.629,1.225c0.386,0,0.751-0.098,1.114-0.141
	c0.043,0,0.043,0.043,0.09,0.043c0.253,0,0.435-0.109,0.684-0.109c0.458-0.065,0.912-0.117,1.371-0.228
	c4.098-0.856,6.742-4.083,6.742-4.083l7.969-10.199L84.274,68.952L84.274,68.952z"/>
</svg>
