<?xml version="1.0" encoding="utf-8"?>
<!-- Generator: Adobe Illustrator 14.0.0, SVG Export Plug-In . SVG Version: 6.00 Build 43363)  -->
<!DOCTYPE svg PUBLIC "-//W3C//DTD SVG 1.0//EN" "http://www.w3.org/TR/2001/REC-SVG-20010904/DTD/svg10.dtd">
<svg version="1.0" id="Layer_1" xmlns="http://www.w3.org/2000/svg" xmlns:xlink="http://www.w3.org/1999/xlink" x="0px" y="0px"
	 width="100px" height="69.117px" viewBox="0 0 100 69.117" enable-background="new 0 0 100 69.117" xml:space="preserve">
<path d="M74.176,11.765L66.822,0H33.178l-7.354,11.765H0v57.353h34.533c-3.772-2.665-6.893-6.187-9.065-10.294H10.294V22.059h21.234
	l7.354-11.765h22.236l7.354,11.765h21.234v36.765H74.532c-2.173,4.107-5.294,7.629-9.065,10.294H100V11.765H74.176z"/>
<path d="M50,21.079c-13.266,0-24.02,10.754-24.02,24.02c0,13.265,10.754,24.019,24.02,24.019c13.267,0,24.021-10.754,24.021-24.019
	C74.021,31.833,63.267,21.079,50,21.079z M50,58.823c-7.58,0-13.725-6.146-13.725-13.725c0-7.58,6.145-13.726,13.725-13.726
	s13.725,6.146,13.725,13.726C63.725,52.678,57.58,58.823,50,58.823z"/>
</svg>
