<?xml version="1.0" encoding="utf-8"?>
<!-- Generator: Adobe Illustrator 14.0.0, SVG Export Plug-In . SVG Version: 6.00 Build 43363)  -->
<!DOCTYPE svg PUBLIC "-//W3C//DTD SVG 1.0//EN" "http://www.w3.org/TR/2001/REC-SVG-20010904/DTD/svg10.dtd">
<svg version="1.0" id="Layer_1" xmlns="http://www.w3.org/2000/svg" xmlns:xlink="http://www.w3.org/1999/xlink" x="0px" y="0px"
	 width="45.873px" height="100px" viewBox="0 0 45.873 100" enable-background="new 0 0 45.873 100" xml:space="preserve">
<path d="M41.979,100H3.895c-0.714,0-1.262-0.548-1.273-1.272c-0.011-0.713,0.493-1.271,1.18-1.316v-0.002
	c0.152-0.008,15.221-0.844,16.71-7.11c0.27-1.206,1.388-22.286-0.783-29.373c-0.8-2.613-2.994-4.243-5.77-6.307
	C9.84,51.559,4.715,47.75,1.729,38.787C-3.582,22.84,5.002,1.287,5.37,0.377L5.523,0H40.35l0.153,0.377
	c0.368,0.91,8.952,22.462,3.641,38.409c-2.985,8.964-8.11,12.772-12.228,15.833c-2.777,2.063-4.971,3.693-5.771,6.307
	c-2.171,7.087-1.053,28.167-0.783,29.373c1.49,6.271,16.558,7.103,16.71,7.11v0.002c0.687,0.046,1.191,0.604,1.18,1.316
	C43.24,99.452,42.693,100,41.979,100L41.979,100z M3.852,98.785c0,0,0.013,0.005,0.043,0.005h38.084
	c0.032,0,0.045-0.006,0.045-0.006c0.004-0.004,0.02-0.034,0.02-0.081s-0.016-0.075-0.021-0.081l-0.002-0.159l-0.009,0.153
	c-0.657-0.033-16.127-0.895-17.825-8.038c-0.286-1.201-1.479-22.559,0.803-30.006c0.917-2.993,3.367-4.815,6.205-6.924
	c3.981-2.959,8.937-6.641,11.802-15.244c4.795-14.395-2.338-34.221-3.468-37.195H6.345C5.215,4.183-1.918,24.01,2.877,38.404
	c2.865,8.603,7.82,12.285,11.802,15.244c2.837,2.108,5.289,3.931,6.205,6.924c2.282,7.447,1.088,28.805,0.803,30.006
	c-1.68,7.068-16.842,7.986-17.799,8.037v0.002c-0.042,0.011-0.057,0.039-0.058,0.086S3.846,98.779,3.852,98.785L3.852,98.785
	L3.852,98.785z"/>
<path d="M41.836,38.467c0.148-0.445,0.284-0.895,0.408-1.349H3.763c0.125,0.455,0.26,0.904,0.408,1.349
	c3.461,10.391,10.15,13.05,13.945,16.556h9.775C31.687,51.517,38.376,48.858,41.836,38.467z"/>
</svg>
