<?xml version="1.0" encoding="utf-8"?>
<!-- Generator: Adobe Illustrator 14.0.0, SVG Export Plug-In . SVG Version: 6.00 Build 43363)  -->
<!DOCTYPE svg PUBLIC "-//W3C//DTD SVG 1.0//EN" "http://www.w3.org/TR/2001/REC-SVG-20010904/DTD/svg10.dtd">
<svg version="1.0" id="Layer_1" xmlns="http://www.w3.org/2000/svg" xmlns:xlink="http://www.w3.org/1999/xlink" x="0px" y="0px"
	 width="99.999px" height="34.469px" viewBox="0 0 99.999 34.469" enable-background="new 0 0 99.999 34.469" xml:space="preserve">
<path d="M93.29,5.042c-8.948-6.722-23.507-6.722-32.454,0L50,13.185L39.164,5.042c-8.948-6.722-23.506-6.722-32.453,0
	c-8.947,6.724-8.947,17.662,0,24.386c8.947,6.722,23.505,6.722,32.452,0L50,21.284l10.836,8.144c8.947,6.722,23.507,6.722,32.454,0
	C102.236,22.704,102.236,11.766,93.29,5.042z M33.829,25.418c-6.006,4.514-15.778,4.514-21.784,0
	c-6.006-4.512-6.006-11.854,0-16.368c6.006-4.512,15.778-4.512,21.784,0h0l10.836,8.143l-0.056,0.041l0.055,0.042L33.829,25.418z
	 M87.955,25.418c-6.007,4.514-15.778,4.514-21.785,0l-10.835-8.142l0.056-0.042l-0.056-0.041L66.17,9.05l0,0
	c6.007-4.512,15.778-4.512,21.785,0C93.961,13.563,93.961,20.906,87.955,25.418z"/>
</svg>
