<?xml version="1.0" encoding="utf-8"?>
<!-- Generator: Adobe Illustrator 14.0.0, SVG Export Plug-In . SVG Version: 6.00 Build 43363)  -->
<!DOCTYPE svg PUBLIC "-//W3C//DTD SVG 1.0//EN" "http://www.w3.org/TR/2001/REC-SVG-20010904/DTD/svg10.dtd">
<svg version="1.0" id="Layer_1" xmlns="http://www.w3.org/2000/svg" xmlns:xlink="http://www.w3.org/1999/xlink" x="0px" y="0px"
	 width="68.362px" height="100px" viewBox="0 0 68.362 100" enable-background="new 0 0 68.362 100" xml:space="preserve">
<path d="M46.102,0l-4.886,4.884c12.415,11.087,20.247,27.203,20.247,45.117c0,15.436-5.818,29.534-15.373,40.233l-6.885-6.889
	l-0.021,0.021c7.807-8.926,12.547-20.602,12.547-33.366c0-15.232-6.746-28.914-17.405-38.225l-4.888,4.889l-6.292,6.289l-4.91,4.913
	c6.584,5.144,10.83,13.151,10.83,22.134c0,6.502-2.232,12.484-5.958,17.248l-6.329-6.328l-0.002,0.003
	c2.153-3.104,3.42-6.868,3.42-10.923c0-6.542-3.289-12.327-8.294-15.8l-5.002,5c3.81,2.099,6.397,6.152,6.397,10.8
	c0,4.646-2.587,8.7-6.398,10.798l5.003,5l6.333,6.334l4.91,4.913c7.82-6.423,12.818-16.16,12.818-27.045
	c0-8.414-2.987-16.142-7.955-22.181l0.016,0.015l6.292-6.292c6.554,7.666,10.516,17.606,10.516,28.458
	c0,13.328-5.979,25.287-15.394,33.334l4.888,4.892l6.891,6.89l1.893,1.89L46.102,100c13.66-12.34,22.26-30.184,22.26-49.999
	C68.362,30.184,59.762,12.34,46.102,0z"/>
<circle cx="3.45" cy="49.999" r="3.45"/>
</svg>
