<?xml version="1.0" encoding="utf-8"?>
<!-- Generator: Adobe Illustrator 14.0.0, SVG Export Plug-In . SVG Version: 6.00 Build 43363)  -->
<!DOCTYPE svg PUBLIC "-//W3C//DTD SVG 1.0//EN" "http://www.w3.org/TR/2001/REC-SVG-20010904/DTD/svg10.dtd">
<svg version="1.0" id="Layer_1" xmlns="http://www.w3.org/2000/svg" xmlns:xlink="http://www.w3.org/1999/xlink" x="0px" y="0px"
	 width="100px" height="100px" viewBox="0 0 100 100" enable-background="new 0 0 100 100" xml:space="preserve">
<path d="M93.738,16.712c2.088,0,4.176,0,6.262,0V0L0,100h16.713c0-2.087,0-4.174,0-6.262c0-0.904,1.403-0.904,1.403,0
	c0,2.088,0,4.175,0,6.262h8.765c0-2.087,0-4.174,0-6.262c0-0.904,1.404-0.904,1.404,0c0,2.088,0,4.175,0,6.262h8.765
	c0-2.087,0-4.174,0-6.262c0-0.904,1.405-0.904,1.405,0c0,2.088,0,4.175,0,6.262h8.765c0-2.087,0-4.174,0-6.262
	c0-0.904,1.404-0.904,1.404,0c0,2.088,0,4.175,0,6.262h8.765c0-2.087,0-4.174,0-6.262c0-0.904,1.404-0.904,1.404,0
	c0,2.088,0,4.175,0,6.262h8.765c0-2.087,0-4.174,0-6.262c0-0.904,1.403-0.904,1.403,0c0,2.088,0,4.175,0,6.262h8.766
	c0-2.087,0-4.174,0-6.262c0-0.904,1.403-0.904,1.403,0c0,2.088,0,4.175,0,6.262h8.766c0-2.087,0-4.174,0-6.262
	c0-0.904,1.404-0.904,1.404,0c0,2.088,0,4.175,0,6.262H100V89.3c-2.086,0-4.174,0-6.262,0c-0.904,0-0.904-1.404,0-1.404
	c2.088,0,4.176,0,6.262,0V79.13c-2.086,0-4.174,0-6.262,0c-0.904,0-0.904-1.404,0-1.404c2.088,0,4.176,0,6.262,0V68.96
	c-2.086,0-4.174,0-6.262,0c-0.904,0-0.904-1.402,0-1.402c2.088,0,4.176,0,6.262,0v-8.765c-2.086,0-4.174,0-6.262,0
	c-0.904,0-0.904-1.405,0-1.405c2.088,0,4.176,0,6.262,0v-8.765c-2.086,0-4.174,0-6.262,0c-0.904,0-0.904-1.404,0-1.404
	c2.088,0,4.176,0,6.262,0v-8.765c-2.086,0-4.174,0-6.262,0c-0.904,0-0.904-1.403,0-1.403c2.088,0,4.176,0,6.262,0v-8.767
	c-2.086,0-4.174,0-6.262,0c-0.904,0-0.904-1.403,0-1.403c2.088,0,4.176,0,6.262,0v-8.765c-2.086,0-4.174,0-6.262,0
	C92.834,18.116,92.834,16.712,93.738,16.712z M84.965,84.962l-48.838,0.001l48.838-48.837V84.962z"/>
</svg>
