<?xml version="1.0" encoding="utf-8"?>
<!-- Generator: Adobe Illustrator 14.0.0, SVG Export Plug-In . SVG Version: 6.00 Build 43363)  -->
<!DOCTYPE svg PUBLIC "-//W3C//DTD SVG 1.0//EN" "http://www.w3.org/TR/2001/REC-SVG-20010904/DTD/svg10.dtd">
<svg version="1.0" id="Layer_1" xmlns="http://www.w3.org/2000/svg" xmlns:xlink="http://www.w3.org/1999/xlink" x="0px" y="0px"
	 width="100px" height="100px" viewBox="0 0 100 100" enable-background="new 0 0 100 100" xml:space="preserve">
<path d="M81.58,63.159H68.422V36.842H81.58c10.155,0,18.42-8.264,18.42-18.422S91.735,0,81.58,0C71.421,0,63.159,8.263,63.159,18.42
	v13.158H36.844V18.42C36.844,8.263,28.58,0,18.422,0S0,8.263,0,18.42s8.264,18.422,18.422,18.422H31.58v26.316H18.422
	C8.264,63.159,0,71.423,0,81.578C0,91.735,8.264,100,18.422,100s18.422-8.265,18.422-18.422V68.421h26.315v13.156
	C63.159,91.735,71.421,100,81.58,100C91.735,100,100,91.735,100,81.578C100,71.423,91.735,63.159,81.58,63.159z M68.422,18.42
	c0-7.256,5.902-13.156,13.158-13.156c7.254,0,13.157,5.9,13.157,13.156S88.834,31.578,81.58,31.578H68.422V18.42z M18.422,31.578
	c-7.256,0-13.158-5.902-13.158-13.158S11.166,5.264,18.422,5.264s13.158,5.9,13.158,13.156v13.158H18.422z M31.58,81.578
	c0,7.256-5.902,13.159-13.158,13.159S5.264,88.833,5.264,81.578s5.902-13.156,13.158-13.156H31.58V81.578z M36.844,63.159V36.842
	h26.315v26.316H36.844z M81.58,94.737c-7.256,0-13.158-5.903-13.158-13.159V68.421H81.58c7.254,0,13.157,5.9,13.157,13.156
	S88.834,94.737,81.58,94.737z"/>
</svg>
