<?xml version="1.0" encoding="utf-8"?>
<!-- Generator: Adobe Illustrator 14.0.0, SVG Export Plug-In . SVG Version: 6.00 Build 43363)  -->
<!DOCTYPE svg PUBLIC "-//W3C//DTD SVG 1.0//EN" "http://www.w3.org/TR/2001/REC-SVG-20010904/DTD/svg10.dtd">
<svg version="1.0" id="Layer_1" xmlns="http://www.w3.org/2000/svg" xmlns:xlink="http://www.w3.org/1999/xlink" x="0px" y="0px"
	 width="81.041px" height="100px" viewBox="0 0 81.041 100" enable-background="new 0 0 81.041 100" xml:space="preserve">
<path d="M19.701,51.085c-3.427,0-6.214-2.786-6.214-6.21c0-3.419,2.788-6.201,6.214-6.201c3.417,0,6.198,2.782,6.198,6.201
	c0,1.657-0.645,3.217-1.818,4.391C22.908,50.44,21.353,51.085,19.701,51.085L19.701,51.085z M19.701,43.355
	c-0.845,0-1.533,0.682-1.533,1.52c0,0.844,0.688,1.53,1.533,1.53c0.4,0,0.78-0.159,1.067-0.447c0.29-0.29,0.449-0.674,0.449-1.082
	C21.217,44.037,20.537,43.355,19.701,43.355L19.701,43.355z"/>
<path d="M58.011,7.138V0H39.04v4.86C24.845,7.052,11.897,17.919,8.877,30.957C8.261,33.625,7.6,39.805,7.443,41.314L0.393,59.113
	C0.136,59.71,0,60.393,0,61.091c0,2.82,2.295,5.115,5.116,5.115h2.282v7.295c0,8.792,7.146,15.944,15.928,15.944h3.061V100h41.47
	v-30.49c8.393-7.023,13.184-17.245,13.184-28.226C81.041,25.851,71.501,12.607,58.011,7.138z M53.33,4.681v0.916v4.857v24.971
	c-1.507-0.524-3.122-0.813-4.805-0.813s-3.298,0.289-4.805,0.813V9.144V4.681h4.56H53.33z M48.525,39.293
	c3.288,0,6.21,1.6,8.028,4.062c1.225,1.657,1.95,3.703,1.95,5.917c0,5.502-4.477,9.978-9.979,9.978s-9.978-4.476-9.978-9.978
	c0-2.214,0.726-4.26,1.95-5.917C42.316,40.894,45.237,39.293,48.525,39.293z M64.07,66.554l-0.895,0.703v28.062H31.068V84.765
	h-7.742c-6.202,0-11.247-5.053-11.247-11.264V61.526H5.116c-0.244,0-0.435-0.191-0.435-0.435c0-0.076,0.011-0.124,0.01-0.126
	l7.344-18.532l0.032-0.325c0.007-0.074,0.747-7.397,1.371-10.096C15.95,21.167,27.051,11.793,39.04,9.614v28.494
	c-3.163,2.691-5.174,6.696-5.174,11.164c0,8.083,6.576,14.659,14.659,14.659s14.659-6.576,14.659-14.659
	c0-4.468-2.012-8.473-5.174-11.164V12.25c10.84,5.172,18.349,16.242,18.349,29.034C76.359,51.203,71.88,60.414,64.07,66.554z"/>
</svg>
