<?xml version="1.0" encoding="utf-8"?>
<!-- Generator: Adobe Illustrator 14.0.0, SVG Export Plug-In . SVG Version: 6.00 Build 43363)  -->
<!DOCTYPE svg PUBLIC "-//W3C//DTD SVG 1.0//EN" "http://www.w3.org/TR/2001/REC-SVG-20010904/DTD/svg10.dtd">
<svg version="1.0" id="Layer_1" xmlns="http://www.w3.org/2000/svg" xmlns:xlink="http://www.w3.org/1999/xlink" x="0px" y="0px"
	 width="85.911px" height="100px" viewBox="0 0 85.911 100" enable-background="new 0 0 85.911 100" xml:space="preserve">
<path d="M43.112,100c-1.63-6.269-3.952-12.15-6.975-17.65c-3.022-5.497-8.867-14.035-17.536-25.617
	c-6.36-8.497-10.275-13.891-11.744-16.174c-2.417-3.717-4.165-7.132-5.243-10.241C0.538,27.212,0,24.064,0,20.877
	C0,14.98,1.942,10.04,5.832,6.058c3.889-3.984,8.697-5.976,14.424-5.976c5.78,0,10.798,2.07,15.054,6.213
	c3.205,3.083,5.806,7.677,7.802,13.785c1.735-6.001,4.179-10.571,7.331-13.705C54.804,2.127,59.849,0,65.576,0
	C71.251,0,76.058,1.98,80,5.937c3.941,3.957,5.911,8.672,5.911,14.143c0,4.781-1.156,9.763-3.469,14.94
	c-2.312,5.179-6.776,11.965-13.397,20.358C60.426,66.375,54.146,75.406,50.207,82.47C47.105,88.047,44.741,93.892,43.112,100z"/>
</svg>
