<?xml version="1.0" encoding="utf-8"?>
<!-- Generator: Adobe Illustrator 14.0.0, SVG Export Plug-In . SVG Version: 6.00 Build 43363)  -->
<!DOCTYPE svg PUBLIC "-//W3C//DTD SVG 1.1//EN" "http://www.w3.org/Graphics/SVG/1.1/DTD/svg11.dtd">
<svg version="1.1" id="Layer_1" xmlns="http://www.w3.org/2000/svg" xmlns:xlink="http://www.w3.org/1999/xlink" x="0px" y="0px"
	 width="100px" height="100px" viewBox="0 0 100 100" enable-background="new 0 0 100 100" xml:space="preserve">
<path d="M83.109-0.038l3.938,37.375c0,4.659-0.825,9.048-2.479,13.155c-1.651,4.113-3.897,7.692-6.736,10.745
	c-2.842,3.049-6.243,5.464-10.206,7.245c-3.96,1.778-8.262,2.669-12.908,2.669v19.323h22.627c1.95,0,3.39,0.483,4.323,1.452
	c0.933,0.973,1.396,2.051,1.396,3.228c0,1.189-0.464,2.278-1.396,3.292c-0.933,1.019-2.373,1.516-4.323,1.516H22.216
	c-1.95,0-3.389-0.497-4.323-1.516c-0.931-1.011-1.396-2.103-1.396-3.292c0-1.177,0.465-2.255,1.396-3.228
	c0.934-0.969,2.375-1.452,4.323-1.452h23.008V71.153c-4.576,0-8.836-0.892-12.775-2.671c-3.941-1.78-7.332-4.194-10.17-7.245
	c-2.839-3.051-5.085-6.632-6.737-10.743c-1.654-4.107-2.478-8.496-2.478-13.155l3.812-37.375h44.5l7.881,17.669l2.541,1.145
	l9.666,23.391l0.512-0.254L65.563-0.038H83.109L83.109-0.038z"/>
</svg>
