<?xml version="1.0" encoding="utf-8"?>
<!-- Generator: Adobe Illustrator 14.0.0, SVG Export Plug-In . SVG Version: 6.00 Build 43363)  -->
<!DOCTYPE svg PUBLIC "-//W3C//DTD SVG 1.0//EN" "http://www.w3.org/TR/2001/REC-SVG-20010904/DTD/svg10.dtd">
<svg version="1.0" id="Layer_1" xmlns="http://www.w3.org/2000/svg" xmlns:xlink="http://www.w3.org/1999/xlink" x="0px" y="0px"
	 width="69.182px" height="100px" viewBox="0 0 69.182 100" enable-background="new 0 0 69.182 100" xml:space="preserve">
<path d="M69.169,39.241C68.6,31.294,40.775,23.908,36.217,23.877v-0.001H32.98v0.001c-4.53,0.015-32.615,7.468-32.97,15.457H0v2.25
	h0.001V68.22c0,1.841,1.492,3.332,3.332,3.332h19.314h1.129h21.627h20.442c1.841,0,3.335-1.491,3.335-3.332V41.897l0,0v-2.656
	H69.169z M34.591,38.553c-3.221,0-5.833-2.612-5.833-5.833s2.611-5.833,5.833-5.833c3.223,0,5.834,2.611,5.834,5.833
	S37.814,38.553,34.591,38.553z"/>
<path d="M41.815,4.901V1.665c0-0.797-0.746-1.443-1.668-1.443h-11.11c-0.92,0-1.667,0.646-1.667,1.443v3.237
	C19.947,6.643,7.885,10.579,2.612,15.17v17.161c7.126-6.204,26.655-11.21,30.368-11.224v-0.002h3.237v0.002
	c3.749,0.026,23.234,5.026,30.352,11.223V15.167C61.294,10.576,49.237,6.643,41.815,4.901z M31.584,18.398
	c-4.694,0.659-16.56,3.836-24.333,8.02v-8.541c7.773-4.181,19.639-7.359,24.333-8.02V18.398z M61.959,26.417
	c-7.776-4.183-19.64-7.36-24.334-8.02V9.856c4.694,0.661,16.558,3.839,24.334,8.02V26.417z"/>
<circle cx="20.474" cy="3.222" r="3.223"/>
<path d="M51.917,3.222c0,1.778-1.441,3.221-3.224,3.221c-1.776,0-3.221-1.443-3.221-3.221c0-1.78,1.444-3.222,3.221-3.222
	C50.475,0,51.917,1.442,51.917,3.222z"/>
<path d="M34.917,74.279H6.432v16.665c0,2.168,1.539,3.985,3.625,4.511l-0.009,0.003l0.182,0.039c0.042,0.01,0.083,0.018,0.124,0.025
	c0,0,2.663,0.618,6.263,1.4l5.421-16.93h12.88h12.881l5.42,16.93c3.6-0.782,6.262-1.4,6.262-1.4
	c0.042-0.008,0.083-0.016,0.124-0.025l0.181-0.039l-0.008-0.003c2.086-0.525,3.628-2.343,3.628-4.511V74.279H34.917z"/>
<path d="M45.345,82.913H34.591H23.836l-5.138,16.052C23.775,99.639,29.101,100,34.591,100c5.495,0,10.819-0.36,15.894-1.035
	L45.345,82.913z"/>
</svg>
