<?xml version="1.0" encoding="utf-8"?>
<!-- Generator: Adobe Illustrator 14.0.0, SVG Export Plug-In . SVG Version: 6.00 Build 43363)  -->
<!DOCTYPE svg PUBLIC "-//W3C//DTD SVG 1.0//EN" "http://www.w3.org/TR/2001/REC-SVG-20010904/DTD/svg10.dtd">
<svg version="1.0" id="Layer_1" xmlns="http://www.w3.org/2000/svg" xmlns:xlink="http://www.w3.org/1999/xlink" x="0px" y="0px"
	 width="100px" height="73.149px" viewBox="0 0 100 73.149" enable-background="new 0 0 100 73.149" xml:space="preserve">
<path d="M100,11.122L87.914,0v5.735h-2.705c-7.722,0-14.724,3.03-19.855,7.924L46.222,32.792L27.09,51.926l0.001,0.002
	c-3.198,2.965-7.534,4.798-12.313,4.798H0v10.667h14.778c7.722,0,14.724-3.03,19.855-7.925l19.131-19.133l19.133-19.134L72.896,21.2
	c3.197-2.965,7.533-4.798,12.313-4.798h2.705v5.84L100,11.122z"/>
<path d="M41.188,35.297l7.542-7.542l-14.098-14.1C29.502,8.761,22.5,5.731,14.778,5.731v0.001H0v10.667h14.778v-0.001
	c4.78,0,9.115,1.833,12.313,4.798l-0.001,0.001L41.188,35.297z"/>
<path d="M100,62.029L87.914,50.908v5.812h-2.705v0.001c-4.78,0-9.116-1.833-12.313-4.798l0.002-0.002L58.78,37.805l-7.542,7.543
	l14.115,14.116c5.132,4.895,12.134,7.925,19.855,7.925v-0.001h2.705v5.762L100,62.029z"/>
</svg>
