<?xml version="1.0" encoding="utf-8"?>
<!-- Generator: Adobe Illustrator 14.0.0, SVG Export Plug-In . SVG Version: 6.00 Build 43363)  -->
<!DOCTYPE svg PUBLIC "-//W3C//DTD SVG 1.0//EN" "http://www.w3.org/TR/2001/REC-SVG-20010904/DTD/svg10.dtd">
<svg version="1.0" id="Layer_1" xmlns="http://www.w3.org/2000/svg" xmlns:xlink="http://www.w3.org/1999/xlink" x="0px" y="0px"
	 width="51.468px" height="100px" viewBox="0 0 51.468 100" enable-background="new 0 0 51.468 100" xml:space="preserve">
<path d="M40.2,35.545c-7.068-4.74-21.736,0.131-30.496,3.783V6.561h2.46V0H0v6.561h3.144v83.921h6.561V46.478
	c9.687-4.292,22.707-8.254,26.843-5.483c12.859,8.618,8.992,17.501,1.095,31.108c-4.14,7.131-8.049,13.866-6.248,20.108
	c1.347,4.664,5.205,7.481,5.641,7.789l3.788-5.356c-0.023-0.02-2.406-1.762-3.125-4.252c-1.025-3.552,2.201-9.11,5.618-14.996
	C49.976,63.923,59.096,48.21,40.2,35.545z"/>
</svg>
