<?xml version="1.0" encoding="utf-8"?>
<!-- Generator: Adobe Illustrator 14.0.0, SVG Export Plug-In . SVG Version: 6.00 Build 43363)  -->
<!DOCTYPE svg PUBLIC "-//W3C//DTD SVG 1.0//EN" "http://www.w3.org/TR/2001/REC-SVG-20010904/DTD/svg10.dtd">
<svg version="1.0" id="Layer_1" xmlns="http://www.w3.org/2000/svg" xmlns:xlink="http://www.w3.org/1999/xlink" x="0px" y="0px"
	 width="100px" height="53.037px" viewBox="-100 -167.277 100 53.037" enable-background="new -100 -167.277 100 53.037"
	 xml:space="preserve">
<path d="M0-137.198c0-9.142-15.332-18.619-28.749-23.267c-3.632-3.661-9.089-7.459-10.42-6.72c-0.937,0.521,0.406,2.413,1.406,4.294
	c-1.833-0.328-3.517-0.503-4.977-0.503c-29.213,0-40.689,16.579-43.597,16.655c-2.762,0.072-9.226-17.47-13.559-14.742
	c-1.026,0.646,5.888,8.992,5.888,18.037c0,1.332,1.404,2.262,2.075,2.408c-0.67,0.146-2.075,1.076-2.075,2.408
	c0,9.045-6.914,17.392-5.888,18.037c4.333,2.728,10.796-14.814,13.559-14.742c0.126,0.003,0.271,0.04,0.43,0.103
	c4.858,3.977,22.921,16.004,45.017,16.828c0.361,0.013,0.809-0.001,1.327-0.039c-1.664,1.771-3.915,3.359-3.73,3.769
	c0.809,1.798,9.881-2.417,13.658-5.438c8.32-1.806,18.763-4.741,24.328-7.332c2.585-1.203-0.552-3.219-0.144-5.882
	C-5.201-134.956,0-134.74,0-137.198z M-19.606-144.3c-1.367,0-2.475-1.108-2.475-2.475c0-1.367,1.108-2.475,2.475-2.475
	s2.475,1.108,2.475,2.475C-17.131-145.408-18.239-144.3-19.606-144.3z"/>
</svg>
