<?xml version="1.0" encoding="utf-8"?>
<!-- Generator: Adobe Illustrator 14.0.0, SVG Export Plug-In . SVG Version: 6.00 Build 43363)  -->
<!DOCTYPE svg PUBLIC "-//W3C//DTD SVG 1.0//EN" "http://www.w3.org/TR/2001/REC-SVG-20010904/DTD/svg10.dtd">
<svg version="1.0" id="Layer_1" xmlns="http://www.w3.org/2000/svg" xmlns:xlink="http://www.w3.org/1999/xlink" x="0px" y="0px"
	 width="100px" height="71.357px" viewBox="0 0 100 71.357" enable-background="new 0 0 100 71.357" xml:space="preserve">
<path d="M50,0C22.386,0,0,10.35,0,23.117h100C100,10.35,77.614,0,50,0z"/>
<path d="M50,71.357c-27.613,0-50-10.351-50-23.114h100C100,61.007,77.614,71.357,50,71.357z"/>
<path d="M100,39.675c0,1.666-1.351,3.015-3.016,3.015H3.015C1.35,42.689,0,41.341,0,39.675v-8.041c0-1.665,1.35-3.015,3.015-3.015
	h93.97c1.665,0,3.016,1.351,3.016,3.015V39.675z"/>
</svg>
