<?xml version="1.0" encoding="utf-8"?>
<!-- Generator: Adobe Illustrator 14.0.0, SVG Export Plug-In . SVG Version: 6.00 Build 43363)  -->
<!DOCTYPE svg PUBLIC "-//W3C//DTD SVG 1.0//EN" "http://www.w3.org/TR/2001/REC-SVG-20010904/DTD/svg10.dtd">
<svg version="1.0" id="Layer_1" xmlns="http://www.w3.org/2000/svg" xmlns:xlink="http://www.w3.org/1999/xlink" x="0px" y="0px"
	 width="99.999px" height="100px" viewBox="0 0 99.999 100" enable-background="new 0 0 99.999 100" xml:space="preserve">
<polygon points="17.096,60.292 17.096,51.393 73.071,51.393 73.071,60.292 17.096,60.292 "/>
<polygon points="82.436,60.292 79.435,60.292 79.435,51.229 82.436,51.229 82.436,60.292 "/>
<polygon points="77.738,60.292 74.738,60.292 74.738,51.229 77.738,51.229 77.738,60.292 "/>
<path d="M82.436,49.755h-3.001V44.24c-0.018-4.875-3.385-10.069-9.588-10.078h-4.75c-0.562,0-1.077-0.317-1.336-0.82
	c-0.256-0.505-0.206-1.105,0.123-1.561c1.082-1.489,1.73-3.325,1.735-4.912c-0.005-3.959-3.164-6.842-7.514-6.851l0.008-3.001
	c5.982,0.011,10.499,4.247,10.506,9.854c-0.005,1.405-0.336,2.887-0.947,4.291h2.177c3.644,0.006,6.934,1.473,9.264,4.13
	c2.1,2.394,3.311,5.654,3.323,8.943V49.755L82.436,49.755z"/>
<path d="M77.738,49.755h-3v-4.097c0-1.374-0.395-2.433-1.173-3.153c-0.839-0.778-2.182-1.188-3.878-1.188h-0.001
	c0,0-7.803-0.001-8.019,0c-0.002,0-0.005,0-0.011,0c-2.504-0.001-4.647-1.247-5.884-3.413c-0.975-1.712-1.255-3.814-0.846-5.72
	c-2.675-0.324-4.465-1.492-5.566-2.532c-1.778-1.68-2.798-4.027-2.801-6.437c0.002-2.496,1.006-4.981,2.685-6.652
	c1.604-1.598,3.771-2.438,6.266-2.438c0.01,0,0.023,0,0.034,0l-0.01,2.999c-0.007,0-0.018,0-0.024,0c-1.71,0-3.104,0.526-4.15,1.566
	c-1.126,1.122-1.799,2.813-1.801,4.526c0.001,1.589,0.681,3.14,1.862,4.258c1.367,1.289,3.291,1.905,5.564,1.778
	c0.555-0.032,1.079,0.246,1.364,0.719c0.288,0.476,0.293,1.068,0.01,1.546c-0.834,1.403-0.826,3.42,0.021,4.903
	c0.491,0.866,1.46,1.896,3.275,1.896v0.002c0.383-0.002,1.85-0.002,8.028-0.002h0.002c2.5,0,4.492,0.666,5.914,1.986
	c1.4,1.295,2.136,3.146,2.136,5.357V49.755L77.738,49.755z"/>
<path d="M49.971,100L49.971,100c-13.351,0-25.902-5.204-35.343-14.652C5.186,75.899-0.01,63.335,0,49.971
	c-0.01-13.339,5.184-25.886,14.618-35.328C24.054,5.2,36.6,0,49.942,0h0.059C63.358,0,75.917,5.2,85.36,14.64
	c9.438,9.437,14.639,21.988,14.639,35.332c0,13.367-5.203,25.932-14.649,35.379S63.339,100,49.971,100L49.971,100z M49.942,11.151
	c-10.363,0-20.106,4.038-27.436,11.373c-7.333,7.336-11.364,17.08-11.359,27.447c-0.005,10.392,4.032,20.153,11.368,27.498
	C29.851,84.81,39.6,88.851,49.971,88.853c10.392-0.002,20.153-4.044,27.495-11.388c7.342-7.341,11.383-17.103,11.383-27.493
	c0-10.369-4.039-20.116-11.372-27.447c-7.337-7.336-17.094-11.374-27.475-11.374H49.942L49.942,11.151z"/>
<polygon points="78.407,86.145 13.914,21.705 22.136,13.477 86.631,77.916 78.407,86.145 "/>
</svg>
