<?xml version="1.0" encoding="utf-8"?>
<!-- Generator: Adobe Illustrator 14.0.0, SVG Export Plug-In . SVG Version: 6.00 Build 43363)  -->
<!DOCTYPE svg PUBLIC "-//W3C//DTD SVG 1.0//EN" "http://www.w3.org/TR/2001/REC-SVG-20010904/DTD/svg10.dtd">
<svg version="1.0" id="Layer_1" xmlns="http://www.w3.org/2000/svg" xmlns:xlink="http://www.w3.org/1999/xlink" x="0px" y="0px"
	 width="53.977px" height="100px" viewBox="0 0 53.977 100" enable-background="new 0 0 53.977 100" xml:space="preserve">
<polygon points="0,31.486 33.742,31.486 19.79,20.953 13.95,20.953 "/>
<path d="M0,33.201V100h33.742V33.201H0z M32.119,69.426H1.624V48.873h30.495V69.426z"/>
<polygon points="14.602,11.962 14.602,19.239 19.141,19.239 19.141,16.671 16.871,15.644 19.141,14.616 19.141,11.962 "/>
<circle cx="38.379" cy="1.844" r="1.843"/>
<circle cx="33.792" cy="6.43" r="1.844"/>
<circle cx="29.207" cy="11.016" r="1.843"/>
<circle cx="24.618" cy="15.601" r="1.844"/>
<circle cx="29.206" cy="20.188" r="1.843"/>
<circle cx="33.791" cy="24.773" r="1.844"/>
<circle cx="38.379" cy="29.357" r="1.844"/>
<circle cx="33.79" cy="15.601" r="1.843"/>
<circle cx="42.961" cy="15.601" r="1.843"/>
<circle cx="52.133" cy="15.601" r="1.844"/>
</svg>
