<?xml version="1.0" encoding="utf-8"?>
<!-- Generator: Adobe Illustrator 14.0.0, SVG Export Plug-In . SVG Version: 6.00 Build 43363)  -->
<!DOCTYPE svg PUBLIC "-//W3C//DTD SVG 1.0//EN" "http://www.w3.org/TR/2001/REC-SVG-20010904/DTD/svg10.dtd">
<svg version="1.0" id="Layer_1" xmlns="http://www.w3.org/2000/svg" xmlns:xlink="http://www.w3.org/1999/xlink" x="0px" y="0px"
	 width="82.625px" height="100px" viewBox="0 0 82.625 100" enable-background="new 0 0 82.625 100" xml:space="preserve">
<path d="M40.443,45.937c0.314,1.656,0.451,3.361,0.451,3.361l5.496,5.495l4.333-4.332l4.33-4.333l-5.493-5.495
	c0,0-1.705-0.138-3.362-0.452C55.374,28.19,54.484,10.968,43.516,0L0.262,43.254C11.23,54.223,28.452,55.112,40.443,45.937z"/>
<path d="M78.992,86.483l3.062,0.89c1.715-5.902-4.229-12.376-4.969-13.116L54.386,49.051l-2.535,2.536l-2.537,2.535l25.207,22.699
	C76.16,78.463,80.007,82.988,78.992,86.483z"/>
<path d="M82.362,97.655c0,1.296-1.05,2.345-2.344,2.345c-1.295,0-2.347-1.051-2.347-2.345c0-1.295,2.347-8.6,2.347-8.6
	S82.362,96.359,82.362,97.655z"/>
</svg>
