<?xml version="1.0" encoding="utf-8"?>
<!-- Generator: Adobe Illustrator 14.0.0, SVG Export Plug-In . SVG Version: 6.00 Build 43363)  -->
<!DOCTYPE svg PUBLIC "-//W3C//DTD SVG 1.0//EN" "http://www.w3.org/TR/2001/REC-SVG-20010904/DTD/svg10.dtd">
<svg version="1.0" id="Layer_1" xmlns="http://www.w3.org/2000/svg" xmlns:xlink="http://www.w3.org/1999/xlink" x="0px" y="0px"
	 width="43.211px" height="99.65px" viewBox="0 0 43.211 99.65" enable-background="new 0 0 43.211 99.65" xml:space="preserve">
<path d="M38.845,74.463c-0.236-1.073-1.188-2.5-2.732-2.261l-5.649,0.591l5.158,26.856l5.646-1.114
	c1.276-0.662,2.05-2.118,1.932-3.307L38.845,74.463z M23.958,72.717c-2.224-0.388-2.975-1.969-3.969-4.294
	c0,0-0.08-0.161-0.208-0.443c-0.713-2.983-2.094-9.296-2.947-16.596c0.007-8.824,0.902-16.295,1.237-18.786
	c0.732-2.371,1.326-3.992,3.473-4.602c1.997-0.565,2.645-0.632,4.679-0.718l2.399-27.254c-2.282-0.12-6.41,0.428-10.354,1.56
	c-3.709,1.103-7.372,2.681-9.351,4.32C4.773,15.419-1.886,34.503,0,52.593l0.039,0.033C0.67,70.097,8.782,87.322,13.69,96.001
	c2.139,1.427,5.945,2.615,9.749,3.328c4.039,0.714,8.203,0.832,10.461,0.476l-5.217-26.858
	C26.654,73.072,26.002,73.072,23.958,72.717z M33.687,27.246c1.562,0.079,2.358-1.439,2.483-2.529L38.349,3.61
	c-0.007-1.193-0.928-2.562-2.265-3.089L30.351,0l-2.344,27.245L33.687,27.246z"/>
</svg>
