<?xml version="1.0" encoding="utf-8"?>
<!-- Generator: Adobe Illustrator 14.0.0, SVG Export Plug-In . SVG Version: 6.00 Build 43363)  -->
<!DOCTYPE svg PUBLIC "-//W3C//DTD SVG 1.0//EN" "http://www.w3.org/TR/2001/REC-SVG-20010904/DTD/svg10.dtd">
<svg version="1.0" id="Layer_1" xmlns="http://www.w3.org/2000/svg" xmlns:xlink="http://www.w3.org/1999/xlink" x="0px" y="0px"
	 width="23.591px" height="100px" viewBox="0 0 23.591 100" enable-background="new 0 0 23.591 100" xml:space="preserve">
<path d="M6.973,77.674c-3.012-7.032-4.496-18.823-5.692-26.775C1.25,50.689,0.72,50.5,0.511,50.54
	C0.328,50.575-0.012,50.899,0,51.085c0.381,5.516,3.37,26.474,5.645,29.76c2.363,3.415,4.278,5.252,5.416,6.169L11.556,100h1.294
	l0.439-15.002L6.973,77.674z"/>
<path d="M22.821,50.54c-0.208-0.04-0.738,0.149-0.77,0.359c-0.973,6.467-2.136,15.473-4.156,22.394l-6.34,7.531l3.17,3.688
	c3.523-3.842,4.17-6.558,5.066-10.296c1.701-7.636,3.271-19.235,3.54-23.131C23.346,50.899,23.005,50.575,22.821,50.54z"/>
<path d="M23.08,31.902c-0.208-0.04-0.737,0.15-0.77,0.36c-0.973,6.467-2.136,15.472-4.155,22.394l-7.478,8.696l3.688,3.56
	c3.523-3.843,4.789-7.594,5.685-11.332c1.701-7.636,3.271-19.235,3.54-23.131C23.604,32.262,23.264,31.938,23.08,31.902z"/>
<path d="M4.413,50.92C2.784,43.738,2.2,38.729,1.228,32.262c-0.032-0.21-0.562-0.4-0.77-0.36c-0.183,0.036-0.262,0.397-0.242,0.583
	C0.68,36.74,1.597,44.693,3.487,52.287c0.896,3.738,3.021,6.382,6.543,10.225l2.621-3.074L4.413,50.92z"/>
<path d="M21.553,19.926c-0.209-0.041-0.738,0.149-0.771,0.36c-0.973,6.467-1.767,10.971-3.396,18.153l-7.07,8.362l3.102,2.984
	c3.523-3.842,4.21-5.736,5.106-9.475c1.89-7.593,2.808-15.546,3.271-19.801C21.814,20.322,21.736,19.961,21.553,19.926z"/>
<path d="M5.177,35.656C3.883,30.867,2.313,12.554,1.489,5.856C1.463,5.646,0.996,5.431,0.788,5.471
	C0.604,5.506,0.304,5.897,0.324,6.083c0.464,4.255,1.229,22.455,3.559,30.085c0.896,3.739,1.7,5.69,5.223,9.533l2.5-2.575
	L5.177,35.656z"/>
<path d="M19.596,5.471c-0.208-0.04-0.675,0.174-0.701,0.385c-0.824,6.698-1.509,14.064-2.555,19.575l-6.677,5.593l2.6,3.24
	c4.4-3.688,4.41-5.094,5.306-8.833c1.521-7.733,2.026-15.094,2.49-19.349C20.08,5.897,19.779,5.506,19.596,5.471z"/>
<path d="M6.946,21.701C6.374,16.134,5.867,8.326,5.415,1.424C5.4,1.212,4.9,1.009,4.692,1.049C4.508,1.084,4.057,1.497,4.077,1.683
	c0.463,4.255,0.6,12.977,1.666,20.708c0.081,2.912,0.901,4.422,2.842,7.203l2.545-2.091L6.946,21.701z"/>
<path d="M15.881,1.049c-0.209-0.04-0.709,0.163-0.723,0.375c-0.453,6.902-0.786,12.93-1.357,18.497l-3.749,4.108l2.243,2.804
	c1.904-1.322,1.731-1.322,2.167-1.919c0.438-0.597,0.605-1.396,0.603-4.373c1.065-7.731,0.967-14.603,1.43-18.858
	C16.516,1.497,16.064,1.084,15.881,1.049z"/>
<path d="M10.958,13.978c0-2.754,0-8.838,0-13.589C10.958,0.2,10.5,0,10.311,0c-0.189,0-0.647,0.2-0.647,0.388
	c0,3.828,0,12.05,0,14.412c-0.541,1.794-1.432,5.021-1.227,6.166c0.086,0.483,1.011,1.683,1.011,1.683l3.11-3.074
	C12.559,19.575,12.106,16.316,10.958,13.978z"/>
<path d="M11.379,35.063c-4.368-4.077-7.441-11.893-6.966-9.114c1.174,6.859,1.282,7.507,4.323,11.574
	C8.736,37.523,11.458,35.136,11.379,35.063z"/>
<path d="M9.664,38.6c6.676-5.371,8.608-10.706,8.132-7.927c-1.174,6.86-2.195,6.901-5.237,10.969
	C12.559,41.642,9.58,38.667,9.664,38.6z"/>
<path d="M12.536,50.78c-6.676-5.371-8.607-10.707-8.132-7.927c1.174,6.859,2.196,6.901,5.237,10.968
	C9.642,53.821,12.621,50.847,12.536,50.78z"/>
<path d="M10.579,55.11c6.246-5.584,7.761-10.952,7.285-8.173c-1.174,6.859-1.06,7.451-4.102,11.519
	C13.763,58.456,10.499,55.181,10.579,55.11z"/>
<path d="M13.288,67.99c-6.688-5.091-10.196-13.639-9.72-10.86c1.174,6.86,3.076,10.429,6.398,14.354
	C9.966,71.484,13.373,68.055,13.288,67.99z"/>
<path d="M11,72.508c5.826-4.853,7.606-11.466,7.481-8.648c-0.296,6.708-0.897,7.894-4.22,11.819
	C14.261,75.679,10.917,72.578,11,72.508z"/>
<path d="M13.503,76.876C7.678,72.024,4.209,63.69,4.53,66.491c0.809,7.054,2.826,9.652,6.147,13.578
	C10.678,80.069,13.586,76.946,13.503,76.876z"/>
</svg>
