<?xml version="1.0" encoding="utf-8"?>
<!-- Generator: Adobe Illustrator 14.0.0, SVG Export Plug-In . SVG Version: 6.00 Build 43363)  -->
<!DOCTYPE svg PUBLIC "-//W3C//DTD SVG 1.0//EN" "http://www.w3.org/TR/2001/REC-SVG-20010904/DTD/svg10.dtd">
<svg version="1.0" id="Layer_1" xmlns="http://www.w3.org/2000/svg" xmlns:xlink="http://www.w3.org/1999/xlink" x="0px" y="0px"
	 width="69.708px" height="100px" viewBox="0 0 69.708 100" enable-background="new 0 0 69.708 100" xml:space="preserve">
<path d="M26.231,100H6.36L4.978,85.106h19.87L26.231,100L26.231,100z M6.964,99.338h18.541l-1.261-13.569H5.704L6.964,99.338
	L6.964,99.338z"/>
<path d="M63.348,100h-19.87l1.383-14.894h19.87L63.348,100L63.348,100z M44.204,99.338h18.54l1.26-13.569h-18.54L44.204,99.338
	L44.204,99.338z"/>
<path d="M34.915,0.001c-0.021,0-0.041,0-0.062,0s-0.04,0-0.062,0C19.273-0.137-2.051,8.953,0.159,29.403l5.081,54.49l19.104-0.041
	l-5.286-53.229c-0.343-9.435,6.556-12.788,15.557-12.996c0.08,0.001,0.159,0.001,0.239,0c0.081,0.001,0.16,0.001,0.24,0
	c9.001,0.208,15.899,3.562,15.557,12.996l-5.286,53.229l19.104,0.041l5.081-54.49C71.76,8.953,50.435-0.137,34.915,0.001z"/>
</svg>
