<?xml version="1.0" encoding="utf-8"?>
<!-- Generator: Adobe Illustrator 14.0.0, SVG Export Plug-In . SVG Version: 6.00 Build 43363)  -->
<!DOCTYPE svg PUBLIC "-//W3C//DTD SVG 1.0//EN" "http://www.w3.org/TR/2001/REC-SVG-20010904/DTD/svg10.dtd">
<svg version="1.0" id="Layer_1" xmlns="http://www.w3.org/2000/svg" xmlns:xlink="http://www.w3.org/1999/xlink" x="0px" y="0px"
	 width="100px" height="81.519px" viewBox="0 0 100 81.519" enable-background="new 0 0 100 81.519" xml:space="preserve">
<path d="M46.469,12.474c-0.69-1.298-1.538-2.512-2.522-3.609l2.126-1.909c1.139,1.269,2.122,2.674,2.92,4.178L46.469,12.474
	L46.469,12.474z"/>
<path d="M40.629,5.968c-1.219-0.827-2.535-1.502-3.913-2.009L37.7,1.277c1.597,0.586,3.122,1.369,4.533,2.327L40.629,5.968
	L40.629,5.968z"/>
<path d="M32.431,2.961c-0.646-0.069-1.305-0.104-1.957-0.104V0c0.755,0,1.516,0.041,2.262,0.121L32.431,2.961L32.431,2.961z"/>
<path d="M12.375,20.956H9.518c0-1.712,0.207-3.413,0.614-5.058l2.773,0.687C12.554,18.005,12.375,19.476,12.375,20.956
	L12.375,20.956z"/>
<path d="M14.478,12.474l-2.523-1.339c0.798-1.504,1.781-2.91,2.92-4.178L17,8.865C16.017,9.961,15.168,11.175,14.478,12.474
	L14.478,12.474z"/>
<path d="M20.317,5.968l-1.604-2.365c1.411-0.958,2.937-1.741,4.533-2.327l0.984,2.683C22.854,4.466,21.536,5.141,20.317,5.968
	L20.317,5.968z"/>
<path d="M28.517,2.961l-0.306-2.841C28.957,0.041,29.718,0,30.474,0v2.857C29.82,2.857,29.162,2.893,28.517,2.961L28.517,2.961z"/>
<polygon points="51.429,50.639 48.571,50.639 48.571,45.876 51.429,45.876 51.429,50.639 "/>
<polygon points="51.429,41.114 48.571,41.114 48.571,36.351 51.429,36.351 51.429,41.114 "/>
<polygon points="51.429,31.588 48.571,31.588 48.571,26.826 51.429,26.826 51.429,31.588 "/>
<path d="M53.531,12.474l-2.523-1.339c0.798-1.504,1.781-2.91,2.92-4.178l2.126,1.909C55.069,9.961,54.222,11.175,53.531,12.474
	L53.531,12.474z"/>
<path d="M59.371,5.968l-1.604-2.365c1.411-0.958,2.937-1.741,4.533-2.327l0.984,2.683C61.906,4.466,60.59,5.141,59.371,5.968
	L59.371,5.968z"/>
<path d="M67.569,2.961l-0.305-2.841C68.011,0.041,68.771,0,69.526,0v2.857C68.874,2.857,68.215,2.893,67.569,2.961L67.569,2.961z"/>
<path d="M90.482,20.956h-2.857c0-1.48-0.179-2.951-0.53-4.371l2.773-0.687C90.275,17.542,90.482,19.244,90.482,20.956L90.482,20.956
	z"/>
<path d="M85.522,12.474c-0.69-1.298-1.538-2.512-2.522-3.609l2.126-1.909c1.139,1.269,2.122,2.674,2.92,4.178L85.522,12.474
	L85.522,12.474z"/>
<path d="M79.683,5.968c-1.219-0.827-2.536-1.502-3.913-2.009l0.984-2.683c1.597,0.586,3.122,1.369,4.533,2.327L79.683,5.968
	L79.683,5.968z"/>
<path d="M71.483,2.961c-0.646-0.069-1.304-0.104-1.957-0.104V0c0.756,0,1.517,0.041,2.263,0.121L71.483,2.961L71.483,2.961z"/>
<path d="M97.904,29.805c-14.047-7.922-29.949-12.232-46.102-12.532c-0.3,1.215-0.361,1.976-0.371,3.104
	c-0.001,0.176-0.003,0.366-0.003,0.579v1.073c14.658,0.226,29.107,3.924,42.024,10.771L74.902,64.931
	c-7.275-3.624-15.319-5.604-23.474-5.812v-3.717h-2.857v3.717c-2.893,0.074-5.771,0.382-8.606,0.896
	c-7.372-8.078-14.587-15.913-25-27.444c-0.839-0.995-2.197-1.321-3.088-0.571c-0.892,0.75-0.806,2.143,0.031,3.141
	c8.605,11.007,14.709,18.952,20.718,26.732c-2.577,0.84-5.098,1.849-7.527,3.059L6.547,32.799
	c12.917-6.846,27.366-10.544,42.024-10.771v-1.073c0-0.218-0.002-0.413-0.003-0.592c-0.011-1.12-0.071-1.88-0.371-3.091
	c-16.152,0.3-32.055,4.61-46.102,12.532L0,30.988l23.286,40.328l2.045-1.129c3.298-1.821,6.797-3.242,10.407-4.29
	c3.531,4.561,7.172,9.235,11.4,14.602c1.071,1.359,3.863,1.363,5.497-0.01s2.11-4.124,0.955-5.413
	c-3.539-3.949-6.726-7.476-9.792-10.851c2.054-0.252,4.124-0.386,6.201-0.386c8.622,0,17.153,2.195,24.669,6.348l2.046,1.13
	L100,30.988L97.904,29.805z"/>
</svg>
