<?xml version="1.0" encoding="utf-8"?>
<!-- Generator: Adobe Illustrator 14.0.0, SVG Export Plug-In . SVG Version: 6.00 Build 43363)  -->
<!DOCTYPE svg PUBLIC "-//W3C//DTD SVG 1.0//EN" "http://www.w3.org/TR/2001/REC-SVG-20010904/DTD/svg10.dtd">
<svg version="1.0" id="Layer_1" xmlns="http://www.w3.org/2000/svg" xmlns:xlink="http://www.w3.org/1999/xlink" x="0px" y="0px"
	 width="100px" height="41.328px" viewBox="0 0 100 41.328" enable-background="new 0 0 100 41.328" xml:space="preserve">
<polygon points="0,0 9.139,0 9.139,20.542 91.318,20.542 91.318,14.162 100,14.162 100,41.328 91.318,41.328 91.318,34.776 
	9.139,34.776 9.139,41.328 0,41.328 0,0 0,0 "/>
<path d="M19.655,15.361c3.538,0,6.405-2.87,6.405-6.401c0-3.534-2.867-6.405-6.405-6.405c-3.533,0-6.4,2.871-6.4,6.405
	C13.255,12.492,16.122,15.361,19.655,15.361L19.655,15.361L19.655,15.361z"/>
<path d="M28.902,18.357c0,0,55.935,0,57.806,0c0.312,0,0.38-0.353-0.619-3.12C82.34,4.935,25.372,0.868,25.372,15.549
	C25.372,17.55,28.902,18.357,28.902,18.357L28.902,18.357L28.902,18.357z"/>
<path d="M25.145,18.5c0-1.358-3.11-2.456-6.948-2.456c-3.837,0-6.946,1.098-6.946,2.456H25.145L25.145,18.5L25.145,18.5z"/>
</svg>
