<?xml version="1.0" encoding="utf-8"?>
<!-- Generator: Adobe Illustrator 14.0.0, SVG Export Plug-In . SVG Version: 6.00 Build 43363)  -->
<!DOCTYPE svg PUBLIC "-//W3C//DTD SVG 1.0//EN" "http://www.w3.org/TR/2001/REC-SVG-20010904/DTD/svg10.dtd">
<svg version="1.0" id="Layer_1" xmlns="http://www.w3.org/2000/svg" xmlns:xlink="http://www.w3.org/1999/xlink" x="0px" y="0px"
	 width="100px" height="89.222px" viewBox="0 0 100 89.222" enable-background="new 0 0 100 89.222" xml:space="preserve">
<path fill-rule="evenodd" clip-rule="evenodd" d="M50.242,26.235l-8.922,9.473l12.795,8.023l0,0
	c0.064,6.104,0.128,11.314,0.089,15.926c-0.039,4.563,0.333,9.062-0.269,11.393c-0.655,2.296-2.218,2.257-3.513,2.281
	c-1.345-0.024-3.438-0.699-4.243-2.372c-0.835-1.723-0.36-4.419-0.45-7.839c-0.09-3.463-0.09-7.66,0-12.742l0,0
	c-4.049-2.047-7.486-3.914-10.359-5.649c-2.909-1.763-5.357-3.06-6.847-4.745c-1.475-1.724-1.986-3.629-1.986-5.364
	c-0.039-1.737,0.563-3.125,1.807-5.018c1.244-1.982,3.204-4.003,5.59-6.557c2.385-2.581,6.256-6.842,8.552-8.645
	c2.243-1.84,3.371-2.205,4.961-2.191c1.603-0.025,3.09,1.167,4.41,2.28c1.257,1.13,1.782,2.167,3.154,4.46
	c1.345,2.253,2.936,5.209,4.87,9.02l0,0c3.681-0.362,6.437-0.362,8.462,0c1.975,0.326,3.115,0.972,3.424,2.088
	c0.295,1.087,0.025,3.626-1.795,4.47c-1.91,0.817-7.088,0.334-9.462,0.364c-2.384,0.009-3.615,0.141-4.783-0.364
	c-1.151-0.57-1.37-1.541-2.244-2.917C52.55,30.228,51.487,28.45,50.242,26.235L50.242,26.235z"/>
<path fill-rule="evenodd" clip-rule="evenodd" d="M59.499,0c4.274,0,7.744,3.507,7.744,7.83c0,4.321-3.47,7.827-7.744,7.827
	c-4.272,0-7.743-3.506-7.743-7.827C51.756,3.507,55.227,0,59.499,0"/>
<path fill-rule="evenodd" clip-rule="evenodd" d="M21.664,45.417L21.664,45.417c11.962,0,21.667,9.812,21.667,21.901
	c0,12.091-9.706,21.904-21.667,21.904C9.705,89.222,0,79.409,0,67.318C0,55.229,9.705,45.417,21.664,45.417L21.664,45.417z
	 M21.664,49.642L21.664,49.642c9.648,0,17.476,7.912,17.476,17.663c0,9.75-7.828,17.666-17.476,17.666
	c-9.645,0-17.472-7.916-17.472-17.666C4.192,57.554,12.02,49.642,21.664,49.642L21.664,49.642z"/>
<path fill-rule="evenodd" clip-rule="evenodd" d="M78.333,45.417L78.333,45.417c11.96,0,21.667,9.812,21.667,21.901
	c0,12.091-9.707,21.904-21.667,21.904c-11.961,0-21.668-9.813-21.668-21.904C56.665,55.229,66.372,45.417,78.333,45.417
	L78.333,45.417z M78.333,49.642L78.333,49.642c9.646,0,17.474,7.912,17.474,17.663c0,9.75-7.828,17.666-17.474,17.666
	c-9.646,0-17.473-7.916-17.473-17.666C60.86,57.554,68.687,49.642,78.333,49.642L78.333,49.642z"/>
</svg>
