<?xml version="1.0" encoding="utf-8"?>
<!-- Generator: Adobe Illustrator 14.0.0, SVG Export Plug-In . SVG Version: 6.00 Build 43363)  -->
<!DOCTYPE svg PUBLIC "-//W3C//DTD SVG 1.0//EN" "http://www.w3.org/TR/2001/REC-SVG-20010904/DTD/svg10.dtd">
<svg version="1.0" id="Layer_1" xmlns="http://www.w3.org/2000/svg" xmlns:xlink="http://www.w3.org/1999/xlink" x="0px" y="0px"
	 width="100px" height="55.113px" viewBox="0 0 100 55.113" enable-background="new 0 0 100 55.113" xml:space="preserve">
<path d="M88.306,17.464c3.337-7.215,3.709-14.228,3.729-14.658l0.114-2.528l-2.523-0.209C89.541,0.062,88.749,0,87.436,0
	C83.021,0,71.9,0.749,64.015,7.688c-3.23,2.844-5.496,6.332-7.089,9.777H0l1.729,3.731C6.789,32.112,15.42,41.007,26.142,46.4v8.713
	h47.716V46.4c10.723-5.394,19.353-14.288,24.413-25.205L100,17.464H88.306z M67.486,11.631c6.049-5.324,14.706-6.256,18.994-6.366
	c-0.661,4.288-2.688,12.712-8.733,18.03c-4.389,3.861-10.144,5.407-14.614,6.01l14.842-13.056l-3.471-3.945L59.675,25.351
	C60.848,20.979,63.115,15.477,67.486,11.631z M70.126,42.37l-1.521,0.705v6.784h-37.21v-6.784l-1.521-0.705
	c-9.026-4.186-16.518-11.079-21.446-19.652h46.514c-1.517,5.045-1.731,9.081-1.746,9.403l-0.114,2.529l2.522,0.208
	c0.086,0.008,0.876,0.069,2.185,0.069c4.417,0,15.541-0.749,23.429-7.688c1.568-1.381,2.911-2.915,4.06-4.522h6.294
	C86.644,31.291,79.151,38.185,70.126,42.37z"/>
</svg>
