<?xml version="1.0" encoding="utf-8"?>
<!-- Generator: Adobe Illustrator 14.0.0, SVG Export Plug-In . SVG Version: 6.00 Build 43363)  -->
<!DOCTYPE svg PUBLIC "-//W3C//DTD SVG 1.0//EN" "http://www.w3.org/TR/2001/REC-SVG-20010904/DTD/svg10.dtd">
<svg version="1.0" id="Layer_1" xmlns="http://www.w3.org/2000/svg" xmlns:xlink="http://www.w3.org/1999/xlink" x="0px" y="0px"
	 width="71.82px" height="100px" viewBox="0 0 71.82 100" enable-background="new 0 0 71.82 100" xml:space="preserve">
<path d="M71.275,94.105c-2.668-0.982-5.335-1.966-8.003-2.948c-5.9-23.721-20.93-84.13-22.543-90.613C40.65,0.226,40.339,0,40.015,0
	c-1.368,0-2.736,0-4.104,0s-2.736,0-4.104,0c-0.324,0-0.636,0.226-0.715,0.544C29.478,7.027,14.449,67.437,8.548,91.157
	c-2.668,0.982-5.335,1.966-8.004,2.948C0.231,94.222,0,94.47,0,94.82c0,1.479,0,2.959,0,4.438C0,99.663,0.337,100,0.741,100
	c0.545,0,1.091,0,1.636,0c11.178,0,22.355,0,33.533,0s22.355,0,33.533,0c0.546,0,1.091,0,1.636,0c0.404,0,0.741-0.337,0.741-0.741
	c0-1.479,0-2.959,0-4.438C71.82,94.47,71.59,94.222,71.275,94.105z M31.14,17.189c1.591,0,7.95,0,9.541,0
	c1.421,5.711,2.842,11.423,4.263,17.135c-3.011,0-15.056,0-18.066,0C28.298,28.612,29.719,22.9,31.14,17.189z M20.198,61.172
	c1.421-5.712,2.842-11.423,4.263-17.135c3.816,0,19.082,0,22.898,0c1.421,5.711,2.842,11.423,4.263,17.135
	C46.385,61.172,25.436,61.172,20.198,61.172z"/>
</svg>
