<?xml version="1.0" encoding="utf-8"?>
<!-- Generator: Adobe Illustrator 14.0.0, SVG Export Plug-In . SVG Version: 6.00 Build 43363)  -->
<!DOCTYPE svg PUBLIC "-//W3C//DTD SVG 1.0//EN" "http://www.w3.org/TR/2001/REC-SVG-20010904/DTD/svg10.dtd">
<svg version="1.0" id="Layer_1" xmlns="http://www.w3.org/2000/svg" xmlns:xlink="http://www.w3.org/1999/xlink" x="0px" y="0px"
	 width="59.139px" height="100px" viewBox="0 0 59.139 100" enable-background="new 0 0 59.139 100" xml:space="preserve">
<path d="M0,5.202C0,15.224,0,25.247,0,35.27C0,51.513,0,67.757,0,84c0,4.106,0,8.212,0,12.317C0,98.326,1.675,100,3.682,100
	s3.682-1.674,3.682-3.682c0-10.022,0-20.045,0-30.067c0-16.244,0-32.488,0-48.731c0-4.105,0-8.211,0-12.317
	c0-2.007-1.675-3.682-3.682-3.682S0,3.195,0,5.202L0,5.202z"/>
<path d="M59.139,3.716c-18.31,4.326-14.473-5.012-32.784-3.561c-8.022,0.636-14.783,6.548-16.001,7.672v30.382
	c0,0,7.329-7.154,16.197-7.857c18.312-1.451,14.278,7.887,32.588,3.561V3.716z"/>
</svg>
