<?xml version="1.0" encoding="utf-8"?>
<!-- Generator: Adobe Illustrator 14.0.0, SVG Export Plug-In . SVG Version: 6.00 Build 43363)  -->
<!DOCTYPE svg PUBLIC "-//W3C//DTD SVG 1.0//EN" "http://www.w3.org/TR/2001/REC-SVG-20010904/DTD/svg10.dtd">
<svg version="1.0" id="Layer_1" xmlns="http://www.w3.org/2000/svg" xmlns:xlink="http://www.w3.org/1999/xlink" x="0px" y="0px"
	 width="98.865px" height="100px" viewBox="0 0 98.865 100" enable-background="new 0 0 98.865 100" xml:space="preserve">
<path fill-rule="evenodd" clip-rule="evenodd" d="M49.432,0C22.146,0,0,22.398,0,50C0,77.598,22.146,100,49.432,100
	C76.718,100,98.865,77.598,98.865,50C98.865,22.398,76.718,0,49.432,0z M88.992,34.328c-2.101,3.461-5.163,6.833-9.27,10.416
	c-1.363,1.146-2.9,2.352-4.534,3.564c-1.298-5.615-3.19-11.275-5.369-16.304c-2.329-5.327-4.87-9.691-8.129-14.213
	c-2.719-3.702-5.637-7.245-9.003-10.686C69.261,8.409,83.176,19.315,88.992,34.328z M69.635,76.06
	c-0.375,5.118-1.142,9.41-2.468,13.021c-4.292,2.008-8.968,3.313-13.888,3.77c-3.256-2.54-6.261-6.083-9.327-10.819
	c-1.82-2.83-3.74-6.24-5.507-9.845c2.057-0.286,4.139-0.66,6.327-1.129c5.586-1.312,11.783-3.347,17.263-5.784
	c2.581-1.231,4.994-2.506,7.359-3.917C69.833,66.542,69.908,71.788,69.635,76.06z M34.394,62.651
	c-2.489-6.931-4.158-14.665-4.898-21.334c-0.741-6.69-0.318-12.659,0.556-18.226c0.656-4.803,1.818-9.075,3.414-13.022
	c3.007-1.224,6.18-2.121,9.482-2.624c3.646,2.802,6.991,6.187,10.192,10.346c3.441,4.334,6.646,9.5,9.319,15.606
	c2.401,5.706,4.54,12.835,5.846,19.625c-2.12,1.336-4.288,2.604-6.428,3.714c-6.487,3.345-13.954,5.86-20.36,7.547
	c-2.101,0.476-4.127,0.82-6.107,1.079C35.051,64.458,34.709,63.55,34.394,62.651z M24.932,14.756
	c-1.099,4.242-1.897,8.374-2.348,12.563c-0.715,5.594-0.767,10.627-0.158,16.436c0.529,5.701,1.747,12.287,3.547,18.013
	c0.454,1.437,0.927,2.832,1.432,4.198c-1.298,0.025-2.58,0.028-3.841,0.004c-5.298-0.126-10.115-0.862-14.551-2.193
	C7.566,59.448,6.769,54.819,6.769,50C6.769,35.424,13.957,22.541,24.932,14.756z M12.546,71.627
	c5.561,0.943,10.879,1.303,16.129,1.303c0.572-0.01,1.132-0.025,1.692-0.046c0.812,1.659,1.697,3.329,2.702,5.049
	c2.849,4.891,6.226,9.757,10.348,14.682C30.231,90.756,18.981,82.788,12.546,71.627z M75.406,84.014
	c1.031-5.938,1.631-11.557,1.721-16.919c0.063-3.71-0.113-7.189-0.519-10.619c0.147-0.109,0.292-0.214,0.439-0.328
	c4.845-3.791,9.56-8.209,14.248-13.446c0.401,2.375,0.623,4.81,0.623,7.298C91.918,63.833,85.445,76.139,75.406,84.014z"/>
</svg>
