<?xml version="1.0" encoding="utf-8"?>
<!-- Generator: Adobe Illustrator 14.0.0, SVG Export Plug-In . SVG Version: 6.00 Build 43363)  -->
<!DOCTYPE svg PUBLIC "-//W3C//DTD SVG 1.0//EN" "http://www.w3.org/TR/2001/REC-SVG-20010904/DTD/svg10.dtd">
<svg version="1.0" id="Layer_1" xmlns="http://www.w3.org/2000/svg" xmlns:xlink="http://www.w3.org/1999/xlink" x="0px" y="0px"
	 width="100px" height="43.471px" viewBox="0 0 100 43.471" enable-background="new 0 0 100 43.471" xml:space="preserve">
<circle cx="18.039" cy="37.132" r="6.339"/>
<circle cx="64.658" cy="37.132" r="6.339"/>
<path d="M96.556,18.566L79.301,0H65.155c-1.618,0-2.931,1.312-2.931,2.932c0,1.619,1.312,2.931,2.931,2.931h11.086l14.162,31.159
	C95.792,36.486,100,31.94,100,26.411C100,23.308,98.673,20.515,96.556,18.566z"/>
<path d="M74.858,8.052h-9.703c-2.823,0-5.12-2.297-5.12-5.121c0-1.09,0.345-2.1,0.928-2.932H30.448v28.969v8.163h26.046
	c0-4.509,3.655-8.163,8.164-8.163s8.163,3.654,8.163,8.163h2.992l0,0h12.263L74.858,8.052z"/>
<path d="M9.282,8.668L2.166,20.346v8.623v3.184H0v4.979h2.166h7.709h0c0-4.509,3.655-8.163,8.164-8.163s8.163,3.654,8.163,8.163
	h2.421v-8.163V8.668H9.282z M18.182,17.999c0,0.547-0.445,0.992-0.992,0.992H6.188c-0.265,0-0.46-0.089-0.551-0.25
	s-0.065-0.375,0.073-0.601l4.145-6.802c0.284-0.465,0.958-0.844,1.504-0.844h5.831c0.547,0,0.992,0.445,0.992,0.992V17.999z"/>
</svg>
