<?xml version="1.0" encoding="utf-8"?>
<!-- Generator: Adobe Illustrator 14.0.0, SVG Export Plug-In . SVG Version: 6.00 Build 43363)  -->
<!DOCTYPE svg PUBLIC "-//W3C//DTD SVG 1.0//EN" "http://www.w3.org/TR/2001/REC-SVG-20010904/DTD/svg10.dtd">
<svg version="1.0" id="Layer_1" xmlns="http://www.w3.org/2000/svg" xmlns:xlink="http://www.w3.org/1999/xlink" x="0px" y="0px"
	 width="100px" height="86.255px" viewBox="0 0 100 86.255" enable-background="new 0 0 100 86.255" xml:space="preserve">
<path d="M93.671,19.865L57.2,15.732l-2.613-10.93h5.021V3.27h-6.759L50.003,0l-2.839,3.27h-6.765v1.532h5.021l-2.62,10.93
	L6.334,19.865c0,0-6.328,1.094-6.328,4.596c0,0-0.438,4.352,5.677,5.227l36.678,2.188l2.839,36.909c0,0-9.392,3.914-12.224,7.635
	c0,0-1.094,2.395-0.656,3.502h13.975l3.488,6.334l0.219-0.398l0.219,0.398l3.489-6.334h13.968c0.438-1.107-0.643-3.502-0.643-3.502
	c-2.833-3.721-12.23-7.635-12.23-7.635l2.832-36.909l36.69-2.188c6.103-0.875,5.665-5.227,5.665-5.227
	C99.993,20.958,93.671,19.865,93.671,19.865z"/>
</svg>
