<?xml version="1.0" encoding="utf-8"?>
<!-- Generator: Adobe Illustrator 14.0.0, SVG Export Plug-In . SVG Version: 6.00 Build 43363)  -->
<!DOCTYPE svg PUBLIC "-//W3C//DTD SVG 1.0//EN" "http://www.w3.org/TR/2001/REC-SVG-20010904/DTD/svg10.dtd">
<svg version="1.0" id="Layer_1" xmlns="http://www.w3.org/2000/svg" xmlns:xlink="http://www.w3.org/1999/xlink" x="0px" y="0px"
	 width="100px" height="97.168px" viewBox="0 0 100 97.168" enable-background="new 0 0 100 97.168" xml:space="preserve">
<path d="M0,23.82l4.593,17.812l92.386-23.82L92.387,0L0,23.82z M38.083,17.467l9.681-2.496L39.367,29.2l-9.68,2.496L38.083,17.467z
	 M19.839,34.234l-9.681,2.497l8.396-14.229l9.68-2.496L19.839,34.234z M57.611,12.432l9.681-2.496l-8.396,14.229l-9.681,2.496
	L57.611,12.432z M77.141,7.396L86.821,4.9l-8.396,14.229l-9.681,2.496L77.141,7.396z M8.706,25.041l-3.427,5.808l-1.19-4.618
	L8.706,25.041z M6.984,37.466l0.071,0.065l-0.051,0.013L6.984,37.466z M88.274,16.59l3.427-5.807l1.19,4.617L88.274,16.59z"/>
<path d="M100,97.168H4.593V41.631H100V97.168L100,97.168z M7.834,93.812h88.924V44.987H7.834V93.812L7.834,93.812z"/>
<rect x="12.849" y="49.099" width="78.895" height="40.602"/>
</svg>
