<?xml version="1.0" encoding="utf-8"?>
<!-- Generator: Adobe Illustrator 14.0.0, SVG Export Plug-In . SVG Version: 6.00 Build 43363)  -->
<!DOCTYPE svg PUBLIC "-//W3C//DTD SVG 1.0//EN" "http://www.w3.org/TR/2001/REC-SVG-20010904/DTD/svg10.dtd">
<svg version="1.0" id="Layer_1" xmlns="http://www.w3.org/2000/svg" xmlns:xlink="http://www.w3.org/1999/xlink" x="0px" y="0px"
	 width="89.783px" height="100px" viewBox="0 0 89.783 100" enable-background="new 0 0 89.783 100" xml:space="preserve">
<path d="M45.528,57.125c0-10.462,0-20.921,0-31.383c0-3.42-5.304-3.42-5.304,0c0,10.461,0,20.921,0,31.383
	C40.224,60.545,45.528,60.545,45.528,57.125L45.528,57.125z"/>
<path d="M89.783,24.484c0,0-3.212-4.542-4.452-5.783c-1.319-1.318-5.781-4.452-5.781-4.452l-9.633,9.633
	c-5.605-4.568-12.384-7.742-19.805-9.01V0.94c0,0-5.483-0.94-7.237-0.94c-1.865,0-7.236,0.94-7.236,0.94v13.932
	C15.432,18.323,0,35.951,0,57.125C0,80.766,19.233,100,42.875,100c23.643,0,42.875-19.234,42.875-42.876
	c0-8.172-2.301-15.816-6.285-22.324L89.783,24.484z M42.875,94.696c-20.717,0-37.571-16.853-37.571-37.571
	c0-20.717,16.854-37.571,37.571-37.571s37.572,16.854,37.572,37.571C80.447,77.843,63.593,94.696,42.875,94.696z"/>
</svg>
