<?xml version="1.0" encoding="utf-8"?>
<!-- Generator: Adobe Illustrator 14.0.0, SVG Export Plug-In . SVG Version: 6.00 Build 43363)  -->
<!DOCTYPE svg PUBLIC "-//W3C//DTD SVG 1.0//EN" "http://www.w3.org/TR/2001/REC-SVG-20010904/DTD/svg10.dtd">
<svg version="1.0" id="Layer_1" xmlns="http://www.w3.org/2000/svg" xmlns:xlink="http://www.w3.org/1999/xlink" x="0px" y="0px"
	 width="100px" height="25.716px" viewBox="0 0 100 25.716" enable-background="new 0 0 100 25.716" xml:space="preserve">
<path d="M74.493,19.082c-14.035-2.868-21.041-3.519-24.526-3.401c-3.487-0.117-10.491,0.533-24.527,3.401
	c-0.974,0.197,3.026,6.635,3.026,6.635l21.5-0.151l21.5,0.151C71.468,25.716,75.467,19.279,74.493,19.082z"/>
<g>
	<path d="M49.967,9.885c-2.999,0-5.429-2.434-5.429-5.43v8.664h10.859V4.455C55.397,7.452,52.967,9.885,49.967,9.885z"/>
</g>
<circle cx="49.967" cy="4.333" r="4.331"/>
<path d="M81.224,14.56c0,0,5.487,3.343,6.327,3.343h10.931c0.838,0,1.519-0.679,1.519-1.519v-3.646c0-0.838-0.681-1.517-1.519-1.517
	H87.551C86.711,11.222,81.224,14.56,81.224,14.56z"/>
<path d="M18.778,14.56c0,0-5.49-3.338-6.329-3.338H1.519C0.681,11.222,0,11.9,0,12.738v3.646c0,0.838,0.681,1.519,1.519,1.519H12.45
	C13.289,17.903,18.778,14.56,18.778,14.56z"/>
<path d="M19.969,15.114c18.224,0,36.446,0,54.668,0c1.776,0,3.553,0,5.327,0c0.715,0,0.715-1.106,0-1.106
	c-18.223,0-36.445,0-54.667,0c-1.776,0-3.552,0-5.329,0C19.255,14.007,19.255,15.114,19.969,15.114L19.969,15.114z"/>
</svg>
