<?xml version="1.0" encoding="utf-8"?>
<!-- Generator: Adobe Illustrator 14.0.0, SVG Export Plug-In . SVG Version: 6.00 Build 43363)  -->
<!DOCTYPE svg PUBLIC "-//W3C//DTD SVG 1.0//EN" "http://www.w3.org/TR/2001/REC-SVG-20010904/DTD/svg10.dtd">
<svg version="1.0" id="Layer_1" xmlns="http://www.w3.org/2000/svg" xmlns:xlink="http://www.w3.org/1999/xlink" x="0px" y="0px"
	 width="100px" height="65.986px" viewBox="0 0 100 65.986" enable-background="new 0 0 100 65.986" xml:space="preserve">
<path d="M0,65.986V0h100v64.714v1.272H0L0,65.986z M98.727,64.714v-1.283V64.714L98.727,64.714z M2.558,63.431h94.896V2.546H2.558
	V63.431L2.558,63.431z"/>
<polygon points="0.528,2.855 2.697,0.348 50.139,40.996 97.637,0.026 99.821,2.517 50.139,44.181 0.528,2.855 "/>
<path d="M1.613,64.584"/>
<polygon points="0.747,63.648 36.768,31.447 37.848,32.709 2.473,65.52 0.747,63.648 "/>
<polygon points="62.326,32.709 63.509,31.605 99.442,63.648 97.7,65.52 62.326,32.709 "/>
<path d="M98.727,64.257"/>
</svg>
