<?xml version="1.0" encoding="utf-8"?>
<!-- Generator: Adobe Illustrator 14.0.0, SVG Export Plug-In . SVG Version: 6.00 Build 43363)  -->
<!DOCTYPE svg PUBLIC "-//W3C//DTD SVG 1.0//EN" "http://www.w3.org/TR/2001/REC-SVG-20010904/DTD/svg10.dtd">
<svg version="1.0" id="Layer_1" xmlns="http://www.w3.org/2000/svg" xmlns:xlink="http://www.w3.org/1999/xlink" x="0px" y="0px"
	 width="100px" height="58.626px" viewBox="0 0 100 58.626" enable-background="new 0 0 100 58.626" xml:space="preserve">
<path d="M44.208,55.307c0,0-0.69-0.655-0.825-0.986c-0.304-0.75-0.232-2.917-0.192-3.752h-5.929h-3.85h-5.929
	c0.042,0.835,0.114,3.002-0.192,3.752c-0.134,0.331-0.824,0.986-0.824,0.986l-3.133,2.797c0,0.289,0.234,0.522,0.522,0.522h9.557
	h3.85h9.557c0.288,0,0.521-0.233,0.521-0.522L44.208,55.307z"/>
<path d="M68.369,0.303H2.089C0.936,0.303,0,1.239,0,2.391v44.655c0,1.153,0.936,2.088,2.089,2.088h66.28
	c1.152,0,2.086-0.935,2.086-2.088V2.391C70.455,1.239,69.521,0.303,68.369,0.303z M67.194,40.387H3.262V3.831h63.932V40.387z"/>
<path d="M97.392,0H79.82c-1.44,0-2.609,1.169-2.609,2.609v17.396v6.104v29.907c0,1.442,1.169,2.61,2.609,2.61h17.571
	c1.439,0,2.608-1.168,2.608-2.61V26.109v-6.104V2.609C100,1.169,98.831,0,97.392,0z M99.463,55.616c0,1.373-1.113,2.487-2.487,2.487
	H80.234c-1.372,0-2.485-1.114-2.485-2.487v-1.556h21.714V55.616z M99.463,4.653H77.749V3.098c0-1.373,1.113-2.486,2.485-2.486
	h16.741c1.374,0,2.487,1.113,2.487,2.486V4.653z"/>
</svg>
