<?xml version="1.0" encoding="utf-8"?>
<!-- Generator: Adobe Illustrator 14.0.0, SVG Export Plug-In . SVG Version: 6.00 Build 43363)  -->
<!DOCTYPE svg PUBLIC "-//W3C//DTD SVG 1.0//EN" "http://www.w3.org/TR/2001/REC-SVG-20010904/DTD/svg10.dtd">
<svg version="1.0" id="Layer_1" xmlns="http://www.w3.org/2000/svg" xmlns:xlink="http://www.w3.org/1999/xlink" x="0px" y="0px"
	 width="100px" height="93.441px" viewBox="0 0 100 93.441" enable-background="new 0 0 100 93.441" xml:space="preserve">
<path d="M73.331,89.695c-6.862,0-20.585-11.684-20.585-17.525c0-1.246-1.396-1.844-2.746-1.804c-1.351-0.04-2.747,0.558-2.747,1.804
	c0,5.842-13.723,17.525-20.584,17.525c-3.379,0-3.379,3.746,0,3.746c7.735,0,15.47,0,23.205,0c0.043,0,0.083-0.008,0.126-0.01
	c0.042,0.002,0.083,0.01,0.126,0.01c7.735,0,15.47,0,23.205,0C76.71,93.441,76.71,89.695,73.331,89.695z"/>
<path d="M81.437,10.412C81.684,7.018,81.812,3.541,81.812,0H50H18.187c0,3.541,0.129,7.018,0.376,10.412H0l0.231,2.988
	c0.036,0.465,0.942,11.523,6.192,23.018c6.536,14.308,16.913,22.853,30.147,24.909C40.652,65.373,45.2,67.647,50,67.647
	c4.8,0,9.348-2.274,13.429-6.321c13.235-2.056,23.612-10.601,30.147-24.909c5.251-11.495,6.157-22.553,6.192-23.018L100,10.412
	H81.437z M11.208,34.158c-3.302-7.178-4.768-14.33-5.372-18.22h13.248c1.766,15.542,6.048,28.997,11.888,38.28
	C22.531,51.074,15.903,44.365,11.208,34.158z M57.079,33.586l3.203,11.763l-9.944-7.208l-9.984,7.209l3.219-11.739l-9.38-7.213
	l11.783-0.308l4.339-11.413l4.314,11.401l11.81,0.312L57.079,33.586z M88.792,34.158c-4.695,10.207-11.323,16.916-19.764,20.06
	c5.84-9.283,10.122-22.737,11.888-38.28h13.249C93.561,19.828,92.094,26.979,88.792,34.158z"/>
</svg>
