<?xml version="1.0" encoding="utf-8"?>
<!-- Generator: Adobe Illustrator 14.0.0, SVG Export Plug-In . SVG Version: 6.00 Build 43363)  -->
<!DOCTYPE svg PUBLIC "-//W3C//DTD SVG 1.0//EN" "http://www.w3.org/TR/2001/REC-SVG-20010904/DTD/svg10.dtd">
<svg version="1.0" id="Layer_1" xmlns="http://www.w3.org/2000/svg" xmlns:xlink="http://www.w3.org/1999/xlink" x="0px" y="0px"
	 width="42.165px" height="100px" viewBox="0 0 42.165 100" enable-background="new 0 0 42.165 100" xml:space="preserve">
<path d="M37.151,23.097c-1.519-2.99-3.196-5.896-4.676-8.905c-1.058-2.152-2.069-4.457-2.478-6.846
	c1.397-0.895,1.91-2.797,1.625-4.451C31.294,0.988,29.489,0,27.721,0c-2.205,0-4.409,0-6.613,0c-2.154,0-4.309,0-6.463,0
	c-1.77,0-3.426,0.757-3.966,2.601c-0.5,1.707,0.058,3.796,1.541,4.746c-0.687,4.183-3.08,8.106-5.046,11.76
	C4.591,23.903,2,28.788,0.755,34.13c-1.033,4.432-0.706,9.153-0.706,13.673c0,12.717,0,25.435,0,38.153
	c0,1.683-0.032,3.314,0.347,4.976c1.179,5.174,5.989,8.737,11.167,8.971c4.815,0.217,9.691,0.005,14.512,0.005
	c3.861,0,7.609,0.214,10.97-2.092c3.285-2.253,5.119-6.014,5.119-9.964c0-4.427,0-8.854,0-13.282c0-11.445,0-22.892,0-34.338
	C42.165,34.136,39.87,28.449,37.151,23.097z M38.646,90.681c-0.665,2.285-2.361,4.1-4.433,5.196
	c-1.525,0.808-3.183,0.905-4.863,0.905c-5.256,0-10.512,0-15.768,0c-1.579,0-3.061,0.008-4.591-0.486
	c-2.262-0.73-4.011-2.512-5.042-4.604c-0.836-1.695-0.775-3.532-0.775-5.357c0-5.609,0-11.22,0-16.829c0-7.005,0-14.011,0-21.016
	c0-4.221-0.365-8.725,0.456-12.889c1.093-5.542,3.894-10.554,6.54-15.474c2.327-4.326,4.844-8.833,5.308-13.81
	c0.058-0.623-0.515-1.414-1.147-1.506c-0.8-0.118-1.091-1.685-0.239-1.685c0.864,0,1.728,0,2.592,0c1.475,0,2.949,0,4.424,0
	c1.403,0,2.807,0,4.209,0c0.913,0,1.826,0,2.739,0c0.909,0,0.673,1.561-0.172,1.685c-0.151,0.022-0.291,0.076-0.416,0.151
	c-0.466,0.213-0.795,0.664-0.73,1.355c0.002,0.025,0.006,0.05,0.009,0.076c0.002,0.093,0.013,0.183,0.032,0.271
	c0.521,4.634,2.798,8.854,4.968,12.909c2.546,4.754,5.2,9.491,6.549,14.753c1.111,4.339,0.746,9.035,0.746,13.479
	c0,12.717,0,25.435,0,38.153C39.041,87.562,39.103,89.112,38.646,90.681z"/>
</svg>
