<?xml version="1.0" encoding="utf-8"?>
<!-- Generator: Adobe Illustrator 14.0.0, SVG Export Plug-In . SVG Version: 6.00 Build 43363)  -->
<!DOCTYPE svg PUBLIC "-//W3C//DTD SVG 1.0//EN" "http://www.w3.org/TR/2001/REC-SVG-20010904/DTD/svg10.dtd">
<svg version="1.0" id="Layer_1" xmlns="http://www.w3.org/2000/svg" xmlns:xlink="http://www.w3.org/1999/xlink" x="0px" y="0px"
	 width="42.967px" height="100px" viewBox="0 0 42.967 100" enable-background="new 0 0 42.967 100" xml:space="preserve">
<path d="M39.486,31.334L42.967,0H21.483H0l3.48,31.334h1.557v13.157H3.634c0,0-0.345,2.588,0,6.767
	c0.299,3.637,12.663,4.265,12.279,7.895c-2.256,21.302-3.256,31.951-3.256,31.951c0,4.914,3.982,8.896,8.896,8.896
	c4.914,0,8.897-3.982,8.897-8.896H30.31c0,0-1-10.649-3.256-31.951c-0.384-3.63,11.98-4.258,12.279-7.895
	c0.345-4.178,0-6.767,0-6.767H37.93V31.334H39.486z M39.646,2.515l-1.88,26.193h-0.965h-0.965l-1.88-26.193H39.646z M31.987,2.515
	l-1.88,26.193h-0.965h-0.965l-1.88-26.193H31.987z M24.328,2.515l-1.88,26.193h-0.965h-0.965l-1.88-26.193H24.328z M16.669,2.515
	l-1.88,26.193h-0.965h-0.965l-1.88-26.193H16.669z M3.32,2.515H9.01L7.13,28.708H6.165H5.2L3.32,2.515z M21.553,44.491h-0.139H7.293
	V31.334h28.381v13.157H21.553z"/>
</svg>
