<?xml version="1.0" encoding="utf-8"?>
<!-- Generator: Adobe Illustrator 14.0.0, SVG Export Plug-In . SVG Version: 6.00 Build 43363)  -->
<!DOCTYPE svg PUBLIC "-//W3C//DTD SVG 1.0//EN" "http://www.w3.org/TR/2001/REC-SVG-20010904/DTD/svg10.dtd">
<svg version="1.0" id="Layer_1" xmlns="http://www.w3.org/2000/svg" xmlns:xlink="http://www.w3.org/1999/xlink" x="0px" y="0px"
	 width="100px" height="55.708px" viewBox="0 0 100 55.708" enable-background="new 0 0 100 55.708" xml:space="preserve">
<path d="M98.609,0H37.312c-0.769,0-1.391,0.624-1.391,1.391v7.413H18.768c-3.565,5.331-5.214,15.417-5.214,15.417H4.867
	c-0.768,0-1.391,0.623-1.391,1.39v9.845v6.027v1.391H1.391C0.623,42.874,0,43.496,0,44.264v1.276c0,0.769,0.623,1.391,1.391,1.391
	h10.772c0,4.848,3.93,8.777,8.777,8.777s8.777-3.93,8.777-8.777h4.002c0.768,0,1.391-0.622,1.391-1.391v-2.667h35.931
	c-0.634,1.214-0.998,2.593-0.998,4.058c0,4.848,3.93,8.777,8.777,8.777s8.777-3.93,8.777-8.777c0-1.465-0.363-2.844-0.998-4.058
	h12.01c0.768,0,1.391-0.622,1.391-1.391V1.391C100,0.624,99.377,0,98.609,0z"/>
</svg>
