<?xml version="1.0" encoding="utf-8"?>
<!-- Generator: Adobe Illustrator 14.0.0, SVG Export Plug-In . SVG Version: 6.00 Build 43363)  -->
<!DOCTYPE svg PUBLIC "-//W3C//DTD SVG 1.0//EN" "http://www.w3.org/TR/2001/REC-SVG-20010904/DTD/svg10.dtd">
<svg version="1.0" id="Layer_1" xmlns="http://www.w3.org/2000/svg" xmlns:xlink="http://www.w3.org/1999/xlink" x="0px" y="0px"
	 width="100px" height="93.176px" viewBox="0 0 100 93.176" enable-background="new 0 0 100 93.176" xml:space="preserve">
<path d="M19.699,73.477L0,93.176l22.553-8.904l3.972-3.97v-0.001L19.699,73.477z M21.85,83.157L5.195,89.802l13.1-13.102
	c-0.05,1.298,0.414,2.611,1.404,3.602s2.304,1.454,3.601,1.404L21.85,83.157z"/>
<path d="M40.383,66.443L98.587,8.238C99.461,7.365,100,6.159,100,4.826C100.001,2.161,97.84,0,95.176,0
	c-1.332,0.001-2.539,0.541-3.413,1.414L33.559,59.618L40.383,66.443z"/>
<rect x="21.869" y="65.134" transform="matrix(0.7071 -0.7071 0.7071 0.7071 -40.6712 41.7358)" width="16.344" height="9.65"/>
</svg>
