<?xml version="1.0" encoding="utf-8"?>
<!-- Generator: Adobe Illustrator 14.0.0, SVG Export Plug-In . SVG Version: 6.00 Build 43363)  -->
<!DOCTYPE svg PUBLIC "-//W3C//DTD SVG 1.0//EN" "http://www.w3.org/TR/2001/REC-SVG-20010904/DTD/svg10.dtd">
<svg version="1.0" id="Layer_1" xmlns="http://www.w3.org/2000/svg" xmlns:xlink="http://www.w3.org/1999/xlink" x="0px" y="0px"
	 width="100px" height="88.359px" viewBox="0 0 100 88.359" enable-background="new 0 0 100 88.359" xml:space="preserve">
<path d="M96.256,30.385c-1.943-4.24-4.618-8.021-7.108-11.943c-0.538-0.849-1.07-1.705-1.55-2.588
	c-0.204-0.376-0.405-0.754-0.588-1.142c-0.009-0.018-0.016-0.032-0.023-0.048c-0.133-0.365-0.258-0.733-0.349-1.11
	c-0.017-0.066-0.031-0.141-0.046-0.22c-0.003-0.096,0.001-0.192,0.004-0.288c0.63-3.042-1.013-6.16-4.107-7.012
	c-2.978-0.819-6.451,0.979-7.179,4.076c-0.234,0.999-0.407,2.049-0.392,3.078c0.065,4.431,2.337,8.367,4.688,11.978
	c1.223,1.878,2.481,3.734,3.644,5.651c0.654,1.08,1.289,2.172,1.87,3.293c0.276,0.534,0.548,1.07,0.802,1.614
	c0.118,0.252,0.235,0.504,0.349,0.759c0.479,1.211,0.91,2.442,1.242,3.702c0.167,0.633,0.325,1.269,0.451,1.911
	c0.061,0.31,0.208,1.379,0.243,1.566c0.116,1.27,0.166,2.546,0.112,3.821c-0.032,0.754-0.079,1.507-0.166,2.257
	c-0.001,0.005-0.002,0.009-0.003,0.015c-0.066,0.399-0.132,0.799-0.213,1.195c-0.375,1.852-0.869,3.68-1.512,5.456
	c-0.16,0.443-0.321,0.887-0.495,1.324c-0.069,0.175-0.115,0.292-0.145,0.368c-0.007,0.015-0.012,0.028-0.019,0.044
	c-0.421,0.942-0.857,1.878-1.332,2.794c-2.261,4.362-5.165,8.655-8.018,12.194c-0.171,0.212-0.325,0.432-0.473,0.655H50l0,0H24.054
	c-0.147-0.224-0.302-0.443-0.473-0.655c-2.852-3.539-5.757-7.832-8.017-12.194c-0.475-0.916-0.911-1.852-1.332-2.794
	c-0.007-0.016-0.013-0.029-0.02-0.044c-0.029-0.076-0.075-0.193-0.144-0.368c-0.174-0.438-0.334-0.881-0.495-1.324
	c-0.643-1.776-1.137-3.604-1.512-5.456c-0.081-0.396-0.146-0.796-0.213-1.195c-0.001-0.006-0.001-0.01-0.002-0.015
	c-0.087-0.75-0.134-1.503-0.166-2.257c-0.054-1.274-0.004-2.551,0.112-3.821c0.036-0.187,0.183-1.256,0.243-1.566
	c0.126-0.642,0.283-1.278,0.451-1.911c0.333-1.259,0.763-2.491,1.243-3.702c0.113-0.254,0.23-0.507,0.348-0.759
	c0.254-0.544,0.526-1.081,0.803-1.614c0.581-1.121,1.215-2.214,1.87-3.293c1.162-1.917,2.421-3.773,3.644-5.651
	c2.351-3.611,4.622-7.547,4.688-11.978c0.016-1.028-0.157-2.079-0.392-3.078c-0.728-3.096-4.201-4.895-7.179-4.076
	c-3.095,0.852-4.737,3.969-4.107,7.012c0.002,0.096,0.006,0.192,0.003,0.288c-0.014,0.079-0.029,0.154-0.045,0.22
	c-0.092,0.377-0.216,0.746-0.349,1.11c-0.008,0.017-0.015,0.031-0.023,0.048c-0.184,0.387-0.384,0.766-0.588,1.142
	c-0.48,0.884-1.012,1.74-1.55,2.588c-2.49,3.922-5.165,7.704-7.108,11.943c-2.68,5.847-4.157,12.135-3.643,18.597
	C0.8,57.773,4.468,65.952,9.274,73.248c1.736,2.635,3.662,5.145,5.635,7.606v3.43c0,2.251,1.825,4.075,4.076,4.075h9.216v-4.816
	h2.223v4.816h11.569v-4.816h2.223v4.816H50l0,0h5.784v-4.816h2.224v4.816h11.568v-4.816H71.8v4.816h9.215
	c2.251,0,4.076-1.824,4.076-4.075v-3.43c1.973-2.462,3.898-4.972,5.635-7.606c4.807-7.296,8.475-15.475,9.173-24.267
	C100.412,42.52,98.935,36.231,96.256,30.385z M86.523,12.859c-0.035-0.297-0.04-0.45,0.004-0.022
	C86.526,12.844,86.525,12.852,86.523,12.859z M13.476,12.859c-0.001-0.007-0.002-0.015-0.004-0.022
	C13.517,12.41,13.511,12.562,13.476,12.859z"/>
<path d="M44.164,5.835c0,13.281,0,26.562,0,39.843c0,3.181,2.655,5.836,5.836,5.836c3.182,0,5.836-2.655,5.836-5.836
	c0-13.281,0-26.562,0-39.843C55.836,2.654,53.182,0,50,0C46.819,0,44.164,2.654,44.164,5.835L44.164,5.835z"/>
<circle cx="50" cy="61.882" r="5.836"/>
</svg>
