<?xml version="1.0" encoding="utf-8"?>
<!-- Generator: Adobe Illustrator 14.0.0, SVG Export Plug-In . SVG Version: 6.00 Build 43363)  -->
<!DOCTYPE svg PUBLIC "-//W3C//DTD SVG 1.0//EN" "http://www.w3.org/TR/2001/REC-SVG-20010904/DTD/svg10.dtd">
<svg version="1.0" id="Layer_1" xmlns="http://www.w3.org/2000/svg" xmlns:xlink="http://www.w3.org/1999/xlink" x="0px" y="0px"
	 width="68.631px" height="100px" viewBox="0 0 68.631 100" enable-background="new 0 0 68.631 100" xml:space="preserve">
<polyline points="24.022,34.888 29.088,0 32.557,0 31.552,34.888 24.022,34.888 "/>
<polyline points="14.544,100 22.413,45.943 31.227,45.943 29.676,100 15.166,99.864 14.544,100 "/>
<polyline points="37.063,34.888 36.058,0 39.543,0 44.623,34.888 37.063,34.888 "/>
<polyline points="0,40.121 15.133,40.121 14.219,44.195 20.104,44.195 19.206,40.121 49.44,40.121 48.524,44.195 54.411,44.195 
	53.5,40.121 68.631,40.121 68.631,37.799 0,37.799 0,40.121 "/>
<polyline points="38.97,100 37.39,45.943 46.218,45.943 54.086,100 38.97,100 "/>
</svg>
