<?xml version="1.0" encoding="utf-8"?>
<!-- Generator: Adobe Illustrator 14.0.0, SVG Export Plug-In . SVG Version: 6.00 Build 43363)  -->
<!DOCTYPE svg PUBLIC "-//W3C//DTD SVG 1.0//EN" "http://www.w3.org/TR/2001/REC-SVG-20010904/DTD/svg10.dtd">
<svg version="1.0" id="Layer_1" xmlns="http://www.w3.org/2000/svg" xmlns:xlink="http://www.w3.org/1999/xlink" x="0px" y="0px"
	 width="55.318px" height="100px" viewBox="0 0 55.318 100" enable-background="new 0 0 55.318 100" xml:space="preserve">
<path d="M55.024,17.975c-0.887-3.176-3.68-5.832-7.289-6.931c-3.134-0.955-6.75-2.764-7.403-3.521C36.025,2.531,31.195,0,25.974,0
	c-7.5,0-13.423,5.275-15.431,7.313C9.617,7.178,8.748,7.11,7.947,7.11c-3.956,0-5.872,1.685-6.782,3.099
	c-2.758,4.284,0.2,11.093,0.547,11.855l0.198,0.437l0.387,0.285c0.027,0.02,0.053,0.042,0.08,0.062l0.816,7.877l0.121,1.172
	L9.609,92.71l0.001-0.001C9.768,97.445,19.105,100,27.899,100c8.795,0,18.132-2.555,18.289-7.291l0.002,0.001l6.295-60.813
	l0.121-1.172l0.561-5.409c0.031-0.035,0.066-0.067,0.098-0.102C55.124,23.14,55.748,20.568,55.024,17.975z M5.626,31.444
	c-0.06-0.204-0.094-0.407-0.094-0.609L4.985,25.51c0.338,0.466,0.648,0.95,0.927,1.455c1.197,2.168,1.876,4.66,2.308,7.234
	C6.799,33.323,5.901,32.378,5.626,31.444z M50.266,30.835c0,0.202-0.034,0.405-0.094,0.609c-0.981,3.329-9.852,6.793-22.273,6.793
	c-0.743,0-1.473-0.013-2.19-0.037c-0.146-2.581-0.179-5.104,0.371-6.486c0.078-0.022,0.17-0.044,0.268-0.065
	c1.135-0.245,3.582-0.415,5.615-0.557c3.156-0.219,6.821-0.474,10.299-1.084c3.093-0.542,6.034-1.367,8.339-2.696l-0.348,3.354
	C50.257,30.724,50.266,30.78,50.266,30.835z M51.186,21.789c-0.173,0.333-0.393,0.656-0.668,0.963
	c-3.205,3.576-12.597,4.229-18.812,4.662c-4.852,0.337-7.302,0.512-8.388,1.749c-0.109,0.124-0.208,0.254-0.291,0.401
	c-0.312,0.554-0.539,1.184-0.706,1.87c-0.448,1.836-0.447,4.096-0.319,6.53c0.045,0.864,0.104,1.748,0.166,2.644
	c0.302,4.402,0.644,9.392-1.075,11.233c-0.324,0.347-0.913,0.808-2.281,0.808c-4.721,0-5.474-3.468-6.169-11.984
	c-0.122-1.496-0.251-3.069-0.444-4.667c-0.271-2.255-0.672-4.561-1.361-6.772c-0.314-1.01-0.69-2-1.141-2.956
	c-1.066-2.262-2.558-4.333-4.676-6.035c-0.043-0.035-0.083-0.07-0.126-0.104c-0.206-0.508-0.451-1.209-0.667-1.996
	c-0.046-0.165-0.09-0.333-0.133-0.504c-0.46-1.873-0.688-4.088,0.172-5.422c0.224-0.348,0.906-1.408,3.681-1.408
	c0.856,0,1.84,0.104,2.923,0.309l1.046,0.198l0.694-0.807c0.058-0.068,5.94-6.809,13.363-6.809c4.1,0,7.99,2.101,11.565,6.244
	c1.09,1.264,3.882,2.672,6.435,3.687c0.964,0.383,1.896,0.712,2.687,0.953c0.056,0.017,0.109,0.038,0.165,0.056
	c0.65,0.213,1.263,0.5,1.816,0.846c1.407,0.878,2.449,2.131,2.829,3.494C51.747,19.951,51.643,20.909,51.186,21.789z"/>
</svg>
