<?xml version="1.0" encoding="utf-8"?>
<!-- Generator: Adobe Illustrator 14.0.0, SVG Export Plug-In . SVG Version: 6.00 Build 43363)  -->
<!DOCTYPE svg PUBLIC "-//W3C//DTD SVG 1.0//EN" "http://www.w3.org/TR/2001/REC-SVG-20010904/DTD/svg10.dtd">
<svg version="1.0" id="Layer_1" xmlns="http://www.w3.org/2000/svg" xmlns:xlink="http://www.w3.org/1999/xlink" x="0px" y="0px"
	 width="98.919px" height="100px" viewBox="0 0 98.919 100" enable-background="new 0 0 98.919 100" xml:space="preserve">
<path d="M77.667,0H21.252C9.517,0,0,9.619,0,21.485v57.031C0,90.381,9.517,100,21.252,100h56.415
	c11.736,0,21.252-9.619,21.252-21.484V21.485C98.919,9.619,89.403,0,77.667,0z M26.275,83.203c-5.122,0-9.273-4.197-9.273-9.375
	s4.151-9.375,9.273-9.375s9.274,4.197,9.274,9.375S31.397,83.203,26.275,83.203z M48.687,83.203c0-17.69-14.185-32.03-31.685-32.03
	V37.89c24.753,0,44.822,20.288,44.822,45.312H48.687z M71.099,83.203c0-30.202-24.22-54.687-54.097-54.687V14.844
	c37.346,0,67.619,30.604,67.619,68.358H71.099z"/>
</svg>
