<?xml version="1.0" encoding="utf-8"?>
<!-- Generator: Adobe Illustrator 14.0.0, SVG Export Plug-In . SVG Version: 6.00 Build 43363)  -->
<!DOCTYPE svg PUBLIC "-//W3C//DTD SVG 1.0//EN" "http://www.w3.org/TR/2001/REC-SVG-20010904/DTD/svg10.dtd">
<svg version="1.0" id="Layer_1" xmlns="http://www.w3.org/2000/svg" xmlns:xlink="http://www.w3.org/1999/xlink" x="0px" y="0px"
	 width="45.58px" height="100px" viewBox="0 0 45.58 100" enable-background="new 0 0 45.58 100" xml:space="preserve">
<path d="M34.703,26.657c0,4.421,0,8.843,0,13.264c-2.159,0-4.315,0-6.475,0c0-11.553,0-23.107,0-34.66
	c0-7.015-10.877-7.015-10.877,0c0,13.366,0,26.733,0,40.099c0,1.149,0,2.301,0,3.45c-2.159,0-4.315,0-6.475,0
	c0-4.423,0-8.844,0-13.264c0-7.015-10.877-7.015-10.877,0c0,6.233,0,12.469,0,18.703c0,2.964,2.475,5.438,5.438,5.438
	c3.972,0,7.943,0,11.913,0c0,7.426,0,14.851,0,22.276c0,0.459,0,0.921,0,1.38c0,3.8,0,7.597,0,11.396c0,7.015,10.877,7.015,10.877,0
	c0-3.8,0-7.597,0-11.396c0-0.459,0-0.921,0-1.38c0-9.238,0-18.477,0-27.715c0-1.149,0-2.301,0-3.45c3.97,0,7.941,0,11.913,0
	c2.964,0,5.438-2.474,5.438-5.438c0-6.233,0-12.469,0-18.703C45.58,19.642,34.703,19.642,34.703,26.657z"/>
</svg>
