<?xml version="1.0" encoding="utf-8"?>
<!-- Generator: Adobe Illustrator 14.0.0, SVG Export Plug-In . SVG Version: 6.00 Build 43363)  -->
<!DOCTYPE svg PUBLIC "-//W3C//DTD SVG 1.0//EN" "http://www.w3.org/TR/2001/REC-SVG-20010904/DTD/svg10.dtd">
<svg version="1.0" id="Layer_1" xmlns="http://www.w3.org/2000/svg" xmlns:xlink="http://www.w3.org/1999/xlink" x="0px" y="0px"
	 width="100px" height="78.643px" viewBox="0 0 100 78.643" enable-background="new 0 0 100 78.643" xml:space="preserve">
<path d="M85.885,0H50H14.114L0,22.27l50,56.373l50-56.373L85.885,0z M94.109,19.914H73.191L83.65,3.49L94.109,19.914z M78.955,3.49
	l-8.381,13.161L56.035,3.49H78.955z M68.143,19.914H50H31.857L50,3.49L68.143,19.914z M44.168,3.49L29.629,16.651L21.248,3.49
	H44.168z M16.35,3.49l10.458,16.424H5.891L16.35,3.49z M5.891,23.584h21.592l18.143,44.41L5.891,23.584z M31.857,23.584H50h18.143
	L50,67.994L31.857,23.584z M54.374,67.994l18.144-44.41h21.592L54.374,67.994z"/>
</svg>
