<?xml version="1.0" encoding="utf-8"?>
<!-- Generator: Adobe Illustrator 14.0.0, SVG Export Plug-In . SVG Version: 6.00 Build 43363)  -->
<!DOCTYPE svg PUBLIC "-//W3C//DTD SVG 1.0//EN" "http://www.w3.org/TR/2001/REC-SVG-20010904/DTD/svg10.dtd">
<svg version="1.0" id="Layer_1" xmlns="http://www.w3.org/2000/svg" xmlns:xlink="http://www.w3.org/1999/xlink" x="0px" y="0px"
	 width="100px" height="70.851px" viewBox="0 0 100 70.851" enable-background="new 0 0 100 70.851" xml:space="preserve">
<path d="M98.085,0C66.028,0,33.972,0,1.915,0C0.871,0,0,0.871,0,1.915C0,8.724,0,15.532,0,22.34c0,1.044,0.871,1.915,1.915,1.915
	c32.057,0,64.113,0,96.17,0c0.563,0,0.993-0.205,1.298-0.513c0.019-0.016,0.036-0.034,0.054-0.051
	c0.017-0.017,0.035-0.034,0.05-0.053C99.795,23.333,100,22.904,100,22.34c0-6.809,0-13.617,0-20.426C100,0.871,99.129,0,98.085,0z"
	/>
<path d="M98.085,46.595c-32.057,0-64.113,0-96.17,0C0.871,46.595,0,47.467,0,48.51c0,6.809,0,13.617,0,20.426
	c0,1.043,0.871,1.915,1.915,1.915c32.057,0,64.113,0,96.17,0c0.563,0,0.993-0.206,1.298-0.513c0.019-0.017,0.036-0.035,0.054-0.051
	c0.017-0.018,0.035-0.034,0.05-0.054C99.795,69.928,100,69.5,100,68.936c0-6.809,0-13.617,0-20.426
	C100,47.467,99.129,46.595,98.085,46.595z"/>
</svg>
