<?xml version="1.0" encoding="utf-8"?>
<!-- Generator: Adobe Illustrator 14.0.0, SVG Export Plug-In . SVG Version: 6.00 Build 43363)  -->
<!DOCTYPE svg PUBLIC "-//W3C//DTD SVG 1.0//EN" "http://www.w3.org/TR/2001/REC-SVG-20010904/DTD/svg10.dtd">
<svg version="1.0" id="Layer_1" xmlns="http://www.w3.org/2000/svg" xmlns:xlink="http://www.w3.org/1999/xlink" x="0px" y="0px"
	 width="92.864px" height="100px" viewBox="0 0 92.864 100" enable-background="new 0 0 92.864 100" xml:space="preserve">
<path d="M83.066,0l-9.798,13.717h6.083v26.631c0,16.896-12.796,30.851-29.204,32.704V13.717h6.082L46.431,0l-9.798,13.717h6.084
	v59.335C26.31,71.199,13.513,57.244,13.513,40.348V13.717h6.083L9.798,0L0,13.717h6.083v26.631
	c0,20.996,16.122,38.289,36.635,40.169v4.774H24.573v7.431h18.145V100h7.43v-7.277h18.144v-7.431H50.147v-4.774
	c20.513-1.881,36.634-19.174,36.634-40.169V13.717h6.083L83.066,0z"/>
</svg>
