<?xml version="1.0" encoding="utf-8"?>
<!-- Generator: Adobe Illustrator 14.0.0, SVG Export Plug-In . SVG Version: 6.00 Build 43363)  -->
<!DOCTYPE svg PUBLIC "-//W3C//DTD SVG 1.0//EN" "http://www.w3.org/TR/2001/REC-SVG-20010904/DTD/svg10.dtd">
<svg version="1.0" id="Layer_1" xmlns="http://www.w3.org/2000/svg" xmlns:xlink="http://www.w3.org/1999/xlink" x="0px" y="0px"
	 width="100px" height="89.812px" viewBox="0 0 100 89.812" enable-background="new 0 0 100 89.812" xml:space="preserve">
<path d="M83.197,17.363c1.863-0.172,1.807-3.151-0.172-3.151c-9.511,0-19.022,0-28.534,0c-0.783,0-1.565,0-2.349,0
	c-0.116-6.429-0.189-11.161-0.189-12.777C51.953,0.479,50.977,0,50,0c-0.976,0-1.953,0.479-1.953,1.435
	c0,1.616-0.074,6.348-0.19,12.777c-9.781,0-19.563,0-29.345,0c-0.513,0-1.025,0-1.538,0c-1.979,0-2.035,2.979-0.171,3.151L0,62.377
	c4.068,4.974,10.761,8.219,18.328,8.219c7.568,0,14.261-3.245,18.329-8.219l-16.8-45.006c8.551,0,17.101,0,25.652,0
	c0.763,0,1.527,0,2.291,0c-0.003,0.184-0.007,0.368-0.01,0.554c-1.503,0.795-2.528,2.372-2.528,4.19c0,1.753,0.955,3.281,2.37,4.1
	C47.229,47,46.656,74.137,46.499,81.549c-11.748,0.584-20.774,4.061-20.774,8.264h48.552c0-4.203-9.026-7.68-20.774-8.264
	c-0.157-7.412-0.73-34.549-1.134-55.334c1.416-0.819,2.371-2.347,2.371-4.1c0-1.818-1.025-3.396-2.528-4.19
	c-0.004-0.186-0.007-0.37-0.011-0.554c9.314,0,18.629,0,27.943,0l-16.8,45.006c4.067,4.974,10.76,8.219,18.328,8.219
	c7.567,0,14.261-3.245,18.328-8.219L83.197,17.363z M17.539,19.93v42.447H1.773L17.539,19.93z M34.884,62.377H19.118V19.93
	L34.884,62.377z M98.228,62.377H82.462V19.93L98.228,62.377z M80.882,19.93v42.447H65.116L80.882,19.93z"/>
</svg>
