<?xml version="1.0" encoding="utf-8"?>
<!-- Generator: Adobe Illustrator 14.0.0, SVG Export Plug-In . SVG Version: 6.00 Build 43363)  -->
<!DOCTYPE svg PUBLIC "-//W3C//DTD SVG 1.0//EN" "http://www.w3.org/TR/2001/REC-SVG-20010904/DTD/svg10.dtd">
<svg version="1.0" id="Layer_1" xmlns="http://www.w3.org/2000/svg" xmlns:xlink="http://www.w3.org/1999/xlink" x="0px" y="0px"
	 width="100px" height="44.136px" viewBox="0 0 100 44.136" enable-background="new 0 0 100 44.136" xml:space="preserve">
<path d="M93.352,33.739c0,2.248-1.859,4.071-4.155,4.071H16.352c-2.295,0-4.156-1.823-4.156-4.071V10.398
	c0-2.25,1.861-4.071,4.156-4.071h72.845c2.296,0,4.155,1.821,4.155,4.071V33.739z"/>
<path d="M89.008,0H16.541C10.48,0,5.549,4.93,5.549,10.993v6.054H2.442C1.094,17.047,0,18.14,0,19.49v5.157
	c0,1.35,1.094,2.442,2.442,2.442h3.107v6.054c0,6.062,4.931,10.992,10.992,10.992h72.467c6.061,0,10.992-4.93,10.992-10.992v-22.15
	C100,4.93,95.068,0,89.008,0z M95.928,33.144c0,3.816-3.105,6.922-6.92,6.922H16.541c-3.816,0-6.921-3.105-6.921-6.922v-22.15
	c0-3.817,3.105-6.922,6.921-6.922h72.467c3.814,0,6.92,3.105,6.92,6.922V33.144z"/>
</svg>
