<?xml version="1.0" encoding="utf-8"?>
<!-- Generator: Adobe Illustrator 14.0.0, SVG Export Plug-In . SVG Version: 6.00 Build 43363)  -->
<!DOCTYPE svg PUBLIC "-//W3C//DTD SVG 1.0//EN" "http://www.w3.org/TR/2001/REC-SVG-20010904/DTD/svg10.dtd">
<svg version="1.0" id="Layer_1" xmlns="http://www.w3.org/2000/svg" xmlns:xlink="http://www.w3.org/1999/xlink" x="0px" y="0px"
	 width="86.793px" height="100px" viewBox="0 0 86.793 100" enable-background="new 0 0 86.793 100" xml:space="preserve">
<path d="M56.33,15.175v6.983c13.929,5.248,23.866,18.704,23.866,34.445c0,20.289-16.51,36.798-36.799,36.798
	S6.598,76.892,6.598,56.603c0-15.741,9.937-29.198,23.866-34.445v-6.983C12.83,20.691,0,37.175,0,56.603
	C0,80.534,19.468,100,43.397,100s43.396-19.466,43.396-43.396C86.793,37.175,73.964,20.691,56.33,15.175z"/>
<polygon points="47.357,57.587 39.437,57.587 39.437,0 47.357,0 47.357,57.587 "/>
</svg>
