<?xml version="1.0" encoding="utf-8"?>
<!-- Generator: Adobe Illustrator 14.0.0, SVG Export Plug-In . SVG Version: 6.00 Build 43363)  -->
<!DOCTYPE svg PUBLIC "-//W3C//DTD SVG 1.0//EN" "http://www.w3.org/TR/2001/REC-SVG-20010904/DTD/svg10.dtd">
<svg version="1.0" id="Layer_1" xmlns="http://www.w3.org/2000/svg" xmlns:xlink="http://www.w3.org/1999/xlink" x="0px" y="0px"
	 width="100px" height="66.517px" viewBox="0 0 100 66.517" enable-background="new 0 0 100 66.517" xml:space="preserve">
<path fill-rule="evenodd" clip-rule="evenodd" d="M15.335,45.298c3.217,0,5.832,2.614,5.832,5.833c0,3.218-2.615,5.839-5.832,5.839
	c-3.224,0-5.838-2.621-5.838-5.839C9.498,47.913,12.111,45.298,15.335,45.298L15.335,45.298z M15.335,41.632
	c5.243,0,9.5,4.26,9.5,9.499c0,5.242-4.257,9.506-9.5,9.506c-5.246,0-9.508-4.264-9.508-9.506
	C5.828,45.892,10.089,41.632,15.335,41.632L15.335,41.632z M15.379,35.745c8.491,0,15.382,6.903,15.382,15.387
	c0,8.484-6.891,15.386-15.382,15.386C6.89,66.517,0,59.616,0,51.131C0,42.648,6.89,35.745,15.379,35.745"/>
<path fill-rule="evenodd" clip-rule="evenodd" d="M81.233,45.298c3.216,0,5.828,2.614,5.828,5.833c0,3.218-2.612,5.839-5.828,5.839
	c-3.22,0-5.836-2.621-5.836-5.839C75.397,47.913,78.014,45.298,81.233,45.298L81.233,45.298z M81.233,41.632
	c5.239,0,9.499,4.26,9.499,9.499c0,5.242-4.26,9.506-9.499,9.506c-5.247,0-9.503-4.264-9.503-9.506
	C71.73,45.892,75.986,41.632,81.233,41.632L81.233,41.632z M81.233,35.745c8.492,0,15.376,6.903,15.376,15.387
	c0,8.484-6.884,15.386-15.376,15.386c-8.494,0-15.379-6.901-15.379-15.386C65.854,42.648,72.739,35.745,81.233,35.745"/>
<polyline fill-rule="evenodd" clip-rule="evenodd" points="80.431,40.504 82.644,46.853 77.798,48.217 75.634,41.864 80.431,40.504 
	"/>
<polyline fill-rule="evenodd" clip-rule="evenodd" points="19.755,49.255 27.419,36.827 22.438,33.912 14.816,46.333 19.755,49.255 
	"/>
<path fill-rule="evenodd" clip-rule="evenodd" d="M66.182,47.839c0.757-3.667,2.871-6.824,5.74-8.992
	c0.417-0.417,0.327-0.932-0.424-0.932h-6.307v9.924C65.191,48.457,66.044,48.583,66.182,47.839L66.182,47.839z M49.763,24.838
	l-12.041,6.907l9.783,3.958l6.583-6.592C52.114,27.949,51.13,26.961,49.763,24.838L49.763,24.838z M88.524,33.871
	C95.249,36.783,100,43.465,100,51.228h-6.257l-3.287-8.279l-10.352-4.467l-10.628,7.104v12.932H56.113
	c-6.396,0.096-10.77,0.096-16.225,0.096c-5.507,0-7.243-3.815-7.243-7.481c0-9.499-7.86-17.354-17.406-17.354l-0.283,0.05v-6.406
	h3.903c3.058,0,7.949-1.643,9.833-4.652l7.949-12.186c1.036-1.599,1.691-0.695,1.459,0.186l-3.249,13.548
	c-0.471,1.692,1.551,2.78,3.249,1.18l3.994-3.666l4.235-7.101v-0.897c-2.053,0-3.713-1.374-3.713-3.065V6.075H41.25
	C41.629,2.728,43.508,0,47.413,0s6.066,2.728,6.066,6.075c-0.047,3.009-0.654,2.966-1.175,3.898v2.169
	c0.521-0.044,1.035,0.043,1.93,0.379c0.889,0.378,4.091,1.643,4.848,2.06c0.707,0.426,0.938,0.47,1.877,1.416l7.572,7.947
	c1.693,1.742,1.837,3.625,1.837,5.313h15.428c2.069,0,2.776,1.27,2.776,3.855L88.524,33.871"/>
</svg>
