<?xml version="1.0" encoding="utf-8"?>
<!-- Generator: Adobe Illustrator 14.0.0, SVG Export Plug-In . SVG Version: 6.00 Build 43363)  -->
<!DOCTYPE svg PUBLIC "-//W3C//DTD SVG 1.0//EN" "http://www.w3.org/TR/2001/REC-SVG-20010904/DTD/svg10.dtd">
<svg version="1.0" id="Layer_1" xmlns="http://www.w3.org/2000/svg" xmlns:xlink="http://www.w3.org/1999/xlink" x="0px" y="0px"
	 width="75.046px" height="100px" viewBox="0 0 75.046 100" enable-background="new 0 0 75.046 100" xml:space="preserve">
<path d="M51.329,100H0l25.665-44.11L51.329,100L51.329,100z M9.164,94.729h33.001l-16.5-28.36L9.164,94.729L9.164,94.729z"/>
<path d="M53.358,43.956l11.844-6.714l-2.602-4.585L50.76,39.37L28.439,0l-2.285,4.079c-9.295,16.587-9.478,35.956-0.49,51.811
	c8.989,15.855,25.703,25.645,44.708,26.186l4.674,0.134L53.358,43.956z M30.25,53.29c-7.309-12.892-7.846-28.403-1.656-42.33
	l37.127,65.487C50.592,74.608,37.559,66.181,30.25,53.29z"/>
</svg>
