<?xml version="1.0" encoding="utf-8"?>
<!-- Generator: Adobe Illustrator 14.0.0, SVG Export Plug-In . SVG Version: 6.00 Build 43363)  -->
<!DOCTYPE svg PUBLIC "-//W3C//DTD SVG 1.0//EN" "http://www.w3.org/TR/2001/REC-SVG-20010904/DTD/svg10.dtd">
<svg version="1.0" id="Layer_1" xmlns="http://www.w3.org/2000/svg" xmlns:xlink="http://www.w3.org/1999/xlink" x="0px" y="0px"
	 width="26.717px" height="100px" viewBox="0 0 26.717 100" enable-background="new 0 0 26.717 100" xml:space="preserve">
<path fill-rule="evenodd" clip-rule="evenodd" d="M19.125,61.872c0.321-1.258-1.132-0.743-1.688-1.124
	C17.116,62.006,18.569,61.491,19.125,61.872c-0.14,2.892-2.732,0.061-3.094,0c-1.11,1.404,0.898,2.092,0.562,3.656
	c-0.948-0.083-0.816-1.246-1.688-1.406c0.673,11.421,0.764,23.423,0.844,35.436c-1.688,0-3.375,0-5.062,0
	c0.586-10.85,0.854-22.02,1.125-33.186c-0.985-0.412-1.726,1.83-2.812,2.251c-0.309-1.997,0.942-2.434,1.687-3.376
	c-0.089-0.66-0.87-0.629-1.125-1.125c-1.003,0.31-1.429,1.197-2.532,1.406c-0.819-1.358,2.002-2.311,2.812-1.969
	c0.654-0.283,0.907-0.968,0.844-1.969c-0.938,0-0.96,0.914-1.969,0.844c0.01-0.844,0.229-1.895,1.125-2.531
	c-0.183-0.285-0.646-0.291-0.562-0.844c-0.346,0.123-0.578,0.36-0.562,0.844c-0.882-0.193-0.366-0.75-0.281-1.406
	c-2.111-0.143-1.922,2.016-3.938,1.969c0.243-0.977,1.112-1.325,1.688-1.969c-1.161-0.709-2.815-1.021-4.219-0.843
	c-0.528-0.538,0.167-0.51,0-1.407c1.645-0.151,1.976,0.117,3.094-0.562c-0.874-1.18-2.682,0.137-4.219,0
	c0.01-1.924,4.255-0.594,3.375-2.531c1.765-0.185,4.836-0.542,4.5-2.53c-1.464,1.339-4.561,2.25-6.187,1.124
	c0.697-0.989,3.316-0.057,3.656-1.406c-1.486,0.548-3.533-0.54-5.062,0.563c0.246-1.088-1.228-0.459-0.844-1.687
	c0.907-0.179,1.662-0.315,2.25,0c0.764-0.257-0.749-0.523-0.281-1.407c0.656,0,1.313,0,1.968,0c0.205-0.766-0.559-0.565-0.562-1.124
	C3.058,47.483,0.327,47.274,0,46.123c0.747-0.002,1.606,0.105,1.969-0.282C1.314,45.279,0.219,45.153,0,44.154
	c1.134-0.511,2.58-0.839,3.937-0.562c0.06-0.903-1.002-0.685-1.406-1.124c0.541-0.68,1.321-1.118,1.968-1.689
	c-0.286-0.369-0.275-1.036-0.562-1.405c-0.642,0.107-2.105,0.807-2.25-0.563c0.747-0.003,1.606,0.106,1.969-0.28
	C3.875,36.437,1.385,37.052,0.563,36c0.996-0.85,1.821-0.176,3.374-0.282c-0.213-0.724-0.897-0.978-1.968-0.845
	c0.534-1.126,1.207-0.602,2.25-1.406c-0.571-1.295-2.007-0.178-3.093-1.125c-0.094-1.03,1.427-0.448,1.125-1.687
	c1.408-0.189,2.177,0.26,3.375,0.281c0.058-1.183-1.069-1.182-1.125-2.25c0.536-0.121,0.707-0.605,1.407-0.562
	c0.386-0.642-0.725-1.057,0-1.125c-1.127-0.654-2.526-1.036-3.094-2.249c1.084-0.497,1.778,0.315,3.094-0.562
	c-0.297-0.88-0.102-1.395-0.281-2.812c1.269-0.701,2.497-1.439,3.938-1.969C9.4,18.067,6.177,19.792,6.75,17.718
	c0.681-0.582,1.244,0.464,1.687-0.562c-0.775-0.965-1.722-0.209-2.25-1.125C6.741,14.787,7.62,15.603,9,15.187
	c0.008-0.853-1.416-0.272-1.406-1.125C7.551,13.175,8.734,13.515,9,12.937c-0.177-0.574-1.421-0.079-1.125-1.125
	c0.819-0.212,1.395-0.667,1.968-1.124C9.979,9.802,8.98,10.05,9.281,8.999c0.375-0.469,1.594-0.094,1.969-0.562
	c-0.087-0.381-0.704-0.232-1.125-0.281c0.006-0.837,1.327-0.361,1.688-0.843c-0.182-0.85-1.278-0.785-1.688-1.405
	C12.641,4.575,13.016,3.095,13.5,0c1.306,1.941,2.129,5.221,3.094,5.907c0.08,0.735-0.103,1.209-0.844,1.124
	c0.821,0.773,1.346,1.842,2.53,2.25c-0.075,0.58-1.244,0.068-1.124,0.845c0.984,0.42,2.094,0.718,1.969,2.249
	c-0.82,0.739-1.059-0.812-2.25-0.562c-0.531,0.46,1.135,1.1,1.125,1.969c1.385-0.072,2.733-0.108,2.531,1.406
	c-1.784-0.25-2.279,0.191-3.375,0c0.424,1.018,1.457,0.799,2.531,0.563c1.222,1.383,0.687,2.375,0.844,3.937
	c-1.705-0.219-1.289,1.248-2.812,0.562c0.969,1.375,4.102,0.585,4.5,2.532c-0.376,0-0.75,0-1.125,0
	c0.052,0.885,1.515,0.359,1.406,1.406c-0.91-0.348-0.216,0.91-1.125,0.562c0.14,1.078,2.079,0.357,1.969,1.687
	c-1.293,0.631-1.853,0.249-2.812,1.125c0.3,0.918,0.572,1.863,1.688,1.968c-0.1,0.369-0.495,0.441-0.562,0.844
	c0.794,0.443,1.193-0.325,1.969,0.281c0.025,0.87-0.85,0.838-1.688,0.844c0.175,1.994,3.117,0.022,3.655,1.968
	c-1.229,0.255-2.325,0.983-3.937,0.564c0.387,1.768,2.807,1.504,4.219,2.249c-0.941,0.977-2.804-0.231-2.812,1.969
	c-0.844,0-1.688,0-2.531,0c0.152,1.723,3.213,0.537,3.938,1.687c-0.502,1.254-3.937-0.564-3.938,0.562
	c-0.002,1.408,1.615,0.571,3.094,1.126c1.167,0.437,0.844,2.449,2.25,1.968c-0.075,0.957-1.268,0.796-1.688,1.406
	c0.357,1.343,1.658,0.832,2.531,1.125c-0.733,1.33-3.309,0.312-3.938,2.251c0.772,0.472,1.936,0.928,3.657,1.124
	c-0.625,1.73-2.827,0.425-3.938,1.125c1.155,0.606,0.192,1.171-0.562,1.405c0.995,0.506,1.778,1.223,3.094,1.406
	c-0.373,0.752-1.24,1.011-1.688,1.688c0.099,0.933,1.62,0.44,2.531,0.562c-0.236,0.327-0.371,0.754-0.282,1.406
	c-2.124,0.64-5.145,1.719-7.874,0.282c0.446,1.401,2.745,1.693,5.062,1.968c-0.006,0.662,0.485,0.828,0.282,1.688
	c-1.828,0.234-2.207-0.98-3.375-1.406c0.271,0.948,0.833,1.604,1.688,1.969C20.843,62.531,20.239,61.769,19.125,61.872z"/>
<path fill-rule="evenodd" clip-rule="evenodd" d="M21.375,61.591c-0.854-0.364-1.417-1.021-1.688-1.969
	c1.168,0.426,1.547,1.641,3.375,1.406c0.203-0.859-0.288-1.025-0.282-1.688c-2.316-0.274-4.615-0.566-5.062-1.968
	c2.729,1.437,5.75,0.357,7.874-0.282c-0.089-0.652,0.046-1.079,0.282-1.406c-0.911-0.121-2.433,0.371-2.531-0.562
	c0.447-0.678,1.314-0.937,1.688-1.688c-1.315-0.184-2.099-0.9-3.094-1.406c0.755-0.234,1.718-0.799,0.562-1.405
	c1.11-0.7,3.312,0.604,3.938-1.125c-1.722-0.195-2.885-0.652-3.657-1.124c0.629-1.939,3.204-0.921,3.938-2.251
	c-0.873-0.293-2.174,0.218-2.531-1.125c0.421-0.61,1.613-0.449,1.688-1.406c-1.406,0.481-1.083-1.531-2.25-1.968
	c-1.479-0.555-3.096,0.282-3.094-1.126c0.001-1.127,3.436,0.691,3.938-0.562c-0.725-1.15-3.785,0.036-3.938-1.687
	c0.844,0,1.688,0,2.531,0c0.009-2.2,1.871-0.993,2.812-1.969c-1.412-0.745-3.832-0.48-4.219-2.249
	c1.611,0.419,2.708-0.309,3.937-0.564c-0.538-1.945-3.48,0.026-3.655-1.968c0.838-0.006,1.713,0.026,1.688-0.844
	c-0.775-0.605-1.175,0.162-1.969-0.281c0.067-0.403,0.463-0.475,0.562-0.844c-1.115-0.105-1.388-1.05-1.688-1.968
	c0.96-0.877,1.52-0.495,2.812-1.125c0.11-1.33-1.829-0.609-1.969-1.687c0.909,0.347,0.215-0.911,1.125-0.562
	c0.108-1.047-1.354-0.521-1.406-1.406c0.375,0,0.749,0,1.125,0c-0.398-1.947-3.531-1.156-4.5-2.532
	c1.523,0.686,1.107-0.781,2.812-0.562c-0.157-1.562,0.378-2.554-0.844-3.937c-1.074,0.236-2.107,0.455-2.531-0.563
	c1.096,0.191,1.591-0.25,3.375,0c0.202-1.515-1.146-1.479-2.531-1.406c0.01-0.869-1.656-1.508-1.125-1.969
	c1.191-0.249,1.43,1.301,2.25,0.562c0.125-1.531-0.984-1.828-1.969-2.249c-0.12-0.776,1.049-0.265,1.124-0.845
	c-1.185-0.408-1.709-1.477-2.53-2.25c0.741,0.085,0.924-0.389,0.844-1.124C15.628,5.221,14.805,1.941,13.5,0
	c-0.483,3.095-0.858,4.575-3.375,5.907c0.41,0.62,1.506,0.555,1.688,1.405c-0.361,0.482-1.682,0.006-1.688,0.843
	c0.421,0.049,1.038-0.1,1.125,0.281C10.875,8.905,9.656,8.53,9.281,8.999C8.98,10.05,9.979,9.802,9.843,10.688
	C9.27,11.145,8.694,11.6,7.875,11.812C7.579,12.858,8.823,12.363,9,12.937c-0.266,0.578-1.449,0.238-1.406,1.125
	C7.584,14.914,9.008,14.334,9,15.187c-1.38,0.416-2.259-0.399-2.812,0.844c0.527,0.917,1.474,0.16,2.25,1.125
	c-0.443,1.027-1.006-0.02-1.687,0.562c-0.573,2.073,2.65,0.349,2.812,1.687c-1.44,0.53-2.668,1.269-3.938,1.969
	c0.179,1.417-0.016,1.933,0.281,2.812c-1.315,0.878-2.01,0.066-3.094,0.562c0.567,1.213,1.966,1.595,3.094,2.249
	c-0.725,0.069,0.386,0.484,0,1.125c-0.7-0.043-0.871,0.441-1.407,0.562c0.057,1.068,1.184,1.067,1.125,2.25
	c-1.198-0.021-1.967-0.471-3.375-0.281c0.302,1.238-1.219,0.657-1.125,1.687c1.086,0.947,2.522-0.17,3.093,1.125
	c-1.043,0.804-1.716,0.28-2.25,1.406c1.071-0.133,1.755,0.121,1.968,0.845C2.384,35.824,1.559,35.15,0.563,36
	c0.822,1.052,3.312,0.437,3.093,2.531c-0.363,0.387-1.222,0.277-1.969,0.28c0.144,1.371,1.608,0.671,2.25,0.563
	c0.287,0.369,0.276,1.036,0.562,1.405c-0.647,0.571-1.428,1.009-1.968,1.689c0.403,0.439,1.466,0.22,1.406,1.124
	C2.58,43.315,1.134,43.644,0,44.154c0.219,0.999,1.314,1.125,1.969,1.687C1.606,46.229,0.747,46.121,0,46.123
	c0.327,1.151,3.058,1.36,3.656,0.563c0.003,0.558,0.767,0.358,0.562,1.124c-0.655,0-1.312,0-1.968,0
	c-0.468,0.884,1.045,1.15,0.281,1.407c-0.588-0.315-1.343-0.179-2.25,0c-0.384,1.228,1.089,0.599,0.844,1.687
	c1.529-1.103,3.577-0.015,5.062-0.563c-0.34,1.35-2.959,0.417-3.656,1.406c1.626,1.126,4.723,0.215,6.187-1.124
	c0.336,1.988-2.735,2.346-4.5,2.53c0.881,1.938-3.365,0.607-3.375,2.531c1.537,0.137,3.345-1.18,4.219,0
	c-1.118,0.68-1.449,0.411-3.094,0.562c0.167,0.897-0.528,0.869,0,1.407c1.403-0.179,3.058,0.134,4.219,0.843
	c-0.576,0.644-1.445,0.992-1.688,1.969c2.015,0.047,1.827-2.111,3.938-1.969c-0.085,0.656-0.601,1.213,0.281,1.406
	c-0.015-0.483,0.216-0.721,0.562-0.844c-0.084,0.553,0.38,0.559,0.562,0.844c-0.896,0.637-1.115,1.688-1.125,2.531
	c1.009,0.07,1.031-0.844,1.969-0.844c0.063,1.001-0.189,1.686-0.844,1.969c-0.811-0.342-3.632,0.61-2.812,1.969
	c1.103-0.209,1.528-1.097,2.532-1.406c0.254,0.496,1.035,0.465,1.125,1.125C9.942,66.189,8.691,66.626,9,68.623
	c1.087-0.421,1.828-2.663,2.812-2.251c-0.258,10.653-0.382,20.067-0.914,30.447c-0.474,1.07-0.496,2.396-0.211,2.738
	c1.969,0.578,3.492,0.602,5.062,0c0.727-0.289,0.785-1.051-0.024-3.553c-0.079-10.822-0.213-21.588-0.819-31.883
	c0.871,0.16,0.739,1.323,1.688,1.406c0.336-1.564-1.673-2.252-0.562-3.656c0.361,0.061,2.954,2.892,3.094,0
	c-0.556-0.381-2.009,0.134-1.688-1.124c0.556,0.381,2.009-0.134,1.688,1.124C20.239,61.769,20.843,62.531,21.375,61.591z"/>
</svg>
