<?xml version="1.0" encoding="utf-8"?>
<!-- Generator: Adobe Illustrator 14.0.0, SVG Export Plug-In . SVG Version: 6.00 Build 43363)  -->
<!DOCTYPE svg PUBLIC "-//W3C//DTD SVG 1.0//EN" "http://www.w3.org/TR/2001/REC-SVG-20010904/DTD/svg10.dtd">
<svg version="1.0" id="Layer_1" xmlns="http://www.w3.org/2000/svg" xmlns:xlink="http://www.w3.org/1999/xlink" x="0px" y="0px"
	 width="76.741px" height="100px" viewBox="0 0 76.741 100" enable-background="new 0 0 76.741 100" xml:space="preserve">
<path d="M76.741,7.365C64.877,2.616,51.934,0,38.37,0C24.807,0,11.861,2.616,0,7.365l4.853,11.716
	c10.368-4.131,21.681-6.406,33.517-6.406c11.838,0,23.149,2.275,33.518,6.406L76.741,7.365z"/>
<path d="M38.37,15.211c-11.5,0-22.479,2.207-32.546,6.213L38.37,100l32.547-78.575C60.847,17.418,49.871,15.211,38.37,15.211z
	 M20.795,36.761c0-4.105,3.33-7.434,7.435-7.434s7.435,3.328,7.435,7.434c0,4.107-3.33,7.435-7.435,7.435
	S20.795,40.868,20.795,36.761z M38.103,68.453c-2.705,0-4.897-2.192-4.897-4.898c0-2.705,2.192-4.898,4.897-4.898
	c2.707,0,4.901,2.193,4.901,4.898C43.004,66.26,40.81,68.453,38.103,68.453z M51.76,38.743c-3.405,0-6.165-2.762-6.165-6.167
	s2.76-6.167,6.165-6.167c3.407,0,6.167,2.762,6.167,6.167S55.167,38.743,51.76,38.743z"/>
</svg>
