<?xml version="1.0" encoding="utf-8"?>
<!-- Generator: Adobe Illustrator 14.0.0, SVG Export Plug-In . SVG Version: 6.00 Build 43363)  -->
<!DOCTYPE svg PUBLIC "-//W3C//DTD SVG 1.0//EN" "http://www.w3.org/TR/2001/REC-SVG-20010904/DTD/svg10.dtd">
<svg version="1.0" id="Layer_1" xmlns="http://www.w3.org/2000/svg" xmlns:xlink="http://www.w3.org/1999/xlink" x="0px" y="0px"
	 width="86.34px" height="100px" viewBox="0 0 86.34 100" enable-background="new 0 0 86.34 100" xml:space="preserve">
<path d="M28.611,25.219L28.611,25.219C28.612,25.219,28.612,25.219,28.611,25.219L28.611,25.219L28.611,25.219L28.611,25.219
	L28.611,25.219L28.611,25.219L28.611,25.219h-0.002l0,0H28.611l-0.001,0.001h0l0,0l0,0l0,0h0c0.001,0,0.001,0,0.001,0
	S28.612,25.221,28.611,25.219z M28.61,25.221L28.61,25.221L28.61,25.221v-0.001l0,0l0,0l0,0l0,0V25.221L28.61,25.221L28.61,25.221z
	 M28.611,25.221L28.611,25.221L28.611,25.221L28.611,25.221c0-0.001,0-0.001,0-0.001h0V25.221z M28.611,25.221L28.611,25.221
	L28.611,25.221L28.611,25.221L28.611,25.221z M28.611,25.219L28.611,25.219L28.611,25.219L28.611,25.219L28.611,25.219z"/>
<path d="M43.17,0l14.559,25.219l28.611,0.007L72.039,49.997L86.34,74.773l-28.608,0.005L43.17,100L28.607,74.778L0,74.773
	l14.305-24.776L0,25.227l28.611-0.007L43.17,0z M24.51,49.997l9.227,15.999h18.836l9.257-15.999l-9.254-16.039h-18.81L24.51,49.997z
	 M62.778,66.021h8.31l-4.153-7.191L62.778,66.021z M15.246,65.992h8.309L19.4,58.8L15.246,65.992z M39.041,25h8.31l-4.155-7.193
	L39.041,25z M66.934,41.155l4.153-7.193h-8.31L66.934,41.155z M19.4,41.183l4.154-7.192h-8.309L19.4,41.183z M43.195,82.175
	l4.155-7.192h-8.31L43.195,82.175z"/>
</svg>
