<?xml version="1.0" encoding="utf-8"?>
<!-- Generator: Adobe Illustrator 14.0.0, SVG Export Plug-In . SVG Version: 6.00 Build 43363)  -->
<!DOCTYPE svg PUBLIC "-//W3C//DTD SVG 1.0//EN" "http://www.w3.org/TR/2001/REC-SVG-20010904/DTD/svg10.dtd">
<svg version="1.0" id="Layer_1" xmlns="http://www.w3.org/2000/svg" xmlns:xlink="http://www.w3.org/1999/xlink" x="0px" y="0px"
	 width="79.384px" height="100px" viewBox="0 0 79.384 100" enable-background="new 0 0 79.384 100" xml:space="preserve">
<path d="M39.439,21.262c-11.423,0-20.716,9.293-20.716,20.716h4.921c0-8.709,7.086-15.795,15.795-15.795s15.795,7.085,15.795,15.795
	c0,4.183-5.228,12.202-8.074,16.509c-0.48,0.727-0.922,1.396-1.306,1.99c-1.062,1.647-1.159,3.968-1.263,6.425
	c-0.116,2.775-0.248,5.923-1.76,7.024c-1.085,0.792-3.2,0.784-6.116-0.021l-1.31,4.744c1.896,0.523,3.59,0.785,5.095,0.785
	c2.097,0,3.827-0.509,5.229-1.53c3.433-2.501,3.624-7.101,3.779-10.797c0.058-1.369,0.145-3.44,0.481-3.963
	c0.375-0.581,0.807-1.234,1.275-1.944c3.568-5.4,8.89-13.56,8.89-19.222C60.155,30.555,50.862,21.262,39.439,21.262z"/>
<g>
	<path d="M29.251,41.978c0-5.617,4.57-10.188,10.188-10.188c5.617,0,10.188,4.57,10.188,10.188c0,1.485-0.323,2.896-0.896,4.169
		l3.424,1.613c0.805-1.763,1.258-3.72,1.258-5.782c0-7.705-6.269-13.973-13.974-13.973s-13.974,6.268-13.974,13.973v0L29.251,41.978
		L29.251,41.978z"/>
</g>
<g>
	<path d="M65.941,0l-14.42,19.709c5.305,2.691,9.303,7.595,10.768,13.493L79.384,9.835L76.234,0H65.941z"/>
</g>
<polygon points="19.907,62.94 0,90.165 3.149,100 13.442,100 33.35,72.775 "/>
</svg>
