<?xml version="1.0" encoding="utf-8"?>
<!-- Generator: Adobe Illustrator 14.0.0, SVG Export Plug-In . SVG Version: 6.00 Build 43363)  -->
<!DOCTYPE svg PUBLIC "-//W3C//DTD SVG 1.0//EN" "http://www.w3.org/TR/2001/REC-SVG-20010904/DTD/svg10.dtd">
<svg version="1.0" id="Layer_1" xmlns="http://www.w3.org/2000/svg" xmlns:xlink="http://www.w3.org/1999/xlink" x="0px" y="0px"
	 width="100px" height="37.836px" viewBox="0 0 100 37.836" enable-background="new 0 0 100 37.836" xml:space="preserve">
<polygon points="89.408,20.122 89.408,17.714 100,17.714 100,20.122 89.408,20.122 "/>
<polygon points="87.39,12.591 96.564,7.303 97.767,9.389 88.592,14.677 87.39,12.591 "/>
<polygon points="83.071,9.158 88.367,0 90.45,1.205 85.154,10.363 83.071,9.158 "/>
<polygon points="87.392,25.248 88.593,23.162 97.767,28.448 96.565,30.534 87.392,25.248 "/>
<polygon points="83.069,28.678 85.152,27.473 90.45,36.631 88.367,37.836 83.069,28.678 "/>
<path d="M85.887,18.918c0-3.82-2.96-6.956-6.707-7.25v-6.35h-6.872C64.61,4.991,60.648,8.939,59.165,10.9H8.015
	C3.589,10.9,0,14.489,0,18.915s3.589,8.014,8.015,8.014h51.149c1.389,1.836,4.951,5.413,11.717,5.592v0.015h8.299v-6.368
	C82.927,25.875,85.887,22.739,85.887,18.918z M79.18,23.655v-9.472c2.362,0.284,4.202,2.297,4.202,4.736
	C83.382,21.356,81.542,23.371,79.18,23.655z"/>
<path d="M49.052,6.341h-5.268c-1.511,0-2.734,1.358-2.734,3.034h10.736C51.786,7.699,50.562,6.341,49.052,6.341z"/>
</svg>
