<?xml version="1.0" encoding="utf-8"?>
<!-- Generator: Adobe Illustrator 14.0.0, SVG Export Plug-In . SVG Version: 6.00 Build 43363)  -->
<!DOCTYPE svg PUBLIC "-//W3C//DTD SVG 1.0//EN" "http://www.w3.org/TR/2001/REC-SVG-20010904/DTD/svg10.dtd">
<svg version="1.0" id="Layer_1" xmlns="http://www.w3.org/2000/svg" xmlns:xlink="http://www.w3.org/1999/xlink" x="0px" y="0px"
	 width="100px" height="59.565px" viewBox="0 0 100 59.565" enable-background="new 0 0 100 59.565" xml:space="preserve">
<path d="M11.264,37.037C5.043,37.037,0,42.08,0,48.301c0,6.221,5.043,11.264,11.264,11.264c6.221,0,11.264-5.043,11.264-11.264
	C22.528,42.08,17.485,37.037,11.264,37.037z M11.264,55.364c-3.9,0-7.062-3.162-7.062-7.062c0-3.901,3.162-7.063,7.062-7.063
	c3.901,0,7.063,3.162,7.063,7.063C18.327,52.202,15.165,55.364,11.264,55.364z"/>
<path d="M79.524,18.614c-11.308,0-20.476,9.167-20.476,20.476c0,11.309,9.168,20.476,20.476,20.476
	c11.309,0,20.476-9.167,20.476-20.476C100,27.781,90.833,18.614,79.524,18.614z M79.524,51.928c-7.091,0-12.839-5.748-12.839-12.839
	S72.434,26.25,79.524,26.25s12.839,5.748,12.839,12.839S86.615,51.928,79.524,51.928z"/>
<path d="M63.86,12.313l-30.065,1.032V8.877h-0.823V2.195h-0.835v6.682h-0.823v4.553l-2.744,0.094V0h-2.005v13.593l-18.355,0.63
	c0,0-1.477,1.916-1.432,2.672c0.44,7.402,1.88,15.205,2.673,18.232c0.768,2.933,31.257,3.041,47.047,2.899
	c0.556-12.239,10.652-21.991,23.027-21.991c3.043,0,5.947,0.591,8.607,1.662l1.311-1.185v-3.246L63.86,12.313z"/>
</svg>
