<?xml version="1.0" encoding="utf-8"?>
<!-- Generator: Adobe Illustrator 14.0.0, SVG Export Plug-In . SVG Version: 6.00 Build 43363)  -->
<!DOCTYPE svg PUBLIC "-//W3C//DTD SVG 1.0//EN" "http://www.w3.org/TR/2001/REC-SVG-20010904/DTD/svg10.dtd">
<svg version="1.0" id="Layer_1" xmlns="http://www.w3.org/2000/svg" xmlns:xlink="http://www.w3.org/1999/xlink" x="0px" y="0px"
	 width="57.188px" height="100px" viewBox="0 0 57.188 100" enable-background="new 0 0 57.188 100" xml:space="preserve">
<path d="M57.13,50c-0.458-15.863-12.673-28.078-28.536-28.536c-3.244-0.094-6.333,0.418-9.205,1.409
	c0.403-0.546,0.805-1.085,1.204-1.616c3.807-5.068,8.143-9.905,12.759-14.255c3.887-3.663-1.969-9.497-5.844-5.845
	C14.863,13.071-1.077,31.511,0.058,50C0.516,65.863,12.73,78.078,28.594,78.536c3.244,0.095,6.332-0.418,9.205-1.409
	c-0.403,0.546-0.805,1.085-1.204,1.616c-3.808,5.067-8.144,9.904-12.76,14.255c-3.887,3.662,1.969,9.497,5.845,5.845
	C42.325,86.929,58.265,68.489,57.13,50z M28.594,70.271C17.299,70.597,8.635,60.808,8.323,50
	c-0.327-11.295,9.463-19.959,20.271-20.271C39.89,29.403,48.553,39.192,48.864,50C49.19,61.296,39.401,69.959,28.594,70.271z"/>
</svg>
