<?xml version="1.0" encoding="utf-8"?>
<!-- Generator: Adobe Illustrator 14.0.0, SVG Export Plug-In . SVG Version: 6.00 Build 43363)  -->
<!DOCTYPE svg PUBLIC "-//W3C//DTD SVG 1.0//EN" "http://www.w3.org/TR/2001/REC-SVG-20010904/DTD/svg10.dtd">
<svg version="1.0" id="Layer_1" xmlns="http://www.w3.org/2000/svg" xmlns:xlink="http://www.w3.org/1999/xlink" x="0px" y="0px"
	 width="100px" height="40.607px" viewBox="0 0 100 40.607" enable-background="new 0 0 100 40.607" xml:space="preserve">
<path d="M97.465,33.245c-4.848-1.715-9.698-3.431-14.55-5.146c-0.495-1.638-0.988-3.276-1.483-4.916
	c1.057-3.6-0.224-7.93-4.854-9.279c-7.214-2.102-14.427-4.201-21.64-6.3c-1.548-0.448-2.94-0.411-4.152-0.035
	c-0.592,0.124-1.189,0.297-1.763,0.55c-4.875,2.175-9.751,4.35-14.624,6.519c-3.734-3.522-7.96-6.876-10.922-10.661
	c-2.931-3.756-8.127,1.519-5.228,5.228c3.781,4.838,7.559,9.675,11.34,14.515c0.066,0.142,0.114,0.291,0.192,0.427
	c0.467,0.803,1.054,1.421,1.71,1.888c0.452,0.396,0.935,0.619,1.424,0.7c1.65,0.564,3.545,0.401,5.296-0.38
	c3.785-1.685,7.571-3.372,11.355-5.061c0.44,0.223,0.917,0.42,1.441,0.57c7.213,2.104,14.426,4.201,21.637,6.301
	c0.947,0.276,1.835,0.361,2.66,0.309c0.35,1.154,0.698,2.309,1.045,3.463c0.327,1.08,0.983,1.782,1.764,2.185
	c0.248,0.153,0.515,0.291,0.818,0.398c5.524,1.952,11.046,3.903,16.571,5.858C100.006,41.971,101.929,34.823,97.465,33.245z"/>
<path d="M61.768,8.522c5.519,1.582,11.035,3.159,16.554,4.742c4.594,1.318,6.54-5.821,1.965-7.132
	c-5.519-1.579-11.035-3.16-16.554-4.742C59.139,0.076,57.194,7.211,61.768,8.522L61.768,8.522z"/>
<path d="M98.601,20.596l-2.705-0.935c-0.241-3.47-3.103-6.223-6.633-6.223c-3.687,0-6.68,2.994-6.68,6.681
	c0,3.69,2.993,6.681,6.68,6.681c1.462,0,2.801-0.483,3.902-1.28l3.334,1.154L98.601,20.596z"/>
<path d="M17.307,1.601C16.042-2.001,0,1.601,0,1.601V11.79C0,11.79,18.838,5.946,17.307,1.601z"/>
</svg>
