<?xml version="1.0" encoding="utf-8"?>
<!-- Generator: Adobe Illustrator 14.0.0, SVG Export Plug-In . SVG Version: 6.00 Build 43363)  -->
<!DOCTYPE svg PUBLIC "-//W3C//DTD SVG 1.0//EN" "http://www.w3.org/TR/2001/REC-SVG-20010904/DTD/svg10.dtd">
<svg version="1.0" id="Layer_1" xmlns="http://www.w3.org/2000/svg" xmlns:xlink="http://www.w3.org/1999/xlink" x="0px" y="0px"
	 width="100px" height="100px" viewBox="0 0 100 100" enable-background="new 0 0 100 100" xml:space="preserve">
<path d="M95.686,5.413l-1.1-1.1c-3.122-3.123-8.873-2.434-12.845,1.538L7.434,80.159c-3.973,3.973-4.661,9.723-1.538,12.846l1.1,1.1
	c3.123,3.122,8.873,2.434,12.845-1.539l74.308-74.308C98.12,14.286,98.808,8.536,95.686,5.413z M84.515,12.993
	c-1.575,6.865-3.411,16.081-11.717,18.161c-2.387,0.598-5.04,0.851-7.363,2.005c-2.54,1.263-2.812,5.408-3.317,7.583
	c-0.926,3.978-2.475,7.762-6.888,9.217c-2.484,0.819-4.986,1.122-7.462,1.939c-3.343,1.103-3.862,3.206-4.555,6.265
	c-0.847,3.732-1.603,8.378-5.774,10.45c-3.949,1.962-10.885,1.241-13.007,5.966c-1.52,3.384-2.597,6.909-3.392,10.371
	c-0.587,2.553-4.566,3.057-3.975,0.477c1.577-6.866,3.412-16.081,11.719-18.162c2.386-0.598,5.039-0.851,7.363-2.005
	c2.539-1.262,2.81-5.406,3.315-7.582c0.926-3.978,2.475-7.761,6.889-9.217c2.483-0.819,4.987-1.123,7.463-1.939
	c3.342-1.102,3.86-3.206,4.554-6.264c0.848-3.732,1.604-8.378,5.774-10.451c3.95-1.962,10.886-1.242,13.008-5.966
	c1.521-3.384,2.597-6.909,3.392-10.371C81.128,10.917,85.108,10.412,84.515,12.993z"/>
<path d="M96.397,20.413l-0.788-0.789L19.625,95.608l0.789,0.789c4.183,4.183,10.332,4.815,13.734,1.413L97.81,34.148
	C101.212,30.746,100.581,24.596,96.397,20.413z"/>
<path d="M79.586,3.602l0.789,0.789L4.391,80.375l-0.789-0.789c-4.183-4.183-4.816-10.331-1.414-13.734L65.852,2.189
	C69.253-1.213,75.404-0.581,79.586,3.602z"/>
</svg>
