<?xml version="1.0" encoding="utf-8"?>
<!-- Generator: Adobe Illustrator 14.0.0, SVG Export Plug-In . SVG Version: 6.00 Build 43363)  -->
<!DOCTYPE svg PUBLIC "-//W3C//DTD SVG 1.0//EN" "http://www.w3.org/TR/2001/REC-SVG-20010904/DTD/svg10.dtd">
<svg version="1.0" id="Layer_1" xmlns="http://www.w3.org/2000/svg" xmlns:xlink="http://www.w3.org/1999/xlink" x="0px" y="0px"
	 width="45.177px" height="100px" viewBox="0 0 45.177 100" enable-background="new 0 0 45.177 100" xml:space="preserve">
<path d="M19.926,60.881c2.255,7.361,1.062,28.962,0.803,30.053c-1.633,6.869-17.479,7.668-17.479,7.668h0.038
	C2.411,98.63,2.419,100,3.313,100h38.551c0.895,0,0.901-1.37,0.025-1.398h0.038c0,0-15.847-0.799-17.479-7.668
	c-0.26-1.091-1.453-22.691,0.803-30.053c2.13-6.954,13.22-7.404,18.223-22.424C48.842,22.343,39.803,0,39.803,0H25.525h-2.938
	h-2.936H5.375c0,0-9.04,22.343-3.673,38.457C6.705,53.477,17.796,53.927,19.926,60.881z"/>
</svg>
