<?xml version="1.0" encoding="utf-8"?>
<!-- Generator: Adobe Illustrator 14.0.0, SVG Export Plug-In . SVG Version: 6.00 Build 43363)  -->
<!DOCTYPE svg PUBLIC "-//W3C//DTD SVG 1.0//EN" "http://www.w3.org/TR/2001/REC-SVG-20010904/DTD/svg10.dtd">
<svg version="1.0" id="Layer_1" xmlns="http://www.w3.org/2000/svg" xmlns:xlink="http://www.w3.org/1999/xlink" x="0px" y="0px"
	 width="69.544px" height="100px" viewBox="0 0 69.544 100" enable-background="new 0 0 69.544 100" xml:space="preserve">
<path d="M65.924,32.052c-4.505,0-9.01,0-13.515,0v-0.756v-9.767c0.412-0.792,0.644-1.662,0.644-2.625
	C53.053,10.498,31.52,0,25.059,0c-5.995,0-7.547,3.42-8.575,5.684c-0.802,1.765-1.014,1.988-1.894,1.988L14.496,7.67
	c-0.435-0.013-1.197-0.153-2.004-0.302C11.12,7.116,9.413,6.802,7.726,6.802c-2.705,0-4.748,0.836-6.071,2.487
	c-1.799,2.242-2.127,5.788-1.004,10.839c0.154,0.691,0.521,1.336,1.065,1.952v9.216v53.979c0,0.415,0.059,0.817,0.167,1.207
	c0.202,0.727,0.588,1.408,1.126,2.047l3.817,5.522C8.529,97.432,16.938,100,27.062,100c10.132,0,18.546-2.572,20.24-5.956
	l3.806-5.506c0.542-0.642,0.932-1.326,1.134-2.057c0.108-0.39,0.167-0.792,0.167-1.207v-7.886c4.505,0,9.01,0,13.515,0
	c1.973,0,3.62-1.646,3.62-3.62c0-12.698,0-25.397,0-38.096C69.544,33.699,67.896,32.052,65.924,32.052z M50.02,24.178v2.792v4.326
	c0,0.253-0.056,0.509-0.154,0.764c-0.388,1.013-1.528,2.033-3.295,2.958c-3.873,2.028-10.745,3.597-19.276,3.625
	c-0.403-3.583-0.768-7.859,0.537-8.852c0.396-0.065,1.282-0.166,2.076-0.257C35.363,28.912,45.096,27.798,50.02,24.178z
	 M4.105,31.296V26.97v-2.954c1.735,1.107,3.994,2.17,6.534,3.311c0.964,0.432,2.163,0.971,2.433,1.158
	c1.269,0.954,0.57,5.075-0.06,8.542C7.45,35.576,4.105,33.366,4.105,31.296z M4.667,11.704c0.207-0.257,0.835-1.041,3.059-1.041
	c1.334,0,2.786,0.267,4.066,0.503c0.245,0.044,0.48,0.088,0.709,0.128c0.705,0.125,1.332,0.219,1.884,0.235
	c0.069,0.002,0.138,0.003,0.205,0.003c1.624,0,2.739-0.561,3.549-1.329C19.065,9.329,19.59,8.183,20,7.28
	c0.901-1.985,1.552-3.419,5.059-3.419c2.256,0,8.208,2.127,14.261,5.687c1.133,0.666,2.151,1.319,3.08,1.955
	c2.834,1.942,4.732,3.713,5.782,5.136c0.676,0.916,1.009,1.689,1.009,2.266c0,2.073-3.421,4.933-19.722,6.793
	c-2.306,0.263-2.811,0.328-3.306,0.59c-0.226,0.12-0.434,0.256-0.63,0.402c-0.81,0.597-1.371,1.401-1.755,2.352
	c-0.998,2.472-0.77,5.951-0.379,9.505c0.059,0.538,0.121,1.077,0.183,1.616c0.456,3.928,1.022,8.816-0.372,10.382
	c-0.222,0.25-0.639,0.581-1.692,0.581c-2.272,0-3.792-0.498-4.646-1.522c-1.83-2.193-0.929-7.13-0.134-11.487
	c0.017-0.096,0.035-0.192,0.052-0.288c0.64-3.515,1.222-6.881,0.547-9.427c-0.282-1.061-0.792-1.974-1.598-2.701
	c-0.113-0.102-0.221-0.207-0.346-0.301c-0.54-0.406-1.459-0.827-3.173-1.596c-1.802-0.809-7.288-3.271-7.802-4.513
	c-0.055-0.247-0.102-0.481-0.148-0.713c-0.265-1.335-0.387-2.432-0.409-3.334C3.813,13.305,4.221,12.261,4.667,11.704z
	 M62.304,70.148c-3.299,0-6.596,0-9.895,0V39.292c3.299,0,6.596,0,9.895,0C62.304,49.578,62.304,59.863,62.304,70.148z"/>
</svg>
