<?xml version="1.0" encoding="utf-8"?>
<!-- Generator: Adobe Illustrator 14.0.0, SVG Export Plug-In . SVG Version: 6.00 Build 43363)  -->
<!DOCTYPE svg PUBLIC "-//W3C//DTD SVG 1.0//EN" "http://www.w3.org/TR/2001/REC-SVG-20010904/DTD/svg10.dtd">
<svg version="1.0" id="Layer_1" xmlns="http://www.w3.org/2000/svg" xmlns:xlink="http://www.w3.org/1999/xlink" x="0px" y="0px"
	 width="53.662px" height="99.992px" viewBox="0 0 53.662 99.992" enable-background="new 0 0 53.662 99.992" xml:space="preserve">
<path id="path2239" d="M3.119,97.724c-6.227-5.594-2.82-14.707,7.457-19.948c3.43-1.75,5.959-2.509,10.482-2.373
	c2.743,0.069,5.898,1.652,5.898,1.652c0-20.119-0.074-58.257-0.074-77.055c1.114,0.006,1.826-0.009,3.386-0.009
	c0,1.107-0.013,1.9-0.013,2.882c0,0.956,0.067,1.576,0.158,2.175c1.08,7.021,2.651,9.783,10.499,18.458
	c9.927,10.971,12.808,17.579,12.75,26.355c-0.055,8.231-7.296,25.864-8.944,25.135c2.29-6.17,5.379-12.825,6.199-18.395
	c1.003-6.804-1.762-16.409-6.21-21.477c-3.66-4.167-12.087-7.894-14.385-7.894c0,0-0.098,40.528-0.098,55.895
	c0,2.647-2.397,7.13-3.748,8.745C20.318,99.226,8.499,102.556,3.119,97.724z"/>
</svg>
