<?xml version="1.0" encoding="utf-8"?>
<!-- Generator: Adobe Illustrator 14.0.0, SVG Export Plug-In . SVG Version: 6.00 Build 43363)  -->
<!DOCTYPE svg PUBLIC "-//W3C//DTD SVG 1.0//EN" "http://www.w3.org/TR/2001/REC-SVG-20010904/DTD/svg10.dtd">
<svg version="1.0" id="Layer_1" xmlns="http://www.w3.org/2000/svg" xmlns:xlink="http://www.w3.org/1999/xlink" x="0px" y="0px"
	 width="100px" height="64.12px" viewBox="0 0 100 64.12" enable-background="new 0 0 100 64.12" xml:space="preserve">
<g>
	<path d="M86.634,37.402c-7.38,0-13.365,5.985-13.365,13.378c0,7.367,5.985,13.34,13.365,13.34c7.393,0,13.365-5.973,13.365-13.34
		C100,43.388,94.027,37.402,86.634,37.402z"/>
	<path d="M86.634,50.78"/>
</g>
<path d="M9.975,53.567c1.326,5.986,6.665,10.666,13.042,10.666c6.459,0,11.848-4.58,13.098-10.666H9.975z"/>
<path d="M23.017,50.88"/>
<path d="M86.634,50.78"/>
<path d="M98.407,36.618C96.03,25.892,85.34,27.11,85.34,27.11l-3.235-10.466c-0.112-0.436,0.535-0.647,0.535-0.647l5.513-1.63
	l-0.76-7.766L80.91,6.054c-1.842,0.225-2.265-1.518-2.265-1.518l-0.759-2.701c-0.535-2.053-2.377-1.828-2.377-1.828H62.666
	c-1.842,1.406,0.324,2.488,0.324,2.488h7.877c0.76-0.125,1.183,0.76,1.183,0.76l4.331,26.021
	c-9.732,6.483-11.35,14.037-11.35,14.037H50.345c-9.177-6.92-5.077-16.85-5.077-16.85h3.56v-7.219H2.067v7.219h7.131
	c-9.938,9.508-9.185,23.545-9.185,23.545h69.224c0.398-9.259,8.039-16.65,17.397-16.65c4.206,0,8.064,1.492,11.076,3.981
	C97.71,37.34,98.73,38.087,98.407,36.618z"/>
<path d="M86.634,50.78"/>
<g>
	<path d="M25.451,22.854"/>
</g>
</svg>
