<?xml version="1.0" encoding="utf-8"?>
<!-- Generator: Adobe Illustrator 14.0.0, SVG Export Plug-In . SVG Version: 6.00 Build 43363)  -->
<!DOCTYPE svg PUBLIC "-//W3C//DTD SVG 1.0//EN" "http://www.w3.org/TR/2001/REC-SVG-20010904/DTD/svg10.dtd">
<svg version="1.0" id="Layer_1" xmlns="http://www.w3.org/2000/svg" xmlns:xlink="http://www.w3.org/1999/xlink" x="0px" y="0px"
	 width="100px" height="53.667px" viewBox="0 0 100 53.667" enable-background="new 0 0 100 53.667" xml:space="preserve">
<path d="M84.981,0H15.319c-1.391,0-2.517,1.127-2.517,2.518v42.804c0,1.392,1.126,2.52,2.517,2.52h69.663
	c1.394,0,2.52-1.128,2.52-2.52V2.518C87.501,1.127,86.375,0,84.981,0z M84.214,44.904H16.089V2.938h68.125V44.904z"/>
<path d="M56.972,49.486v0.473c0,0.521-0.426,0.944-0.946,0.944h-11.75c-0.521,0-0.944-0.423-0.944-0.944v-0.473H0v2.519
	c0,0,2.138,1.618,3.227,1.661v0.001h93.479v-0.006C97.77,53.69,100,52.005,100,52.005v-2.519H56.972z"/>
</svg>
