<?xml version="1.0" encoding="utf-8"?>
<!-- Generator: Adobe Illustrator 14.0.0, SVG Export Plug-In . SVG Version: 6.00 Build 43363)  -->
<!DOCTYPE svg PUBLIC "-//W3C//DTD SVG 1.0//EN" "http://www.w3.org/TR/2001/REC-SVG-20010904/DTD/svg10.dtd">
<svg version="1.0" id="Layer_1" xmlns="http://www.w3.org/2000/svg" xmlns:xlink="http://www.w3.org/1999/xlink" x="0px" y="0px"
	 width="100px" height="50.561px" viewBox="0 0 100 50.561" enable-background="new 0 0 100 50.561" xml:space="preserve">
<circle cx="24.565" cy="42.961" r="7.282"/>
<circle cx="81.767" cy="42.961" r="7.282"/>
<g>
	<path d="M99.154,40.153h-0.589c-0.369,0-0.671-0.301-0.671-0.67V25.762c0-0.45-0.334-0.962-0.746-1.144l-6.493-2.855
		c-0.356-0.156-0.752-0.603-0.865-0.975L84.619,3.702c-0.118-0.394-0.216-1.047-0.216-1.458V0.846C84.403,0.371,84.17,0,83.875,0
		H2.951C2.485,0,2.105,0.379,2.105,0.846v38.638c0,0.369-0.301,0.67-0.67,0.67H0.846C0.379,40.153,0,40.533,0,40.999v2.986
		c0,0.467,0.379,0.846,0.846,0.846h13.389c0.228,0,0.43-0.089,0.571-0.25c0.14-0.162,0.2-0.375,0.168-0.601
		c0-0.004-0.059-0.425-0.059-1.02c0-5.321,4.329-9.651,9.65-9.651s9.651,4.33,9.651,9.651c0,0.595-0.059,1.016-0.059,1.02
		c-0.032,0.226,0.028,0.438,0.168,0.601c0.14,0.161,0.343,0.25,0.57,0.25h36.541c0.228,0,0.43-0.089,0.57-0.25
		c0.141-0.162,0.2-0.375,0.168-0.601c0-0.004-0.059-0.425-0.059-1.02c0-5.321,4.329-9.651,9.65-9.651s9.651,4.33,9.651,9.651
		c0,0.595-0.059,1.016-0.06,1.02c-0.032,0.226,0.028,0.438,0.169,0.601c0.14,0.161,0.343,0.25,0.57,0.25h7.057
		c0.467,0,0.847-0.379,0.847-0.846v-2.986C100,40.533,99.621,40.153,99.154,40.153z M12.105,13.888
		c-0.004,0.624-0.575,1.295-1.315,1.295v10.575c0,1.506-2.047,1.506-2.05,0V15.184c-0.718,0-1.346-0.556-1.344-1.384V7.972
		c-0.001-0.506,0.731-0.525,0.735,0.02v4.307H8.74V7.953c0-0.465,0.705-0.495,0.707,0.02v4.326h0.627V7.962
		c0.005-0.49,0.69-0.51,0.687,0.02v4.316h0.627V7.962c-0.001-0.485,0.713-0.505,0.717,0.02V13.888z M24.956,26.889
		c-5.33,0-9.65-4.321-9.65-9.65c0-5.33,4.32-9.65,9.65-9.65s9.65,4.32,9.65,9.65C34.606,22.568,30.285,26.889,24.956,26.889z
		 M41.734,25.793c0.003,1.472-2.053,1.449-2.055,0v-6.54h-1.092V9.322c-0.001-2.312,3.149-2.312,3.146,0V25.793z M78.784,22.408
		c0,0.745-0.606,1.352-1.351,1.352H67.092c-0.745,0-1.352-0.606-1.352-1.352v-10.34c0-0.745,0.606-1.351,1.352-1.351h10.341
		c0.744,0,1.351,0.606,1.351,1.351V22.408z M87.559,20.692c-0.188,0.252-0.491,0.391-0.856,0.391H83.03
		c-0.745,0-1.351-0.606-1.351-1.351v-7.664c0-0.745,0.605-1.351,1.351-1.351h0.603c0.733,0,1.501,0.571,1.712,1.272l2.342,7.771
		C87.792,20.109,87.747,20.439,87.559,20.692z"/>
	<circle cx="24.956" cy="17.238" r="7.6"/>
</g>
<circle cx="24.565" cy="42.961" r="7.6"/>
<circle cx="81.767" cy="42.961" r="7.6"/>
</svg>
