<?xml version="1.0" encoding="utf-8"?>
<!-- Generator: Adobe Illustrator 14.0.0, SVG Export Plug-In . SVG Version: 6.00 Build 43363)  -->
<!DOCTYPE svg PUBLIC "-//W3C//DTD SVG 1.0//EN" "http://www.w3.org/TR/2001/REC-SVG-20010904/DTD/svg10.dtd">
<svg version="1.0" id="Layer_1" xmlns="http://www.w3.org/2000/svg" xmlns:xlink="http://www.w3.org/1999/xlink" x="0px" y="0px"
	 width="100px" height="53.75px" viewBox="0 0 100 53.75" enable-background="new 0 0 100 53.75" xml:space="preserve">
<path d="M100,22.067L91.215,7.209H75.193V0H0v44.274h12.398c-0.028,0.283-0.043,0.571-0.043,0.861c0,4.758,3.856,8.614,8.614,8.614
	s8.614-3.856,8.614-8.614c0-0.29-0.015-0.578-0.043-0.861h3.833v3.618h38.072v-3.618h3.748h0.774
	c-0.028,0.283-0.043,0.571-0.043,0.861c0,4.758,3.856,8.614,8.613,8.614c4.758,0,8.614-3.856,8.614-8.614
	c0-0.29-0.016-0.578-0.043-0.861H100V22.067z M76.916,21.723V9.917h12.721l6.918,11.805H76.916z"/>
</svg>
