<?xml version="1.0" encoding="utf-8"?>
<!-- Generator: Adobe Illustrator 14.0.0, SVG Export Plug-In . SVG Version: 6.00 Build 43363)  -->
<!DOCTYPE svg PUBLIC "-//W3C//DTD SVG 1.1//EN" "http://www.w3.org/Graphics/SVG/1.1/DTD/svg11.dtd">
<svg version="1.1" id="Layer_1" xmlns="http://www.w3.org/2000/svg" xmlns:xlink="http://www.w3.org/1999/xlink" x="0px" y="0px"
	 width="99.828px" height="75.003px" viewBox="0 0 99.828 75.003" enable-background="new 0 0 99.828 75.003" xml:space="preserve">
<path d="M96.308,0c-5.196,0-10.393,0-15.589,0c-1.675,0-3.005,1.121-3.509,2.67c-5.215,16.048-10.43,32.094-15.646,48.141
	c-19.367,0-38.734,0-58.101,0c-4.691,0.001-4.691,7.276,0,7.276c20.247,0,40.494,0,60.741,0c1.676,0,3.004-1.121,3.508-2.672
	c5.215-16.047,10.431-32.094,15.646-48.142c4.317,0,8.634,0,12.95,0C101,7.275,101,0,96.308,0z"/>
<path d="M69.632,0C47.577,0,25.521,0,3.464,0C1.481,0-0.173,1.654-0.173,3.637c0,13.522,0,27.045,0,40.567
	c0,1.07,0.39,1.885,0.975,2.467c0.029,0.034,0.063,0.065,0.094,0.1c0.035,0.032,0.067,0.066,0.103,0.097
	c0.582,0.584,1.396,0.974,2.465,0.974c17.668,0,35.336,0,53.004,0c1.674,0,3.005-1.12,3.508-2.67
	c4.388-13.522,8.775-27.044,13.165-40.566C73.876,2.336,71.917,0,69.632,0z M53.827,40.568c-15.574,0-31.149,0-46.725,0
	c0-11.098,0-22.195,0-33.293c19.176,0,38.353,0,57.528,0C61.03,18.373,57.428,29.47,53.827,40.568z"/>
<circle cx="6.351" cy="68.651" r="6.351"/>
<circle cx="61.433" cy="68.651" r="6.351"/>
</svg>
