<?xml version="1.0" encoding="utf-8"?>
<!-- Generator: Adobe Illustrator 14.0.0, SVG Export Plug-In . SVG Version: 6.00 Build 43363)  -->
<!DOCTYPE svg PUBLIC "-//W3C//DTD SVG 1.0//EN" "http://www.w3.org/TR/2001/REC-SVG-20010904/DTD/svg10.dtd">
<svg version="1.0" id="Layer_1" xmlns="http://www.w3.org/2000/svg" xmlns:xlink="http://www.w3.org/1999/xlink" x="0px" y="0px"
	 width="100px" height="78.533px" viewBox="0 0 100 78.533" enable-background="new 0 0 100 78.533" xml:space="preserve">
<path d="M73.238,30.764c-4.788-1.308-10.19-2.336-16.186-3.006c-23.944-2.677-18.245,24.918-44.037,27.875V16.722l25.683-8.361
	L13.016,0h-2.219v55.821C4.821,55.9,0,60.767,0,66.761c0,6.045,4.917,10.5,10.945,10.945
	C107.506,84.835,121.012,43.822,73.238,30.764z M11.906,74.055c-4.855,0-8.791-3.267-8.791-7.297c0-3.718,3.351-6.783,7.681-7.236
	v7.236h2.219v-7.236c4.331,0.453,7.681,3.519,7.681,7.236C20.697,70.789,16.761,74.055,11.906,74.055z"/>
</svg>
