<?xml version="1.0" encoding="utf-8"?>
<!-- Generator: Adobe Illustrator 14.0.0, SVG Export Plug-In . SVG Version: 6.00 Build 43363)  -->
<!DOCTYPE svg PUBLIC "-//W3C//DTD SVG 1.0//EN" "http://www.w3.org/TR/2001/REC-SVG-20010904/DTD/svg10.dtd">
<svg version="1.0" id="Layer_1" xmlns="http://www.w3.org/2000/svg" xmlns:xlink="http://www.w3.org/1999/xlink" x="0px" y="0px"
	 width="100px" height="78.965px" viewBox="0 0 100 78.965" enable-background="new 0 0 100 78.965" xml:space="preserve">
<path d="M39.417,69.017c0-6.798,5.51-12.309,12.308-12.309s12.309,5.511,12.309,12.309c0,1.655-0.329,3.232-0.921,4.674h15.553
	c-0.593-1.441-0.921-3.019-0.921-4.674c0-6.798,5.51-12.309,12.308-12.309c3.255,0,6.212,1.266,8.413,3.329v-0.68V4.207V3.893V0
	h-34.12c-1.736,0-3.271,1.299-6.835,8.401c-1.951,3.887-4.379,9.291-7.217,16.063c-2.806,6.695-6.787,16.788-9.629,24.068V0h-7.011
	v34.028H0v39.663h33.653h6.686C39.746,72.25,39.417,70.672,39.417,69.017z M44.969,49.195C52.576,29.051,61.936,7.118,64.847,4.207
	h29.412v37.267c-0.153-0.02-0.309-0.033-0.468-0.033H73.304c-2.065,0-3.739,1.675-3.739,3.739v4.519H44.708L44.969,49.195z"/>
<circle cx="51.725" cy="69.017" r="9.947"/>
<circle cx="90.053" cy="69.017" r="9.948"/>
<path d="M85.303,40.351H71.747v-4.207h10.124c0.839-4.094,2.918-14.251,2.938-14.351l4.165,0.42c0,0.214,0,0.214-3.327,16.457
	L85.303,40.351L85.303,40.351z"/>
</svg>
