<?xml version="1.0" encoding="utf-8"?>
<!-- Generator: Adobe Illustrator 14.0.0, SVG Export Plug-In . SVG Version: 6.00 Build 43363)  -->
<!DOCTYPE svg PUBLIC "-//W3C//DTD SVG 1.0//EN" "http://www.w3.org/TR/2001/REC-SVG-20010904/DTD/svg10.dtd">
<svg version="1.0" id="Layer_1" xmlns="http://www.w3.org/2000/svg" xmlns:xlink="http://www.w3.org/1999/xlink" x="0px" y="0px"
	 width="100px" height="86.275px" viewBox="0 0 100 86.275" enable-background="new 0 0 100 86.275" xml:space="preserve">
<path d="M88.596,48.665L88.596,48.665L88.596,48.665L88.596,48.665L88.596,48.665L88.596,48.665L88.596,48.665L88.596,48.665
	L88.596,48.665L88.596,48.665L88.596,48.665L88.596,48.665L88.596,48.665L88.596,48.665L88.596,48.665L88.596,48.665L88.596,48.665
	L88.596,48.665L88.596,48.665L88.596,48.665z M88.596,48.665L88.596,48.665L88.596,48.665L88.596,48.665L88.596,48.665
	L88.596,48.665L88.596,48.665L88.596,48.665L88.596,48.665L88.596,48.665L88.596,48.665z M88.596,48.665L88.596,48.665
	L88.596,48.665L88.596,48.665L88.596,48.665L88.596,48.665L88.596,48.665z M88.596,48.665L88.596,48.665L88.596,48.665
	L88.596,48.665L88.596,48.665z M88.596,48.665L88.596,48.665L88.596,48.665L88.596,48.665L88.596,48.665z"/>
<g>
	<path d="M88.596,48.665c2.456,8.944,5.832,12.116,10.081,20.77c4.122,8.399-1.987,16.842-10.081,16.842
		c-8.091,0-14.201-8.441-10.076-16.842C82.764,60.781,86.143,57.61,88.596,48.665z"/>
</g>
<path d="M65.794,16.046H37.748v-8.77c4.196,0,8.389,0,12.583,0c4.692,0,4.692-7.276,0-7.276C38.708,0,27.086,0,15.463,0
	c-4.692,0-4.692,7.276,0,7.276c4.194,0,8.387,0,12.583,0v8.77H0v19.405h65.794c4.259,0,8.154,1.556,11.17,4.118h23.034
	C94.691,25.833,81.381,16.046,65.794,16.046z"/>
</svg>
