<?xml version="1.0" encoding="utf-8"?>
<!-- Generator: Adobe Illustrator 14.0.0, SVG Export Plug-In . SVG Version: 6.00 Build 43363)  -->
<!DOCTYPE svg PUBLIC "-//W3C//DTD SVG 1.0//EN" "http://www.w3.org/TR/2001/REC-SVG-20010904/DTD/svg10.dtd">
<svg version="1.0" id="Layer_1" xmlns="http://www.w3.org/2000/svg" xmlns:xlink="http://www.w3.org/1999/xlink" x="0px" y="0px"
	 width="100px" height="84.923px" viewBox="0 0 100 84.923" enable-background="new 0 0 100 84.923" xml:space="preserve">
<path d="M50.29,42.212"/>
<path d="M50.29,42.212"/>
<path d="M50.29,42.212"/>
<path fill-rule="evenodd" clip-rule="evenodd" d="M72.672,78.462c-0.675,0.917-0.988,1.109-1.832,2.291
	c-1.399,1.81,0.385,4.559,1.277,4.124c1.037-0.385,1.713-2.459,2.846-3.135c0.58-0.314,2.123-2.581,3.57-4.125
	c1.061-1.205,1.833-1.736,2.846-2.99c1.713-2.123,2.074-3.738,3.57-6.006c0.916-1.182,1.567-1.543,2.411-2.99
	c4.462-8.441,3.159-12.229,7.429-18.258c1.303-1.785,2.773-2.219,4.848-3.28c1.93-14.062-4.462-21.924-4.414-21.948
	c-5.378,3.135-8.271,4.414-13.844,4.125c-2.098-0.024-3.207-0.917-5.281-0.724c-1.93,0.072-2.919,0.796-4.849,1.447
	c-2.966,0.917-4.583,1.737-7.694,2.702c-1.977,0.555-3.231,0.579-5.281,1.278c-1.761,0.748-0.916,0.145-2.146,1.567
	c-1.592,1.761-1.206,3.136-2.701,6.15c-1.857,3.956-1.641,4.486-0.579,4.968c-0.7,2.026-0.868,3.377-0.7,5.572
	c0.193,1.664-0.506,2.821,1.279,4.148c2.436,1.809,7.549,6.053,8.852,6.125c1.953-0.072,7.646,0.145,10.539-1.856
	c0.652-0.41,0.845-0.82,0.29,0.724c-0.12,0.193-7.212,5.716-7.983,5.691c-9.021,0.29-6.006,0.797-6.561,0.579
	c-0.458,0-4.799-5.306-7.428-3.425c-0.989,0.604-1.447,1.182-1.834,2.268c0.338,0.699,1.93,1.809,3.4,2.725
	c2.123,1.352,2.316,2.773,4.438,3.281c2.581,0.578,5.331,0.192,6.97,0.409c0.628,0.169,6.32-1.495,9.865-3.4
	c3.28-1.688-4.51,3.256-6.416,5.692c-5.74,1.809-4.124,1.881-6.85,2.436c-2.532,0.578-2.412,0.434-4.148,0.988
	c-1.785,0.435-3.256,2.871-1.567,4.148c1.013,0.845,4.173-0.337,7.284-0.434c1.375-0.023,6.994-2.605,8.272-3.28
	c3.184-1.712,5.522-4.076,7.404-5.427C80.559,68.815,75.012,75.616,72.672,78.462L72.672,78.462z M55.283,43.803
	c1.904,1.52,2.869,6.055,2.846,6.006c3.497,1.109,5.716,3.425,5.716,3.425c5.378-2.991,5.499-1.64,7.839-3.425
	c1.93-1.326,1.832-1.736,2.846-5.281c0.941-2.871-2.388-2.605-5.137-7.839c-4.775,1.809-7.357,0.989-8.973,0.844
	C59.696,37.437,59.816,40.354,55.283,43.803L55.283,43.803z"/>
<path fill-rule="evenodd" clip-rule="evenodd" d="M27.329,6.588c0.675-0.965,0.989-1.158,1.856-2.291
	c1.352-1.857-0.41-4.607-1.277-4.269c-1.062,0.482-1.736,2.556-3.016,3.28c-0.458,0.266-2.002,2.533-3.424,4.125
	c-1.062,1.158-1.834,1.688-2.847,3.015c-1.736,2.05-2.074,3.666-3.569,5.837c-0.916,1.302-1.592,1.64-2.412,3.135
	C8.179,27.813,9.457,31.6,5.212,37.533c-1.302,1.905-2.773,2.315-4.848,3.425c-1.93,14.037,4.438,21.876,4.413,21.828
	c5.379-3.063,8.249-4.342,13.845-4.148c2.099,0.12,3.208,1.012,5.282,0.867c1.93-0.12,2.918-0.844,4.848-1.422
	c2.967-0.989,4.582-1.81,7.549-2.727c2.123-0.603,3.377-0.627,5.428-1.422c1.76-0.652,0.916-0.049,2.146-1.424
	c1.567-1.809,1.205-3.184,2.557-6.126c2.002-4.028,1.784-4.559,0.723-4.993c0.676-2.074,0.869-3.4,0.699-5.571
	c-0.217-1.688,0.507-2.87-1.277-4.125c-2.437-1.881-7.55-6.126-8.828-6.15c-1.978,0.024-7.67-0.193-10.564,1.712
	c-0.65,0.506-0.844,0.917-0.289-0.555c0.121-0.266,7.212-5.789,7.983-5.861c9.021-0.193,6.006-0.7,6.561-0.434
	c0.458-0.048,4.8,5.258,7.429,3.425c0.965-0.651,1.447-1.23,1.857-2.267c-0.362-0.748-1.954-1.857-3.426-2.702
	c-2.122-1.423-2.339-2.846-4.438-3.304c-2.58-0.627-5.354-0.241-6.971-0.555c-0.627-0.072-6.318,1.592-9.84,3.425
	c-3.328,1.761,4.486-3.184,6.416-5.716c5.716-1.712,4.076-1.785,6.85-2.412c2.508-0.506,2.387-0.362,4.124-0.868
	c1.761-0.482,3.256-2.895,1.567-4.269c-1.037-0.772-4.172,0.41-7.26,0.434C36.35,5.696,30.729,8.277,29.451,9
	c-3.184,1.664-5.523,4.028-7.404,5.282C19.418,16.188,24.989,9.41,27.329,6.588L27.329,6.588z M44.719,41.247
	c-1.906-1.568-2.87-6.102-2.846-6.126c-3.498-1.037-5.717-3.353-5.717-3.28c-5.379,2.918-5.523,1.568-7.838,3.28
	c-1.954,1.399-1.834,1.833-2.847,5.258c-0.94,2.991,2.364,2.702,5.138,7.863c4.775-1.737,7.355-0.917,8.972-0.724
	C40.305,47.567,40.184,44.648,44.719,41.247L44.719,41.247z"/>
</svg>
