<?xml version="1.0" encoding="utf-8"?>
<!-- Generator: Adobe Illustrator 14.0.0, SVG Export Plug-In . SVG Version: 6.00 Build 43363)  -->
<!DOCTYPE svg PUBLIC "-//W3C//DTD SVG 1.0//EN" "http://www.w3.org/TR/2001/REC-SVG-20010904/DTD/svg10.dtd">
<svg version="1.0" id="Layer_1" xmlns="http://www.w3.org/2000/svg" xmlns:xlink="http://www.w3.org/1999/xlink" x="0px" y="0px"
	 width="100px" height="16.205px" viewBox="0 0 100 16.205" enable-background="new 0 0 100 16.205" xml:space="preserve">
<path d="M97.537,0H23.153C12.803,0,6.93,2.372,4.05,5.068c-3.191,2.989-3.853,5.998-3.879,6.125L0,12.007l0.812,0.181
	c0.18,0.04,18.388,4.016,50.48,4.017c0.002,0,0.003,0,0.005,0c3.461,0,7.01-0.046,10.55-0.138l0.725-0.019l0.817-6.584
	c0.718-0.874,1.456-2.015,2.085-1.816c8.699,2.753,18.521,2.753,27.292,0c0.957-0.3,2.407,2.461,3.368,2.175
	C103.921,7.507,97.537,0,97.537,0z M51.297,14.521c-0.002,0-0.003,0-0.005,0c-27.871,0-45.171-3.008-49.205-3.792
	c0.994-2.495,4.935-9.396,21.066-9.045H58.72l0.268,0.234c0.301,2.629,1.038,7.152,2.616,8.257l-0.525,4.227
	C57.794,14.48,54.508,14.521,51.297,14.521z M66.653,5.411c-0.8,0-1.448-0.648-1.448-1.448c0-0.8,0.648-1.448,1.448-1.448
	s1.448,0.648,1.448,1.448C68.102,4.763,67.453,5.411,66.653,5.411z M79.213,5.411c-0.801,0-1.448-0.648-1.448-1.448
	c0-0.8,0.648-1.448,1.448-1.448c0.799,0,1.447,0.648,1.447,1.448C80.66,4.763,80.012,5.411,79.213,5.411z M91.771,5.411
	c-0.8,0-1.448-0.648-1.448-1.448c0-0.8,0.648-1.448,1.448-1.448s1.447,0.648,1.447,1.448C93.219,4.763,92.571,5.411,91.771,5.411z"
	/>
</svg>
