<?xml version="1.0" encoding="utf-8"?>
<!-- Generator: Adobe Illustrator 14.0.0, SVG Export Plug-In . SVG Version: 6.00 Build 43363)  -->
<!DOCTYPE svg PUBLIC "-//W3C//DTD SVG 1.1//EN" "http://www.w3.org/Graphics/SVG/1.1/DTD/svg11.dtd">
<svg version="1.1" id="Layer_1" xmlns="http://www.w3.org/2000/svg" xmlns:xlink="http://www.w3.org/1999/xlink" x="0px" y="0px"
	 width="100px" height="100px" viewBox="0 0 100 100" enable-background="new 0 0 100 100" xml:space="preserve">
<path d="M32.836,51.489c-2.532,0-4.575,2.05-4.575,4.574v23.259c0,2.526,2.044,4.575,4.575,4.575h3.666V51.488L32.836,51.489
	L32.836,51.489z"/>
<path d="M70.25,51.489c2.521,0,4.57,2.05,4.57,4.574v23.259c0,2.526-2.049,4.575-4.57,4.575h-3.67V51.488L70.25,51.489L70.25,51.489
	z"/>
<path d="M57.693,51.489v-4.881c0-0.728-0.531-1.317-1.191-1.317h-9.85c-0.66,0-1.191,0.59-1.191,1.317v4.881h-7.11v32.41h26.453
	v-32.41H57.693z M47.293,48.361c0-0.694,0.375-1.261,0.836-1.261h6.896c0.463,0,0.838,0.564,0.838,1.261v3.127h-8.57V48.361z"/>
<path d="M74.336,6.462H47.777C45.589,2.608,41.454,0,36.704,0C29.67,0,23.97,5.704,23.97,12.735s5.701,12.732,12.734,12.732
	c4.253,0,8.011-2.093,10.322-5.298h4.027l0.609-1.922c0.273-1.304,1.428-2.283,2.811-2.283c1.385,0,2.539,0.979,2.814,2.283h2.09
	c0.27-1.304,1.426-2.283,2.811-2.283c1.387,0,2.539,0.979,2.814,2.283h2.09c0.275-1.304,1.428-2.283,2.811-2.283
	c1.387,0,2.541,0.979,2.812,2.283h1.617l4.848-5.892L74.336,6.462z M30.387,16.581c-2.126,0-3.849-1.721-3.849-3.848
	c0-2.125,1.723-3.85,3.849-3.85c2.127,0,3.848,1.723,3.848,3.85C34.234,14.861,32.513,16.581,30.387,16.581z"/>
<path d="M90.482,98.313H11.766V29.892h78.717V98.313L90.482,98.313z M19.749,90.332h62.753V37.876H19.749V90.332L19.749,90.332z"/>
</svg>
