<?xml version="1.0" encoding="utf-8"?>
<!-- Generator: Adobe Illustrator 14.0.0, SVG Export Plug-In . SVG Version: 6.00 Build 43363)  -->
<!DOCTYPE svg PUBLIC "-//W3C//DTD SVG 1.0//EN" "http://www.w3.org/TR/2001/REC-SVG-20010904/DTD/svg10.dtd">
<svg version="1.0" id="Layer_1" xmlns="http://www.w3.org/2000/svg" xmlns:xlink="http://www.w3.org/1999/xlink" x="0px" y="0px"
	 width="100px" height="41.463px" viewBox="0 0 100 41.463" enable-background="new 0 0 100 41.463" xml:space="preserve">
<polygon points="95.884,6.301 95.884,0 88.974,0 88.974,6.301 81.741,6.301 81.741,0 74.831,0 74.831,6.301 67.598,6.301 67.598,0 
	60.688,0 60.688,6.301 53.455,6.301 53.455,0 46.545,0 46.545,6.301 39.312,6.301 39.312,0 32.402,0 32.402,6.301 25.169,6.301 
	25.169,0 18.259,0 18.259,6.301 11.026,6.301 11.026,0 4.116,0 4.116,6.301 0,6.301 0,8.028 4.116,8.028 11.026,8.028 18.259,8.028 
	25.169,8.028 32.402,8.028 39.312,8.028 46.545,8.028 53.455,8.028 60.688,8.028 67.598,8.028 74.831,8.028 81.741,8.028 
	88.974,8.028 95.884,8.028 100,8.028 100,6.301 "/>
<path d="M88.974,9.857h-7.232h-6.91h-7.233h-6.91h-7.232h-6.91h-7.232h-6.911h-7.232h-6.911h-7.232H4.116H0v1.728h4.116v9.146v9.146
	H0v1.728h4.116h6.911h7.232h6.911h7.232h6.911h7.232h6.91h7.232h6.91h7.233h6.91h7.232h6.91H100v-1.728h-4.116v-9.146v-9.146H100
	V9.857h-4.116H88.974z M11.026,29.878v-9.146v-9.146h7.232v9.146v9.146H11.026z M25.169,29.878v-9.146v-9.146h7.232v9.146v9.146
	H25.169z M39.312,29.878v-9.146v-9.146h7.232v9.146v9.146H39.312z M53.455,29.878v-9.146v-9.146h7.232v9.146v9.146H53.455z
	 M67.598,29.878v-9.146v-9.146h7.233v9.146v9.146H67.598z M81.741,29.878v-9.146v-9.146h7.232v9.146v9.146H81.741z"/>
<polygon points="88.974,33.435 81.741,33.435 74.831,33.435 67.598,33.435 60.688,33.435 53.455,33.435 46.545,33.435 
	39.312,33.435 32.402,33.435 25.169,33.435 18.259,33.435 11.026,33.435 4.116,33.435 0,33.435 0,35.162 4.116,35.162 4.116,41.463 
	11.026,41.463 11.026,35.162 18.259,35.162 18.259,41.463 25.169,41.463 25.169,35.162 32.402,35.162 32.402,41.463 39.312,41.463 
	39.312,35.162 46.545,35.162 46.545,41.463 53.455,41.463 53.455,35.162 60.688,35.162 60.688,41.463 67.598,41.463 67.598,35.162 
	74.831,35.162 74.831,41.463 81.741,41.463 81.741,35.162 88.974,35.162 88.974,41.463 95.884,41.463 95.884,35.162 100,35.162 
	100,33.435 95.884,33.435 "/>
</svg>
