<?xml version="1.0" encoding="utf-8"?>
<!-- Generator: Adobe Illustrator 14.0.0, SVG Export Plug-In . SVG Version: 6.00 Build 43363)  -->
<!DOCTYPE svg PUBLIC "-//W3C//DTD SVG 1.0//EN" "http://www.w3.org/TR/2001/REC-SVG-20010904/DTD/svg10.dtd">
<svg version="1.0" id="Layer_1" xmlns="http://www.w3.org/2000/svg" xmlns:xlink="http://www.w3.org/1999/xlink" x="0px" y="0px"
	 width="100px" height="100px" viewBox="0 0 100 100" enable-background="new 0 0 100 100" xml:space="preserve">
<path d="M12.443,75.139L0,97.266l1.368,1.367L2.735,100l22.127-12.442l2.251,2.251l51.824-51.824L100,16.923
	c-0.492-4.048-2.287-7.968-5.394-11.075c-0.076-0.076-0.155-0.147-0.232-0.222C94.3,5.549,94.229,5.47,94.153,5.395
	C91.046,2.287,87.126,0.493,83.078,0L62.016,21.062L10.191,72.887L12.443,75.139z M82.312,5.27c2.85,0.851,5.537,2.391,7.805,4.614
	c2.224,2.268,3.764,4.955,4.614,7.805l-7.907,7.908c-0.881-2.832-2.438-5.498-4.68-7.74c-2.242-2.242-4.909-3.799-7.74-4.68
	L82.312,5.27z M39.965,47.615c0.141,0.042,0.278,0.093,0.417,0.138l-0.278-0.278l18.444-18.444l3.933-3.932l3.976-3.976
	c2.908,0.868,5.649,2.45,7.945,4.746c2.188,2.188,3.723,4.78,4.613,7.534l-3.713,3.714c-4.646,0.255-10.964,3.585-16.516,9.136
	c-5.552,5.552-8.882,11.869-9.136,16.516l-5.174,5.174c-0.881-2.832-2.438-5.498-4.68-7.74c-2.243-2.242-4.909-3.799-7.74-4.68
	L39.965,47.615z M24.111,63.47c2.85,0.852,5.537,2.392,7.805,4.614c2.223,2.269,3.764,4.955,4.614,7.806l-7.908,7.907
	c-0.88-2.831-2.438-5.497-4.68-7.739c-2.243-2.242-4.909-3.8-7.74-4.68L24.111,63.47z"/>
</svg>
