<?xml version="1.0" encoding="utf-8"?>
<!-- Generator: Adobe Illustrator 14.0.0, SVG Export Plug-In . SVG Version: 6.00 Build 43363)  -->
<!DOCTYPE svg PUBLIC "-//W3C//DTD SVG 1.0//EN" "http://www.w3.org/TR/2001/REC-SVG-20010904/DTD/svg10.dtd">
<svg version="1.0" id="Layer_1" xmlns="http://www.w3.org/2000/svg" xmlns:xlink="http://www.w3.org/1999/xlink" x="0px" y="0px"
	 width="51.775px" height="100px" viewBox="0 0 51.775 100" enable-background="new 0 0 51.775 100" xml:space="preserve">
<path d="M21.402,64.315c0,0.98,0.74,1.775,1.654,1.775h7.088c0.914,0,1.654-0.795,1.654-1.775v-2.366c0-0.98-0.74-1.774-1.654-1.774
	h-7.088c-0.914,0-1.654,0.794-1.654,1.774V64.315z"/>
<path d="M21.402,57.533c0,0.98,0.74,1.775,1.654,1.775h7.088c0.914,0,1.654-0.795,1.654-1.775v-2.366c0-0.98-0.74-1.774-1.654-1.774
	h-7.088c-0.914,0-1.654,0.794-1.654,1.774V57.533z"/>
<path d="M23.056,52.652h7.088c0.914,0,1.654-0.794,1.654-1.774v-2.367c0-0.98-0.74-1.774-1.654-1.774h-7.088
	c-0.914,0-1.654,0.794-1.654,1.774v2.367C21.402,51.858,22.142,52.652,23.056,52.652z"/>
<path d="M32.035,42.32c0-0.98-0.74-1.774-1.654-1.774h-7.088c-0.913,0-1.654,0.794-1.654,1.774v1.648
	c0,0.98,0.741,1.775,1.654,1.775h7.088c0.914,0,1.654-0.795,1.654-1.775V42.32z"/>
<path d="M32.035,75.873c0-0.98-0.74-1.774-1.654-1.774h-7.088c-0.913,0-1.654,0.794-1.654,1.774v1.648
	c0,0.979,0.741,1.774,1.654,1.774h7.088c0.914,0,1.654-0.795,1.654-1.774V75.873z"/>
<path d="M32.035,36.489c0-0.98-0.74-1.774-1.654-1.774h-6.242c-0.914,0-1.654,0.794-1.654,1.774v1.648
	c0,0.98,0.74,1.774,1.654,1.774h6.242c0.914,0,1.654-0.794,1.654-1.774V36.489z"/>
<path d="M32.035,30.319c0-0.98-0.74-1.775-1.654-1.775h-6.242c-0.914,0-1.654,0.794-1.654,1.775v1.648
	c0,0.98,0.74,1.775,1.654,1.775h6.242c0.914,0,1.654-0.794,1.654-1.775V30.319z"/>
<path d="M23.587,23.812v1.648c0,0.98,0.741,1.775,1.654,1.775h4.981c0.913,0,1.654-0.794,1.654-1.775v-1.648
	c0-0.98-0.741-1.775-1.654-1.775h-4.981C24.328,22.037,23.587,22.832,23.587,23.812z"/>
<path d="M29.869,20.516c0.914,0,1.654-0.794,1.654-1.775v-1.648c0-0.98-0.74-1.775-1.654-1.775h-3.839
	c-0.914,0-1.654,0.794-1.654,1.775v1.648c0,0.98,0.741,1.775,1.654,1.775H29.869z"/>
<path d="M21.402,71.246c0,0.98,0.74,1.775,1.654,1.775h7.088c0.914,0,1.654-0.795,1.654-1.775v-2.535c0-0.98-0.74-1.774-1.654-1.774
	h-7.088c-0.914,0-1.654,0.794-1.654,1.774V71.246z"/>
<path d="M29.436,9.973h-2.363c-0.914,0-1.654,0.795-1.654,1.775v0.93c0,0.98,0.74,1.774,1.654,1.774h2.363
	c0.913,0,1.653-0.794,1.653-1.774v-0.93C31.089,10.768,30.349,9.973,29.436,9.973z"/>
<path d="M28.963,9.128c0.913,0,1.653-0.795,1.653-1.775V6.846c0-0.98-0.74-1.775-1.653-1.775h-1.182
	c-0.914,0-1.654,0.794-1.654,1.775v0.507c0,0.98,0.741,1.775,1.654,1.775H28.963z"/>
<path d="M28.914,4.141h0.05c0.913,0,1.653-0.794,1.653-1.774V1.775c0-0.98-0.74-1.775-1.653-1.775h-0.05
	C28,0,27.26,0.794,27.26,1.775v0.592C27.26,3.347,28,4.141,28.914,4.141z"/>
<path d="M32.275,16.37c-0.473,0.789,0.027,3.79,0.223,4.146c0.485,0.888,4.032,1.85,4.755,1.172
	c0.646-0.605,0.114-3.318-0.354-4.088C36.391,16.766,33.325,14.621,32.275,16.37z"/>
<path d="M32.669,22.998c-0.474,0.789,0.352,3.88,0.547,4.237c0.485,0.888,4.089,1.25,4.812,0.572
	c0.645-0.605-0.008-2.864-0.477-3.634C37.044,23.338,33.718,21.249,32.669,22.998z"/>
<path d="M32.928,29.687c-0.473,0.789,0.093,3.416,0.288,3.772c0.485,0.888,4.653,0.96,5.375,0.283
	c0.646-0.605,0.175-2.695-0.294-3.465C37.791,29.443,33.977,27.938,32.928,29.687z"/>
<path d="M32.928,35.464c-0.473,0.789,0.094,3.416,0.288,3.772c0.485,0.888,5.245,1.413,5.968,0.736
	c0.646-0.605,0.191-3.347-0.277-4.117C38.4,35.021,33.978,33.714,32.928,35.464z"/>
<path d="M33.18,41.768c-0.437,0.709,0.085,3.073,0.265,3.394c0.447,0.799,5.382,1.19,6.048,0.582
	c0.594-0.545,0.178-3.174-0.254-3.867C38.771,41.126,34.147,40.194,33.18,41.768z"/>
<path d="M39.504,47.582c-0.468-0.75-5.527-1.637-6.494-0.063c-0.436,0.71,0.428,4.48,0.607,4.8c0.446,0.8,5.221,1.054,5.887,0.444
	C40.099,52.219,39.936,48.275,39.504,47.582z"/>
<path d="M33,54.493c-0.399,0.611,0.392,3.863,0.556,4.141c0.409,0.689,4.78,0.908,5.391,0.383c0.544-0.47,0.395-3.871,0-4.469
	C38.519,53.9,33.885,53.135,33,54.493z"/>
<path d="M38.947,61.33c-0.428-0.647-5.062-1.412-5.946-0.055c-0.399,0.612,0.071,3.968,0.235,4.245
	c0.331,0.557,3.462,0.738,4.971,0.511c0.308-1.394,0.607-2.814,0.903-4.245C39.062,61.581,39.007,61.422,38.947,61.33z"/>
<path d="M33.236,67.685c-0.399,0.611-0.164,4.722,0,4.998c0.226,0.381,1.755,0.586,3.183,0.605c0.486-1.727,0.944-3.564,1.384-5.468
	C36.315,67.217,33.871,66.71,33.236,67.685z"/>
<path d="M33.016,74.838c-0.399,0.612-0.417,4.529-0.253,4.806c0.12,0.202,0.61,0.354,1.256,0.457
	c0.754-1.637,1.436-3.556,2.067-5.67C34.837,74.152,33.48,74.127,33.016,74.838z"/>
<path d="M32.078,10.944c-0.351,0.584-0.034,3.072,0.11,3.336c0.359,0.658,3.732,1.349,4.268,0.847
	c0.478-0.448,0.051-2.567-0.296-3.138C35.785,11.373,32.854,9.649,32.078,10.944z"/>
<path d="M31.789,6.285c-0.458,0.491,0.27,2.579,0.414,2.843c0.358,0.657,2.612,1.214,3.189,0.2c0.331-0.581,0.051-1.458-0.296-2.028
	C34.721,6.682,32.674,5.334,31.789,6.285z"/>
<path d="M34.634,5.071c0.33-0.581,0.084-2.015-0.263-2.585c-0.376-0.617-2.172-2.158-3.059-1.208
	c-0.458,0.491,0.02,2.772,0.164,3.036C31.836,4.971,34.056,6.085,34.634,5.071z"/>
<path d="M26.273,3.361c0.131-0.238,0.738-2.326,0.324-2.771c-0.801-0.86-2.602,0.559-2.941,1.117
	c-0.313,0.516-0.331,1.45-0.031,1.976C24.146,4.6,25.948,3.956,26.273,3.361z"/>
<path d="M24.71,8.851c0.955-0.915,1.074-3.377,0.532-3.613c-2.186-0.951-3.177,1.277-3.516,1.836
	c-0.313,0.516-0.331,1.45-0.031,1.975C22.216,9.966,24.427,9.123,24.71,8.851z"/>
<path d="M23.145,14.32c1.408-0.883,1.675-3.837,1.132-4.073c-2.186-0.951-3.642,0.937-4.095,1.965
	c-0.246,0.557-0.352,1.78-0.052,2.306C20.651,15.435,22.816,14.525,23.145,14.32z"/>
<path d="M21.776,21.245c2.737-1.252,1.847-5.563,1.27-5.673c-5.848-1.119-5.047,5.172-4.749,5.697
	C18.82,22.186,21.426,21.404,21.776,21.245z"/>
<path d="M20.361,27.911c3.297-1.289,2.422-5.449,1.846-5.562c-6.633-1.304-5.624,5.061-5.325,5.587
	C17.404,28.852,20.003,28.05,20.361,27.911z"/>
<path d="M20.102,34.085c2.713-1.06,1.618-5.129,1.142-5.208c-6.695-1.114-5.455,4.419-5.208,4.852
	C16.465,34.483,19.809,34.2,20.102,34.085z"/>
<path d="M15.744,39.864c0.821,0.528,3.619,0.284,3.886,0.179c2.712-1.061,1.618-5.129,1.142-5.208
	c-3.082-0.513-4.48,0.384-5.07,1.542C15.739,37.498,15.754,38.657,15.744,39.864z"/>
<path d="M15.5,45.896c0.812,0.534,3.625,0.289,3.893,0.184c2.712-1.06,1.618-5.128,1.142-5.208
	c-2.734-0.455-4.144,0.199-4.839,1.161c-0.039,1.218-0.1,2.473-0.19,3.776C15.504,45.837,15.503,45.866,15.5,45.896z"/>
<path d="M19.118,52.477c2.712-1.061,1.618-5.129,1.142-5.208c-2.851-0.475-4.259,0.257-4.922,1.286
	c-0.067,1.25-0.121,2.486-0.159,3.705C15.923,52.836,18.844,52.583,19.118,52.477z"/>
<path d="M15.15,59.399c0.64,0.632,3.687,0.293,3.967,0.184c2.712-1.061,1.421-5.964,0.945-6.043
	c-3.037-0.505-4.392,0.547-4.947,1.886C15.105,56.777,15.116,58.104,15.15,59.399z"/>
<path d="M18.843,66.682c2.712-1.06,1.671-5.979,0.945-6.042c-2.448-0.213-3.805,0.432-4.533,1.357
	c0.09,1.662,0.224,3.266,0.406,4.802C16.797,66.983,18.628,66.767,18.843,66.682z"/>
<path d="M18.99,73.528c2.904,0.189,1.672-5.979,0.945-6.043c-2.001-0.174-3.272,0.226-4.068,0.884
	c0.274,1.886,0.629,3.658,1.073,5.299C17.883,73.644,18.83,73.518,18.99,73.528z"/>
<path d="M20.349,74.29c-1.502-0.131-2.51-0.025-3.169,0.224c0.663,2.218,1.502,4.171,2.544,5.809
	C22.209,80.045,21.047,74.351,20.349,74.29z"/>
<path d="M22.504,80.336c-0.541,0.032,0.062,1.856,0.433,2.279c1.151,1.312,4.972,2.881,6.38,2.238
	c1.1-0.502,4.213-4.518,1.181-4.603C28.531,80.195,23.961,80.251,22.504,80.336z"/>
<path d="M26.972,86.23c-11.999-2.429-14.223-19.996-12.673-40.933C16.864,10.632,0,5.803,0,5.803
	c7.605,4.129,7.356,22.791,8.196,39.515c0.531,10.598-1.778,42.096,17.692,44.453v9.708c0,0.287,0.233,0.521,0.52,0.521h2.751
	c0.287,0,0.521-0.233,0.521-0.521v-9.884c10.435-2.205,14.981-17.197,15.658-31.521c0.521-11.006,6.438-26.35,6.438-26.35
	C40.327,34.976,41.108,89.093,26.972,86.23z"/>
</svg>
