<?xml version="1.0" encoding="utf-8"?>
<!-- Generator: Adobe Illustrator 14.0.0, SVG Export Plug-In . SVG Version: 6.00 Build 43363)  -->
<!DOCTYPE svg PUBLIC "-//W3C//DTD SVG 1.0//EN" "http://www.w3.org/TR/2001/REC-SVG-20010904/DTD/svg10.dtd">
<svg version="1.0" id="Layer_1" xmlns="http://www.w3.org/2000/svg" xmlns:xlink="http://www.w3.org/1999/xlink" x="0px" y="0px"
	 width="60.173px" height="100px" viewBox="0 0 60.173 100" enable-background="new 0 0 60.173 100" xml:space="preserve">
<path d="M57.026,30.492l-4.136,7.212V93c0,2.222-1.808,4.03-4.03,4.03H30.086H11.312c-2.223,0-4.031-1.809-4.031-4.03V37.704
	l-4.135-7.212H0l4.312,7.494V93c0,3.859,3.141,7,7,7h18.774H48.86c3.86,0,7-3.141,7-7V37.986l4.312-7.494H57.026z"/>
<path d="M48.576,37.845H11.524c-1.406,0-2.545,1.14-2.545,2.546v25.314v1.696v25.314c0,1.405,1.14,2.545,2.545,2.545h37.052
	c1.406,0,2.546-1.14,2.546-2.545V67.401v-1.696V40.391C51.122,38.984,49.982,37.845,48.576,37.845z M48.294,91.444h-9.971v-2.121
	h9.971V91.444z M48.294,86.07h-9.971v-2.121h9.971V86.07z M48.294,80.696h-9.971v-2.121h9.971V80.696z M48.294,75.322h-9.971v-2.121
	h9.971V75.322z M48.294,69.948h-9.971v-2.121h9.971V69.948z M48.294,64.575h-9.971v-2.122h9.971V64.575z M48.294,59.201h-9.971
	v-2.122h9.971V59.201z M48.294,53.826h-9.971v-2.121h9.971V53.826z M48.294,48.453h-9.971v-2.122h9.971V48.453z M48.294,43.079
	h-9.971v-2.122h9.971V43.079z"/>
<circle cx="40.965" cy="25.229" r="5.968"/>
<circle cx="21.141" cy="28.115" r="2.799"/>
<circle cx="40.965" cy="13.221" r="2.8"/>
<circle cx="28.852" cy="25.229" r="2.799"/>
<circle cx="30.05" cy="16.02" r="3.998"/>
<circle cx="32.85" cy="2.405" r="2.405"/>
</svg>
