<?xml version="1.0" encoding="utf-8"?>
<!-- Generator: Adobe Illustrator 14.0.0, SVG Export Plug-In . SVG Version: 6.00 Build 43363)  -->
<!DOCTYPE svg PUBLIC "-//W3C//DTD SVG 1.0//EN" "http://www.w3.org/TR/2001/REC-SVG-20010904/DTD/svg10.dtd">
<svg version="1.0" id="Layer_1" xmlns="http://www.w3.org/2000/svg" xmlns:xlink="http://www.w3.org/1999/xlink" x="0px" y="0px"
	 width="59.793px" height="100px" viewBox="0 0 59.793 100" enable-background="new 0 0 59.793 100" xml:space="preserve">
<path d="M52.835,0H6.959C3.116,0,0,3.115,0,6.959v86.082C0,96.885,3.116,100,6.959,100h45.876c3.843,0,6.958-3.115,6.958-6.959
	V6.959C59.793,3.115,56.678,0,52.835,0z M29.897,89.059c-10.177,0-18.428-8.25-18.428-18.428c0-10.177,8.25-18.428,18.428-18.428
	c10.178,0,18.428,8.251,18.428,18.428C48.325,80.809,40.075,89.059,29.897,89.059z M55.155,41.752c0,0.569-0.462,1.031-1.031,1.031
	H5.67c-0.569,0-1.031-0.462-1.031-1.031V5.928c0-0.569,0.462-1.031,1.031-1.031h48.453c0.569,0,1.031,0.461,1.031,1.031V41.752z"/>
<circle cx="29.897" cy="70.631" r="6.572"/>
</svg>
