<?xml version="1.0" encoding="utf-8"?>
<!-- Generator: Adobe Illustrator 14.0.0, SVG Export Plug-In . SVG Version: 6.00 Build 43363)  -->
<!DOCTYPE svg PUBLIC "-//W3C//DTD SVG 1.0//EN" "http://www.w3.org/TR/2001/REC-SVG-20010904/DTD/svg10.dtd">
<svg version="1.0" id="Layer_1" xmlns="http://www.w3.org/2000/svg" xmlns:xlink="http://www.w3.org/1999/xlink" x="0px" y="0px"
	 width="26.803px" height="100px" viewBox="0 0 26.803 100" enable-background="new 0 0 26.803 100" xml:space="preserve">
<path d="M18.673,0.184c0-0.164-0.826-0.198-1.824-0.179H9.955C8.957-0.014,8.13,0.02,8.13,0.184c0,1.692,0,3.857,0,6.248h10.543
	C18.673,4.041,18.673,1.875,18.673,0.184z"/>
<path d="M18.673,27.848c0-4.266,0-13.087,0-20.287H8.13c0,7.2,0,16.021,0,20.287c0,2.07-8.13,2.145-8.13,10.727
	C0,52.18,0,92.999,0,92.999C0,96.866,0.142,100,4.009,100h9.393h9.394c3.866,0,4.008-3.134,4.008-7.001c0,0,0-40.818,0-54.424
	C26.803,29.993,18.673,29.917,18.673,27.848z"/>
</svg>
