<?xml version="1.0" encoding="utf-8"?>
<!-- Generator: Adobe Illustrator 14.0.0, SVG Export Plug-In . SVG Version: 6.00 Build 43363)  -->
<!DOCTYPE svg PUBLIC "-//W3C//DTD SVG 1.0//EN" "http://www.w3.org/TR/2001/REC-SVG-20010904/DTD/svg10.dtd">
<svg version="1.0" id="Layer_1" xmlns="http://www.w3.org/2000/svg" xmlns:xlink="http://www.w3.org/1999/xlink" x="0px" y="0px"
	 width="100px" height="86.808px" viewBox="0 0 100 86.808" enable-background="new 0 0 100 86.808" xml:space="preserve">
<path d="M51.095,54.442c0,0,0.473-68.357-1.653-51.879c-1.611,12.488-2.293,39.239-2.523,43.7c-0.058,1.112,2.05,3.938,2.05,3.938
	v4.24H51.095z"/>
<path d="M46.628,58.625c0,0-59.435,33.77-44.101,27.371c11.618-4.848,35.129-17.633,39.105-19.664
	c0.992-0.506,2.386-3.745,2.386-3.745l3.671-2.121L46.628,58.625z"/>
<path d="M52.317,60.461c0,0,58.962,34.587,45.754,24.505C88.064,77.328,65.238,63.361,61.49,60.933
	c-0.935-0.607-4.438-0.193-4.438-0.193l-3.672-2.12L52.317,60.461z"/>
<circle cx="50.123" cy="57.737" r="2.477"/>
</svg>
