<?xml version="1.0" encoding="utf-8"?>
<!-- Generator: Adobe Illustrator 14.0.0, SVG Export Plug-In . SVG Version: 6.00 Build 43363)  -->
<!DOCTYPE svg PUBLIC "-//W3C//DTD SVG 1.0//EN" "http://www.w3.org/TR/2001/REC-SVG-20010904/DTD/svg10.dtd">
<svg version="1.0" id="Layer_1" xmlns="http://www.w3.org/2000/svg" xmlns:xlink="http://www.w3.org/1999/xlink" x="0px" y="0px"
	 width="67.768px" height="100px" viewBox="0 0 67.768 100" enable-background="new 0 0 67.768 100" xml:space="preserve">
<path d="M67.768,90.965c0,4.989-4.047,9.034-9.036,9.034h-3.011c-4.99,0-9.035-4.045-9.035-9.034V9.036
	c0-4.99,4.045-9.036,9.035-9.036h3.011c4.989,0,9.036,4.046,9.036,9.036V90.965z"/>
<path d="M21.083,90.965c0,4.989-4.046,9.034-9.036,9.034H9.036C4.046,100,0,95.955,0,90.965V9.036C0,4.046,4.046,0,9.036,0h3.012
	c4.99,0,9.036,4.046,9.036,9.036V90.965z"/>
</svg>
