<?xml version="1.0" encoding="utf-8"?>
<!-- Generator: Adobe Illustrator 14.0.0, SVG Export Plug-In . SVG Version: 6.00 Build 43363)  -->
<!DOCTYPE svg PUBLIC "-//W3C//DTD SVG 1.0//EN" "http://www.w3.org/TR/2001/REC-SVG-20010904/DTD/svg10.dtd">
<svg version="1.0" id="Layer_1" xmlns="http://www.w3.org/2000/svg" xmlns:xlink="http://www.w3.org/1999/xlink" x="0px" y="0px"
	 width="100px" height="63.819px" viewBox="0 0 100 63.819" enable-background="new 0 0 100 63.819" xml:space="preserve">
<path d="M96.382,39.758c-2.636,1.62-5.494,1.571-8.495,1.273c-3.05-0.304-7.007-1.388-10.003-0.375
	c-1.195,0.403-2.107,1.602-2.864,2.554c-1.017,1.278-1.935,2.633-2.892,3.957c-1.548,2.146-3.303,4.911-5.893,5.896
	c-2.665,1.013-5.416-0.889-7.469-2.395C56.231,48.81,53.32,45.986,50,45.877c-3.474,0.114-6.435,3.146-9.11,5.039
	c-2.11,1.495-4.828,3.229-7.464,2.004c-2.638-1.227-4.415-4.146-6.038-6.429c-1.326-1.863-3.124-5.383-5.577-5.919
	c-6.083-1.33-12.823,2.765-18.457-0.983c-0.858-0.571-1.691-1.186-2.51-1.822C5.154,52.593,25.522,63.819,50,63.819
	c24.429,0,44.765-11.184,49.13-25.965C98.238,38.537,97.324,39.179,96.382,39.758z"/>
<path d="M50,0C22.388,0,0,14.286,0,31.909c0,0.542,0.021,1.08,0.063,1.616c1.653,1.483,3.393,2.853,5.247,3.938
	c2.564,1.502,5.812,0.85,8.622,0.533c2.814-0.316,6.5-1.127,9.229,0.018c2.533,1.063,4.169,3.531,5.717,5.691
	c1.519,2.122,3.139,5.229,5.51,6.522c2.238,1.222,5.535-2.108,7.163-3.313c2.427-1.797,5.032-3.638,8.124-3.857
	c0.102-0.018,0.209-0.025,0.325-0.021c0.116-0.004,0.226,0.005,0.327,0.022c3.238,0.229,5.951,2.233,8.477,4.121
	c1.626,1.214,4.863,4.419,7.045,2.901c2.443-1.7,4.021-4.686,5.753-7.036c1.411-1.916,3.084-4.46,5.526-5.128
	c3.178-0.869,6.648-0.154,9.854,0.181c2.695,0.283,5.574,0.741,7.967-0.792c1.754-1.125,3.408-2.44,4.992-3.848
	c0.038-0.514,0.06-1.029,0.06-1.549C100,14.286,77.612,0,50,0z M66.338,21.431c-0.177,1.677-0.61,3.316-1.226,4.885
	C64.548,29.44,58.003,31.909,50,31.909c-7.995,0-14.533-2.463-15.11-5.582c-0.662-1.649-1.245-3.498-1.249-5.262
	c-0.005-2.477,1.577-3.996,3.929-4.56c1.357-0.324,2.881-0.38,4.174-0.921c0.804-0.335,1.411-1.303,1.989-1.913
	c1.737-1.831,3.71-2.896,6.268-2.976c2.681,0.084,4.716,1.264,6.489,3.217c0.613,0.675,1.221,1.545,2.142,1.793
	c1.251,0.338,2.552,0.453,3.799,0.8C64.846,17.18,66.619,18.749,66.338,21.431z"/>
<path d="M63.918,21.873c0.149-1.026,0.196-2.114-0.88-2.641c-1.055-0.516-2.244-0.659-3.385-0.875
	c-1.874-0.354-3.129-0.886-4.413-2.302c-1.493-1.648-2.895-2.92-5.24-2.992c-2.357,0.073-3.733,1.35-5.241,2.992
	c-1.29,1.404-2.531,1.961-4.412,2.302c-2.217,0.401-4.777,0.661-4.266,3.516c0.082,0.456,0.187,0.907,0.301,1.357
	c2.465-2.002,7.634-3.382,13.618-3.382c6.001,0,11.183,1.387,13.638,3.398C63.755,22.79,63.852,22.331,63.918,21.873z"/>
</svg>
