<?xml version="1.0" encoding="utf-8"?>
<!-- Generator: Adobe Illustrator 14.0.0, SVG Export Plug-In . SVG Version: 6.00 Build 43363)  -->
<!DOCTYPE svg PUBLIC "-//W3C//DTD SVG 1.0//EN" "http://www.w3.org/TR/2001/REC-SVG-20010904/DTD/svg10.dtd">
<svg version="1.0" id="Layer_1" xmlns="http://www.w3.org/2000/svg" xmlns:xlink="http://www.w3.org/1999/xlink" x="0px" y="0px"
	 width="100px" height="99.998px" viewBox="0 0 100 99.998" enable-background="new 0 0 100 99.998" xml:space="preserve">
<circle cx="50" cy="25.331" r="7.59"/>
<path d="M50,0C22.384,0.001,0,22.383,0,50c0,27.615,22.384,49.999,50,49.999c27.614,0,49.997-22.384,50-49.999
	C99.997,22.383,77.614,0.001,50,0z M50,82.257c-4.192,0-7.591-3.396-7.591-7.59c0-4.192,3.399-7.59,7.591-7.59
	c4.191,0,7.59,3.397,7.59,7.59C57.589,78.86,54.191,82.257,50,82.257z M50,49.979c-13.101,0-24.668,10.642-24.668,23.739
	c0,12.272,9.32,22.367,21.268,23.593c-24.515-1.735-43.9-22.102-44.038-47.055C2.423,25.037,21.995,4.29,46.862,2.662
	c0.721-0.065,2.555-0.099,2.603-0.102v0.006C62.374,2.788,72.77,13.318,72.77,26.28C72.77,39.062,62.659,49.481,50,49.979z"/>
</svg>
