<?xml version="1.0" encoding="utf-8"?>
<!-- Generator: Adobe Illustrator 14.0.0, SVG Export Plug-In . SVG Version: 6.00 Build 43363)  -->
<!DOCTYPE svg PUBLIC "-//W3C//DTD SVG 1.0//EN" "http://www.w3.org/TR/2001/REC-SVG-20010904/DTD/svg10.dtd">
<svg version="1.0" id="Layer_1" xmlns="http://www.w3.org/2000/svg" xmlns:xlink="http://www.w3.org/1999/xlink" x="0px" y="0px"
	 width="67.875px" height="100px" viewBox="0 0 67.875 100" enable-background="new 0 0 67.875 100" xml:space="preserve">
<path d="M38.114,67.607c16.749-2.066,29.761-16.371,29.761-33.67C67.875,15.224,52.65,0,33.938,0C15.224,0,0,15.224,0,33.938
	c0,17.299,13.012,31.604,29.76,33.67v12.154H5.586v8.354H29.76V100h8.354V88.116h24.175v-8.354H38.114V67.607z M8.354,33.938
	c0-14.106,11.477-25.583,25.583-25.583s25.583,11.477,25.583,25.583S48.044,59.52,33.938,59.52S8.354,48.044,8.354,33.938z"/>
</svg>
