<?xml version="1.0" encoding="utf-8"?>
<!-- Generator: Adobe Illustrator 14.0.0, SVG Export Plug-In . SVG Version: 6.00 Build 43363)  -->
<!DOCTYPE svg PUBLIC "-//W3C//DTD SVG 1.0//EN" "http://www.w3.org/TR/2001/REC-SVG-20010904/DTD/svg10.dtd">
<svg version="1.0" id="Layer_1" xmlns="http://www.w3.org/2000/svg" xmlns:xlink="http://www.w3.org/1999/xlink" x="0px" y="0px"
	 width="75.059px" height="100px" viewBox="0 0 75.059 100" enable-background="new 0 0 75.059 100" xml:space="preserve">
<path d="M49.999,100C22.43,100,0,77.569,0,50C0,22.431,22.43,0,49.999,0c4.965,0,9.88,0.73,14.608,2.173l10.451,3.191L64.607,8.552
	C46.261,14.148,33.935,30.805,33.935,50c0,19.197,12.326,35.852,30.673,41.45l10.451,3.189l-10.451,3.189
	C59.879,99.271,54.964,100,49.999,100L49.999,100z M49.999,6.667C26.107,6.667,6.667,26.106,6.667,50
	c0,23.895,19.44,43.335,43.332,43.335c0.722,0,1.442-0.02,2.164-0.053C36.922,84.507,27.267,68.248,27.267,50
	c0-18.245,9.655-34.506,24.896-43.279C51.441,6.686,50.721,6.667,49.999,6.667L49.999,6.667z"/>
</svg>
