<?xml version="1.0" encoding="utf-8"?>
<!-- Generator: Adobe Illustrator 14.0.0, SVG Export Plug-In . SVG Version: 6.00 Build 43363)  -->
<!DOCTYPE svg PUBLIC "-//W3C//DTD SVG 1.0//EN" "http://www.w3.org/TR/2001/REC-SVG-20010904/DTD/svg10.dtd">
<svg version="1.0" id="Layer_1" xmlns="http://www.w3.org/2000/svg" xmlns:xlink="http://www.w3.org/1999/xlink" x="0px" y="0px"
	 width="100px" height="97.027px" viewBox="0 0 100 97.027" enable-background="new 0 0 100 97.027" xml:space="preserve">
<path d="M71.992,0C63.35,0,55.247,4.103,50,10.822C44.751,4.103,36.652,0,28.008,0C12.565,0,0,12.682,0,28.272
	c0,18.684,11.73,29.072,24.148,40.071C31.95,75.255,40.015,82.4,46.952,92.484l3.124,4.543l3.022-4.613
	c6.707-10.257,14.951-17.643,22.922-24.786C88.352,56.575,100,46.137,100,28.272C100,12.682,87.435,0,71.992,0z M53.699,50.156
	c1.499,0.429,2.698,0.895,3.541,1.402c1.258,0.781,1.887,1.882,1.887,3.306c0,2.437-1.285,4.104-3.855,5.002
	c-0.469,0.163-1.004,0.287-1.572,0.393V50.156z M46.3,39.803c-1.464-0.407-2.5-0.78-3.092-1.115
	c-1.399-0.759-2.099-1.91-2.099-3.452c0-1.675,0.709-2.983,2.128-3.918c0.844-0.557,1.88-0.927,3.062-1.154V39.803z M71.082,62.117
	c-6.864,6.151-14.521,13.013-21.147,21.91c-6.712-8.672-14.184-15.288-20.881-21.22C16.956,52.09,7.399,43.626,7.399,28.272
	c0-11.509,9.245-20.873,20.608-20.873c7.68,0,14.772,4.435,18.292,11.35v3.856c-3.917,0.422-7.015,1.631-9.263,3.651
	c-2.844,2.554-4.265,5.763-4.265,9.624c0,4.232,1.453,7.342,4.359,9.331c1.678,1.163,4.742,2.245,9.169,3.24v11.726
	c-1.734-0.421-3.066-1.175-3.988-2.271c-0.816-0.975-1.365-2.448-1.643-4.418H32.07c0,4.487,1.625,8.011,4.878,10.574
	c2.437,1.923,5.555,3.122,9.352,3.606v4.389h7.399V67.72c3.959-0.436,7.148-1.665,9.548-3.716c3.043-2.604,4.567-5.873,4.567-9.812
	c0-3.841-1.285-6.779-3.856-8.804c-1.655-1.307-4.139-2.351-7.456-3.129l-2.803-0.662V30.748c0.201,0.082,0.414,0.154,0.604,0.249
	c2.158,1.092,3.317,2.934,3.478,5.529h8.658c-0.158-4.585-1.859-8.08-5.109-10.488c-2.225-1.647-4.771-2.719-7.631-3.24v-4.048
	c3.522-6.915,10.614-11.35,18.293-11.35c11.363,0,20.609,9.364,20.609,20.873C92.602,42.832,83.104,51.343,71.082,62.117z"/>
</svg>
