<?xml version="1.0" encoding="utf-8"?>
<!-- Generator: Adobe Illustrator 14.0.0, SVG Export Plug-In . SVG Version: 6.00 Build 43363)  -->
<!DOCTYPE svg PUBLIC "-//W3C//DTD SVG 1.0//EN" "http://www.w3.org/TR/2001/REC-SVG-20010904/DTD/svg10.dtd">
<svg version="1.0" id="Layer_1" xmlns="http://www.w3.org/2000/svg" xmlns:xlink="http://www.w3.org/1999/xlink" x="0px" y="0px"
	 width="72.845px" height="100px" viewBox="0 0 72.845 100" enable-background="new 0 0 72.845 100" xml:space="preserve">
<path d="M70.733,0C55.712,0,40.69,0,25.669,0C17.817,0,9.964,0,2.112,0c-2.816,0-2.816,3.914,0,3.914v12.442h68.622V3.914
	C73.549,3.914,73.549,0,70.733,0z"/>
<path d="M70.733,96.086V83.645H2.112v12.441c-2.816,0-2.816,3.914,0,3.914c15.021,0,30.043,0,45.064,0c7.853,0,15.705,0,23.558,0
	C73.549,100,73.549,96.086,70.733,96.086z"/>
<path d="M2.112,19.245v61.51h68.622v-61.51H2.112z M36.423,63.466c-4.864,0-8.807-3.942-8.807-8.807
	c0-4.863,8.807-21.291,8.807-21.291s8.807,16.427,8.807,21.291C45.229,59.523,41.286,63.466,36.423,63.466z"/>
</svg>
