<?xml version="1.0" encoding="utf-8"?>
<!-- Generator: Adobe Illustrator 14.0.0, SVG Export Plug-In . SVG Version: 6.00 Build 43363)  -->
<!DOCTYPE svg PUBLIC "-//W3C//DTD SVG 1.1//EN" "http://www.w3.org/Graphics/SVG/1.1/DTD/svg11.dtd">
<svg version="1.1" id="Layer_1" xmlns="http://www.w3.org/2000/svg" xmlns:xlink="http://www.w3.org/1999/xlink" x="0px" y="0px"
	 width="40.945px" height="100px" viewBox="-1.001 -2.445 40.945 100" enable-background="new -1.001 -2.445 40.945 100"
	 xml:space="preserve">
<path d="M19.471,14.996c4.815,0,8.719-3.904,8.719-8.719c0-4.817-3.903-8.722-8.719-8.722c-4.816,0-8.719,3.905-8.719,8.722
	C10.752,11.092,14.655,14.996,19.471,14.996L19.471,14.996z"/>
<path d="M19.471,6.276"/>
<path d="M28.802,16.919l-9.331,0.006l-9.332-0.006c-6.174,0-11.141,5.036-11.141,11.318v26.77h7.617V30.528h1.804v67.026h10.142
	V58.646h0.91h0.91v38.909h10.142V30.528h1.805v24.479h7.616v-26.77C39.944,21.955,34.978,16.919,28.802,16.919z"/>
</svg>
