<?xml version="1.0" encoding="utf-8"?>
<!-- Generator: Adobe Illustrator 14.0.0, SVG Export Plug-In . SVG Version: 6.00 Build 43363)  -->
<!DOCTYPE svg PUBLIC "-//W3C//DTD SVG 1.0//EN" "http://www.w3.org/TR/2001/REC-SVG-20010904/DTD/svg10.dtd">
<svg version="1.0" id="Layer_1" xmlns="http://www.w3.org/2000/svg" xmlns:xlink="http://www.w3.org/1999/xlink" x="0px" y="0px"
	 width="41.586px" height="100px" viewBox="0 0 41.586 100" enable-background="new 0 0 41.586 100" xml:space="preserve">
<path id="path2894_1_" d="M12.559,3.361l7.888,0.011l1.715-1.877V0h4.802l0.368,1.868
	l3.325,2.614l5.229-1.11c1.361,0,2.725,1.377,1.815,3.672c-0.907,2.294-3.844,2.047-5.447,3.671
	c-4.542,4.591,0.681,9.869,0.681,9.869c9.535,3.672,8.628,12.854,8.628,12.854V100L9.095,99.77V33.208c0,0-0.907-9.181,8.628-12.854
	c0,0,5.449-8.722,0.908-9.181l-5.888-0.159l-10.895,9.63v3.626H0v-7.095L12.559,3.361z"/>
</svg>
