<?xml version="1.0" encoding="utf-8"?>
<!-- Generator: Adobe Illustrator 14.0.0, SVG Export Plug-In . SVG Version: 6.00 Build 43363)  -->
<!DOCTYPE svg PUBLIC "-//W3C//DTD SVG 1.0//EN" "http://www.w3.org/TR/2001/REC-SVG-20010904/DTD/svg10.dtd">
<svg version="1.0" id="Layer_1" xmlns="http://www.w3.org/2000/svg" xmlns:xlink="http://www.w3.org/1999/xlink" x="0px" y="0px"
	 width="100px" height="71.74px" viewBox="0 0 100 71.74" enable-background="new 0 0 100 71.74" xml:space="preserve">
<path d="M100,36.715v-1.689H51.689v-5.6h8.125c2.701,0,4.898-2.198,4.898-4.899V4.898C64.713,2.197,62.516,0,59.814,0H40.186
	c-2.701,0-4.898,2.197-4.898,4.898v19.628c0,2.701,2.197,4.899,4.898,4.899h8.125v5.6H0v1.689h22.129v5.6h-8.125
	c-2.701,0-4.898,2.198-4.898,4.899v19.628c0,2.701,2.197,4.898,4.898,4.898h19.629c2.701,0,4.898-2.197,4.898-4.898V47.214
	c0-2.701-2.197-4.899-4.898-4.899h-8.125v-5.6h48.985v5.6h-8.125c-2.701,0-4.899,2.198-4.899,4.899v19.628
	c0,2.701,2.198,4.898,4.899,4.898h19.628c2.701,0,4.898-2.197,4.898-4.898V47.214c0-2.701-2.197-4.899-4.898-4.899h-8.125v-5.6H100z
	 M40.186,26.047c-0.838,0-1.52-0.682-1.52-1.521V4.898c0-0.838,0.682-1.521,1.52-1.521h19.629c0.838,0,1.521,0.682,1.521,1.521
	v19.628c0,0.838-0.683,1.521-1.521,1.521H40.186z M33.633,45.693c0.838,0,1.52,0.682,1.52,1.521v19.628
	c0,0.838-0.682,1.521-1.52,1.521H14.004c-0.838,0-1.521-0.683-1.521-1.521V47.214c0-0.839,0.683-1.521,1.521-1.521H33.633z
	 M85.996,45.693c0.839,0,1.521,0.682,1.521,1.521v19.628c0,0.838-0.682,1.521-1.521,1.521H66.368c-0.839,0-1.521-0.683-1.521-1.521
	V47.214c0-0.839,0.682-1.521,1.521-1.521H85.996z"/>
</svg>
