<?xml version="1.0" encoding="utf-8"?>
<!-- Generator: Adobe Illustrator 14.0.0, SVG Export Plug-In . SVG Version: 6.00 Build 43363)  -->
<!DOCTYPE svg PUBLIC "-//W3C//DTD SVG 1.0//EN" "http://www.w3.org/TR/2001/REC-SVG-20010904/DTD/svg10.dtd">
<svg version="1.0" id="Layer_1" xmlns="http://www.w3.org/2000/svg" xmlns:xlink="http://www.w3.org/1999/xlink" x="0px" y="0px"
	 width="99.999px" height="100px" viewBox="0 0 99.999 100" enable-background="new 0 0 99.999 100" xml:space="preserve">
<path d="M93.936,78.672c-1.707,1.707-3.415,3.415-5.123,5.123c-6.205-6.206-12.411-12.411-18.616-18.616
	c0.649-0.65,1.3-1.3,1.949-1.95c1.255-1.254,2.294-2.552,2.973-4.228c1.342-3.307,0.427-6.985-1.789-9.644
	c-0.116-0.15-0.241-0.298-0.386-0.442c-9.343-9.343-18.687-18.687-28.03-28.031c-2.472-2.472-5.709-3.22-9.075-2.629
	c-2.274,0.399-3.987,1.987-5.552,3.552c-0.577,0.577-1.154,1.154-1.73,1.731c-1.334-1.334-2.668-2.667-4.002-4.001
	c-1.464-1.464-3.29-1.238-4.554-0.253L0.717,0L0,0.716L19.283,20c-0.984,1.264-1.211,3.09,0.253,4.554
	c1.334,1.334,2.668,2.667,4.001,4.001c-0.655,0.656-1.312,1.312-1.969,1.969c-1.909,1.909-3.236,4.013-3.524,6.771
	c-0.299,2.857,0.897,5.676,2.901,7.679c1.799,1.799,3.598,3.598,5.396,5.397c6.246,6.246,12.492,12.492,18.737,18.737
	c1.453,1.453,2.845,3.081,4.453,4.369c3.896,3.118,8.795,2.791,12.598-0.254c0.986-0.789,1.839-1.816,2.729-2.707
	c0.107-0.106,0.214-0.213,0.32-0.319c5.699,5.699,11.398,11.397,17.098,17.097c0.506,0.507,1.013,1.013,1.519,1.52
	c-1.708,1.708-3.415,3.416-5.123,5.123c-3.238,3.238,1.779,8.256,5.018,5.018c5.088-5.088,10.176-10.176,15.264-15.265
	C102.191,80.451,97.174,75.433,93.936,78.672z M58.152,65.754c-0.425,0.425-0.849,0.85-1.273,1.273
	c-0.061,0.061-0.121,0.121-0.182,0.182c-0.069,0.069-0.118,0.121-0.159,0.165c-0.054,0.02-0.147,0.065-0.309,0.16
	c0.579-0.339-0.496-0.016-0.454,0.074c-0.137-0.009-0.288-0.02-0.383-0.022c-0.312-0.116-0.788-0.304-0.275-0.052
	c-0.144-0.07-0.229-0.104-0.278-0.118c-0.037-0.047-0.1-0.116-0.207-0.225c-0.154-0.153-0.308-0.307-0.461-0.46
	c-0.798-0.799-1.597-1.597-2.395-2.396c-2.885-2.885-5.77-5.77-8.654-8.654c-5.373-5.373-10.746-10.746-16.119-16.119
	c-0.149-0.149-0.299-0.298-0.447-0.447c-0.162-0.162-0.46-0.599-0.156-0.157c-0.071-0.103-0.122-0.171-0.162-0.22
	c-0.014-0.058-0.034-0.131-0.068-0.235c-0.027-0.124-0.048-0.216-0.062-0.279c-0.006-0.183-0.006-0.365,0.007-0.547
	c-0.021,0.613,0.057,0.174,0.119-0.161c0.038,0.043,0.286-0.446,0.134-0.313c0.092-0.099,0.188-0.196,0.282-0.291
	c0.433-0.432,0.864-0.864,1.297-1.297c2.873-2.873,5.745-5.745,8.618-8.617c0.131-0.131,0.263-0.263,0.394-0.394
	c0.147-0.147,0.682-0.532,0.206-0.206c0.104-0.07,0.172-0.122,0.221-0.161c0.058-0.015,0.13-0.035,0.234-0.069
	c0.08-0.026,0.142-0.047,0.192-0.066c0.06,0.002,0.141,0.002,0.25-0.002c0.068-0.002,0.125-0.005,0.174-0.008
	c0.059,0.021,0.145,0.045,0.269,0.077c0.051,0.017,0.095,0.031,0.135,0.044c0.245,0.161,0.349,0.22,0.313,0.178
	c0.416,0.364,0.794,0.794,1.18,1.18c2.39,2.389,4.778,4.778,7.167,7.167c5.998,5.999,11.997,11.997,17.995,17.996
	c0.639,0.639,1.277,1.277,1.917,1.917c0.07,0.076,0.122,0.129,0.166,0.174c0.026,0.058,0.073,0.149,0.158,0.293
	c-0.266-0.454-0.099-0.064,0.026,0.236c0,0.077,0.02,0.256,0.037,0.417c-0.024,0.06-0.062,0.268-0.097,0.447
	c-0.039-0.044-0.299,0.476-0.116,0.297c-0.063,0.069-0.13,0.137-0.196,0.204c-0.125,0.125-0.251,0.251-0.376,0.376
	c-0.784,0.783-1.567,1.567-2.351,2.351c-1.241-1.241-2.481-2.481-3.722-3.722c-1.144-1.144-2.287-2.287-3.43-3.43l2.831-2.832
	l-5.734-5.734L43.764,54.371l5.734,5.734l2.795-2.795c2.384,2.385,4.768,4.769,7.151,7.152
	C59.014,64.893,58.583,65.324,58.152,65.754z"/>
</svg>
