<?xml version="1.0" encoding="utf-8"?>
<!-- Generator: Adobe Illustrator 14.0.0, SVG Export Plug-In . SVG Version: 6.00 Build 43363)  -->
<!DOCTYPE svg PUBLIC "-//W3C//DTD SVG 1.0//EN" "http://www.w3.org/TR/2001/REC-SVG-20010904/DTD/svg10.dtd">
<svg version="1.0" id="Layer_1" xmlns="http://www.w3.org/2000/svg" xmlns:xlink="http://www.w3.org/1999/xlink" x="0px" y="0px"
	 width="100px" height="88.428px" viewBox="0 0 100 88.428" enable-background="new 0 0 100 88.428" xml:space="preserve">
<path d="M63.638,74.143h-9.092H44.273c-5.901,0.118-9.326,2.834-10.034,7.202h20.307h20.307
	C75.087,76.386,70.484,74.261,63.638,74.143z"/>
<polygon points="100,5.903 100,0 0,36.718 0,42.03 11.334,37.899 11.334,88.428 92.797,88.428 92.797,83.116 19.952,83.116 
	19.952,34.946 "/>
<path d="M27.392,72.962c-2.245,0-4.25,2.007-4.25,4.368c0,2.362,2.005,4.25,4.25,4.25c2.479,0,4.368-2.006,4.368-4.25
	C31.76,74.969,29.871,72.962,27.392,72.962z"/>
</svg>
