<?xml version="1.0" encoding="utf-8"?>
<!-- Generator: Adobe Illustrator 14.0.0, SVG Export Plug-In . SVG Version: 6.00 Build 43363)  -->
<!DOCTYPE svg PUBLIC "-//W3C//DTD SVG 1.0//EN" "http://www.w3.org/TR/2001/REC-SVG-20010904/DTD/svg10.dtd">
<svg version="1.0" id="Layer_1" xmlns="http://www.w3.org/2000/svg" xmlns:xlink="http://www.w3.org/1999/xlink" x="0px" y="0px"
	 width="100px" height="95.21px" viewBox="0 0 100 95.21" enable-background="new 0 0 100 95.21" xml:space="preserve">
<path d="M50,0C22.386,0,0,21.499,0,51.422c0,10.78,6.073,18.818,15.78,24.056c1.088,5.319,3.066,10.714,4.843,13.193
	C25.084,94.894,45.877,95.21,50,95.21c4.122,0,24.915-0.316,29.377-6.538c1.777-2.48,3.756-7.875,4.844-13.194
	C93.927,70.24,100,62.202,100,51.422C100,21.499,77.613,0,50,0z M50,3.127c8.91,0,16.134,7.223,16.134,16.133
	c0,8.91-7.224,16.133-16.134,16.133c-8.911,0-16.133-7.223-16.133-16.133C33.867,10.35,41.089,3.127,50,3.127z M9.713,57.51
	c-2.344,0-4.566-0.511-6.575-1.41c-0.284-1.509-0.438-3.067-0.438-4.678c0-9.707,2.394-18.606,6.625-26.159
	c0.131-0.002,0.258-0.02,0.389-0.02c8.911,0,16.133,7.223,16.133,16.133C25.846,50.287,18.624,57.51,9.713,57.51z M76.31,86.424
	c-1.721,2.4-11.528,4.955-26.31,4.955c-14.781,0-24.587-2.555-26.31-4.957c-2.197-3.064-4.9-12.1-4.953-17.922
	C23.859,61.297,36.313,56.489,50,56.489c13.687,0,26.142,4.808,31.264,12.011C81.211,74.322,78.507,83.357,76.31,86.424z
	 M90.383,57.51c-8.909,0-16.133-7.223-16.133-16.133c0-8.911,7.224-16.133,16.133-16.133c0.131,0,0.258,0.017,0.389,0.02
	c4.231,7.552,6.625,16.452,6.625,26.159c0,1.61-0.153,3.169-0.438,4.678C94.949,56.999,92.728,57.51,90.383,57.51z"/>
</svg>
