<?xml version="1.0" encoding="utf-8"?>
<!-- Generator: Adobe Illustrator 14.0.0, SVG Export Plug-In . SVG Version: 6.00 Build 43363)  -->
<!DOCTYPE svg PUBLIC "-//W3C//DTD SVG 1.0//EN" "http://www.w3.org/TR/2001/REC-SVG-20010904/DTD/svg10.dtd">
<svg version="1.0" id="Layer_1" xmlns="http://www.w3.org/2000/svg" xmlns:xlink="http://www.w3.org/1999/xlink" x="0px" y="0px"
	 width="44.982px" height="100px" viewBox="0 0 44.982 100" enable-background="new 0 0 44.982 100" xml:space="preserve">
<polygon points="14.306,93.01 14.306,87.288 14.306,87.288 6.863,85.925 6.863,93.01 6.863,100 14.306,100 "/>
<polygon points="38.119,93.01 38.119,85.925 30.677,87.288 30.677,87.288 30.677,93.01 30.677,100 38.119,100 "/>
<path d="M44.981,80.896c-0.087-5.596-5.938-8.823-12.12-15.283c-0.929-0.971-1.316-2.362-1.478-2.851
	c-1.795-5.437-4.363-34.976-8.892-34.976l-0.001,0c-0.001,0-0.001,0-0.001,0c-4.528,0-7.097,29.54-8.892,34.976
	c-0.161,0.488-0.549,1.88-1.478,2.851C5.94,72.072,0.088,75.3,0.001,80.896H0v2.322l15.721,2.883v3.563l6.771,1.899l6.771-1.899
	v-3.563l15.721-2.883L44.981,80.896L44.981,80.896z"/>
<path d="M34.398,18.545C34.397,18.545,34.397,18.545,34.398,18.545c-1.466,0-2.687,3.656-3.722,8.427v-5.181v-0.673h-0.004
	C30.47,3.779,24.189,0.001,22.491,0c-1.698,0.001-7.979,3.779-8.181,21.117h-0.004v0.673v5.181
	c-1.036-4.771-2.256-8.427-3.721-8.427c0,0,0,0-0.001,0c-1.464,0-2.686,3.656-3.721,8.427v40.395
	c1.146-1.061,2.317-2.175,3.512-3.423c0.467-0.486,0.744-1.357,0.878-1.775c0.019-0.061,0.037-0.115,0.052-0.163
	c0.5-1.515,1.16-5.72,1.858-10.171c0.841-5.364,1.795-11.444,2.957-16.33c0.661-2.774,1.316-4.86,2.006-6.377
	c0.414-0.912,1.659-3.651,4.215-3.754l0.03-0.003h0.118h0.001h0.001h0.118l0.03,0.003c2.557,0.103,3.803,2.842,4.216,3.754
	c0.69,1.517,1.346,3.603,2.006,6.377c1.163,4.886,2.116,10.965,2.957,16.33c0.699,4.451,1.358,8.656,1.858,10.171
	c0.016,0.048,0.033,0.103,0.053,0.163c0.135,0.418,0.411,1.289,0.878,1.775c1.194,1.248,2.366,2.362,3.512,3.423V26.972
	C37.085,22.201,35.862,18.545,34.398,18.545z"/>
</svg>
