<?xml version="1.0" encoding="utf-8"?>
<!-- Generator: Adobe Illustrator 14.0.0, SVG Export Plug-In . SVG Version: 6.00 Build 43363)  -->
<!DOCTYPE svg PUBLIC "-//W3C//DTD SVG 1.0//EN" "http://www.w3.org/TR/2001/REC-SVG-20010904/DTD/svg10.dtd">
<svg version="1.0" id="Layer_1" xmlns="http://www.w3.org/2000/svg" xmlns:xlink="http://www.w3.org/1999/xlink" x="0px" y="0px"
	 width="100px" height="91.483px" viewBox="0 0 100 91.483" enable-background="new 0 0 100 91.483" xml:space="preserve">
<circle cx="30.735" cy="17.453" r="17.453"/>
<polygon points="100,69.922 99.997,69.922 75.742,48.362 75.742,63.421 45.588,63.421 45.588,64.258 45.588,75.591 45.588,76.424 
	75.742,76.424 75.742,91.483 99.997,69.924 100,69.924 99.998,69.923 "/>
<path d="M43.127,78.694V61.116H61.47V47.994c0-7.431-6.439-13.899-15.942-17.245c-3.3,4.606-8.693,7.611-14.792,7.611
	s-11.492-3.004-14.793-7.611C6.44,34.095,0,40.563,0,47.994v43.489h61.47v-9.435v-3.354H43.127z"/>
</svg>
