<?xml version="1.0" encoding="utf-8"?>
<!-- Generator: Adobe Illustrator 14.0.0, SVG Export Plug-In . SVG Version: 6.00 Build 43363)  -->
<!DOCTYPE svg PUBLIC "-//W3C//DTD SVG 1.0//EN" "http://www.w3.org/TR/2001/REC-SVG-20010904/DTD/svg10.dtd">
<svg version="1.0" id="Layer_1" xmlns="http://www.w3.org/2000/svg" xmlns:xlink="http://www.w3.org/1999/xlink" x="0px" y="0px"
	 width="100px" height="33.571px" viewBox="0 0 100 33.571" enable-background="new 0 0 100 33.571" xml:space="preserve">
<path d="M98.538,17.859C94.858,10.942,83.598,1.096,68.917,1.89c-0.529,0.028-1.086,0.051-1.665,0.068
	c5.866,4.765,11.658,11.921,11.236,15.111c-0.152,1.154-1.029,0.602-1.33-0.601c-0.435-1.737-7.335-12.266-13.733-14.466
	C52.596-1.722,48.916,0.737,45.175,1.555C51.208,6.31,57.35,13.788,56.917,17.069c-0.152,1.154-1.03,0.602-1.33-0.601
	C55.152,14.731,48.658,5.544,41.15,1.465c-7.668-1.952-13.27-0.986-16.831,0.666c5.793,4.764,11.442,11.787,11.026,14.938
	c-0.152,1.154-1.03,0.602-1.331-0.601c-0.434-1.737-5.361-9.293-12.937-13.836C-19.464,9.62,9.271,33.075,18.69,33.571h63.877
	C88.417,33.163,104.976,29.965,98.538,17.859z"/>
</svg>
