<?xml version="1.0" encoding="utf-8"?>
<!-- Generator: Adobe Illustrator 14.0.0, SVG Export Plug-In . SVG Version: 6.00 Build 43363)  -->
<!DOCTYPE svg PUBLIC "-//W3C//DTD SVG 1.0//EN" "http://www.w3.org/TR/2001/REC-SVG-20010904/DTD/svg10.dtd">
<svg version="1.0" id="Layer_1" xmlns="http://www.w3.org/2000/svg" xmlns:xlink="http://www.w3.org/1999/xlink" x="0px" y="0px"
	 width="100px" height="52.938px" viewBox="0 0 100 52.938" enable-background="new 0 0 100 52.938" xml:space="preserve">
<polygon points="52.846,25.046 47.154,25.046 47.154,0 52.846,0 52.846,25.046 "/>
<polygon points="35.039,29.817 22.534,8.123 27.466,5.28 39.971,26.975 35.039,29.817 "/>
<polygon points="26.92,40.032 5.264,27.509 8.115,22.582 29.771,35.104 26.92,40.032 "/>
<polygon points="64.967,29.816 60.035,26.975 72.534,5.281 77.466,8.123 64.967,29.816 "/>
<polygon points="73.08,40.037 70.229,35.109 91.886,22.582 94.736,27.509 73.08,40.037 "/>
<path d="M68.354,47.245C66.977,38.342,59.283,31.496,50,31.496s-16.977,6.846-18.353,15.749H0v5.692h31.647h5.778h25.151h5.777H100
	v-5.692H68.354z M37.425,47.245c1.301-5.748,6.44-10.057,12.575-10.057c6.136,0,11.275,4.309,12.576,10.057H37.425z"/>
</svg>
