<?xml version="1.0" encoding="utf-8"?>
<!-- Generator: Adobe Illustrator 14.0.0, SVG Export Plug-In . SVG Version: 6.00 Build 43363)  -->
<!DOCTYPE svg PUBLIC "-//W3C//DTD SVG 1.0//EN" "http://www.w3.org/TR/2001/REC-SVG-20010904/DTD/svg10.dtd">
<svg version="1.0" id="Layer_1" xmlns="http://www.w3.org/2000/svg" xmlns:xlink="http://www.w3.org/1999/xlink" x="0px" y="0px"
	 width="100px" height="31.788px" viewBox="0 0 100 31.788" enable-background="new 0 0 100 31.788" xml:space="preserve">
<path d="M97.461,10.871c-10.385,0-20.77,0-31.154,0c-0.547-0.959-1.386-1.575-2.328-1.575s-1.781,0.616-2.328,1.575
	c-1.309,0-2.616,0-3.924,0c-12.905,0-25.812,0-38.718,0C18.141,4.674,14.257,0,9.596,0C4.296,0,0,6.042,0,13.495
	s4.296,13.495,9.596,13.495c4.661,0,8.545-4.674,9.413-10.87c12.406,0,24.812,0,37.219,0c1.808,0,3.615,0,5.423,0
	c0.547,0.958,1.386,1.574,2.328,1.574s1.781-0.616,2.328-1.574c3.921,0,7.842,0,11.763,0v5.772c1.821,0,3.299,1.478,3.299,3.299
	c0,1.822-1.478,3.299-3.299,3.299v3.299h4.498c0-1.822,1.477-3.299,3.299-3.299c1.821,0,3.299,1.477,3.299,3.299h4.498v-3.299
	c-1.822,0-3.299-1.477-3.299-3.299c0-1.821,1.477-3.299,3.299-3.299v-5.772c1.254,0,2.508,0,3.762,0c0.012,0,0.024,0,0.036,0
	C100.846,16.119,100.846,10.871,97.461,10.871z M13.817,16.812c0,2.331-1.891,4.222-4.222,4.222s-4.221-1.891-4.221-4.222
	c0-1.347,0.633-2.544,1.615-3.317c-0.982-0.773-1.615-1.97-1.615-3.317c0-2.331,1.89-4.221,4.221-4.221s4.222,1.89,4.222,4.221
	c0,1.347-0.634,2.544-1.616,3.317C13.184,14.268,13.817,15.464,13.817,16.812z"/>
</svg>
