<?xml version="1.0" encoding="utf-8"?>
<!-- Generator: Adobe Illustrator 14.0.0, SVG Export Plug-In . SVG Version: 6.00 Build 43363)  -->
<!DOCTYPE svg PUBLIC "-//W3C//DTD SVG 1.0//EN" "http://www.w3.org/TR/2001/REC-SVG-20010904/DTD/svg10.dtd">
<svg version="1.0" id="Layer_1" xmlns="http://www.w3.org/2000/svg" xmlns:xlink="http://www.w3.org/1999/xlink" x="0px" y="0px"
	 width="100px" height="35.658px" viewBox="0 0 100 35.658" enable-background="new 0 0 100 35.658" xml:space="preserve">
<path d="M95.065,17.829C98.006,16.215,100,13.09,100,9.499C100,4.252,95.748,0,90.501,0s-9.499,4.252-9.499,9.499H18.997
	C18.997,4.252,14.745,0,9.499,0S0,4.252,0,9.499c0,3.591,1.995,6.716,4.936,8.331C1.995,19.443,0,22.568,0,26.16
	c0,5.246,4.252,9.499,9.499,9.499s9.499-4.253,9.499-9.499h62.005c0,5.246,4.253,9.499,9.499,9.499S100,31.405,100,26.16
	C100,22.568,98.006,19.443,95.065,17.829z"/>
</svg>
