<?xml version="1.0" encoding="utf-8"?>
<!-- Generator: Adobe Illustrator 14.0.0, SVG Export Plug-In . SVG Version: 6.00 Build 43363)  -->
<!DOCTYPE svg PUBLIC "-//W3C//DTD SVG 1.0//EN" "http://www.w3.org/TR/2001/REC-SVG-20010904/DTD/svg10.dtd">
<svg version="1.0" id="Layer_1" xmlns="http://www.w3.org/2000/svg" xmlns:xlink="http://www.w3.org/1999/xlink" x="0px" y="0px"
	 width="55.633px" height="100px" viewBox="0 0 55.633 100" enable-background="new 0 0 55.633 100" xml:space="preserve">
<path d="M24.985,76.898c-2.812,0-5.099,2.287-5.099,5.1c0,2.812,2.287,5.099,5.099,5.099c2.812,0,5.099-2.287,5.099-5.099
	C30.084,79.185,27.796,76.898,24.985,76.898z"/>
<path d="M24.985,73.285c-4.812,0-8.712,3.901-8.712,8.713c0,4.811,3.9,8.712,8.712,8.712c4.811,0,8.712-3.901,8.712-8.712
	C33.697,77.186,29.796,73.285,24.985,73.285z M24.985,88.285c-3.467,0-6.288-2.82-6.288-6.287c0-3.468,2.821-6.289,6.288-6.289
	s6.289,2.821,6.289,6.289C31.273,85.464,28.452,88.285,24.985,88.285z"/>
<g>
	<path d="M53.192,6.777c-2.206-3-5.391-5.03-8.779-6.476c-0.582-0.248-1.089-0.401-1.727-0.226c-0.561,0.154-1.046,0.529-1.34,1.03
		c-0.559,0.953-0.32,2.586,0.804,3.066c1.148,0.49,2.269,1.039,3.344,1.674c0.457,0.271,0.901,0.561,1.337,0.866
		c0.083,0.058,0.35,0.259,0.45,0.332c0.151,0.122,0.301,0.246,0.447,0.373c0.345,0.297,0.672,0.613,0.986,0.94
		c0.063,0.067,0.126,0.135,0.188,0.203l-2.102,0.005c-0.673-0.07-1.354,0.132-1.879,0.558c-0.577,0.468-0.773,1.028-0.935,1.723
		c-0.448,1.943-8.623,39.705-11.822,47.938c-0.558,1.433-3.858,2.085-6.623,2.382c-0.216-0.007-0.433-0.011-0.65-0.011
		c-1.116,0-2.21,0.088-3.278,0.257c0,0-0.001,0-0.001,0h0C12.8,62.806,5.826,69.73,4.355,78.519c-0.705,0-1.41,0-2.114,0
		C1.02,78.519,0,79.539,0,80.76s1.02,2.241,2.241,2.241c1.554,0,3.108,0,4.662,0C7.433,92.478,15.284,100,24.894,100
		c9.951,0,18.02-8.068,18.02-18.02h2.807c0-5.523-2.151-10.544-5.66-14.271c1.199-7.487,6.487-40.478,6.577-40.472
		c1.345,0.08,5.569-1.244,8.488-10.08C56.277,13.669,55.399,9.776,53.192,6.777z M24.894,94.9c-7.136,0-12.92-5.784-12.92-12.919
		c0-7.136,5.784-12.92,12.92-12.92c7.135,0,12.919,5.784,12.919,12.92C37.812,89.116,32.028,94.9,24.894,94.9z"/>
</g>
</svg>
