<?xml version="1.0" encoding="utf-8"?>
<!-- Generator: Adobe Illustrator 14.0.0, SVG Export Plug-In . SVG Version: 6.00 Build 43363)  -->
<!DOCTYPE svg PUBLIC "-//W3C//DTD SVG 1.0//EN" "http://www.w3.org/TR/2001/REC-SVG-20010904/DTD/svg10.dtd">
<svg version="1.0" id="Layer_1" xmlns="http://www.w3.org/2000/svg" xmlns:xlink="http://www.w3.org/1999/xlink" x="0px" y="0px"
	 width="59.975px" height="100px" viewBox="0 0 59.975 100" enable-background="new 0 0 59.975 100" xml:space="preserve">
<path d="M33.679,71.377c14.799-1.826,26.296-14.466,26.296-29.751c0-7.729-2.94-14.785-7.761-20.107
	c2.77-2.779,4.334-6.228,4.334-9.802C56.548,7.27,54.16,3,49.997,0l-4.315,5.988c2.247,1.62,3.484,3.654,3.484,5.729
	c0,1.763-0.902,3.494-2.55,4.97c-4.763-3.186-10.482-5.048-16.629-5.048c-6.147,0-11.866,1.862-16.629,5.048
	c-1.647-1.476-2.55-3.207-2.55-4.97c0-2.075,1.238-4.109,3.484-5.729L9.978,0C5.814,3,3.427,7.27,3.427,11.717
	c0,3.575,1.564,7.023,4.334,9.802C2.94,26.841,0,33.897,0,41.626c0,15.285,11.497,27.925,26.296,29.751v10.739H4.936v7.382h21.361
	V100h7.382V89.498h21.36v-7.382h-21.36V71.377z M7.382,41.626c0-12.464,10.141-22.605,22.605-22.605
	c12.465,0,22.605,10.141,22.605,22.605c0,12.464-10.141,22.604-22.605,22.604C17.523,64.23,7.382,54.09,7.382,41.626z"/>
</svg>
