<?xml version="1.0" encoding="utf-8"?>
<!-- Generator: Adobe Illustrator 14.0.0, SVG Export Plug-In . SVG Version: 6.00 Build 43363)  -->
<!DOCTYPE svg PUBLIC "-//W3C//DTD SVG 1.0//EN" "http://www.w3.org/TR/2001/REC-SVG-20010904/DTD/svg10.dtd">
<svg version="1.0" id="Layer_1" xmlns="http://www.w3.org/2000/svg" xmlns:xlink="http://www.w3.org/1999/xlink" x="0px" y="0px"
	 width="95.446px" height="100px" viewBox="-22.661 -23.741 95.446 100" enable-background="new -22.661 -23.741 95.446 100"
	 xml:space="preserve">
<path d="M69.454,32.798c0.216-1.638,3.235-4.061,3.332-5.712c0.175-3-3.879-8.87-6.664-9.997
	c-4.422-1.789-26.896-0.952-26.896-0.952c-2.197-3.84,3.914-13.323,5.594-17.416c2.465-5.999,2.049-13.959-1.071-18.048
	C39.94-24.323,32.945-24.656,32.8-22.42C31.758-6.206,28.654-1.708,24.498,1.498c-2.496,1.926-4.678,3.611-5.83,6.547
	C11.585,26.083,5.87,29.789,3.135,30.418h-1.75l0,0H0.868v40.938l21.463,3.808c0,0,26.066,2.466,34.274,0
	c2.582-0.776,7.039-4.653,8.092-7.14c0.601-1.428-0.234-4.809,0.477-6.188c1.049-2.043,5.478-4.601,5.474-7.378
	c-0.004-1.98-2.31-5.405-2.142-7.379c0.167-1.975,4.288-4.684,4.284-6.664C72.782,38.337,69.182,34.858,69.454,32.798z"/>
<path d="M-2.47,69.743c0,2.353-2.005,4.262-4.477,4.262h-11.236c-2.473,0-4.479-1.909-4.479-4.262V32.429
	c0-2.354,2.005-4.266,4.479-4.266h11.237c2.471,0,4.477,1.912,4.477,4.266v37.313H-2.47z"/>
</svg>
