<?xml version="1.0" encoding="utf-8"?>
<!-- Generator: Adobe Illustrator 14.0.0, SVG Export Plug-In . SVG Version: 6.00 Build 43363)  -->
<!DOCTYPE svg PUBLIC "-//W3C//DTD SVG 1.0//EN" "http://www.w3.org/TR/2001/REC-SVG-20010904/DTD/svg10.dtd">
<svg version="1.0" id="Layer_1" xmlns="http://www.w3.org/2000/svg" xmlns:xlink="http://www.w3.org/1999/xlink" x="0px" y="0px"
	 width="82.626px" height="100px" viewBox="0 0 82.626 100" enable-background="new 0 0 82.626 100" xml:space="preserve">
<path d="M41.941,47.528c0.305,1.607,0.439,3.262,0.439,3.262l5.333,5.333l4.205-4.204l4.204-4.205l-5.333-5.333
	c0,0-1.654-0.134-3.262-0.439c8.905-11.638,8.042-28.352-2.603-38.997l-41.98,41.98C13.589,55.57,30.303,56.433,41.941,47.528z"/>
<path d="M79.354,86.88l2.972,0.864c1.665-5.728-4.104-12.012-4.822-12.73l-22.03-24.463l-2.461,2.461l-2.462,2.461l24.464,22.03
	C76.606,79.096,80.341,83.488,79.354,86.88z"/>
<rect x="-7.783" y="20.613" transform="matrix(-0.7071 0.7071 -0.7071 -0.7071 52.8763 21.9027)" width="59.37" height="2.579"/>
<path d="M82.625,97.723c0,1.257-1.019,2.276-2.275,2.276s-2.277-1.02-2.277-2.276s2.277-8.346,2.277-8.346
	S82.625,96.466,82.625,97.723z"/>
</svg>
