<?xml version="1.0" encoding="utf-8"?>
<!-- Generator: Adobe Illustrator 14.0.0, SVG Export Plug-In . SVG Version: 6.00 Build 43363)  -->
<!DOCTYPE svg PUBLIC "-//W3C//DTD SVG 1.0//EN" "http://www.w3.org/TR/2001/REC-SVG-20010904/DTD/svg10.dtd">
<svg version="1.0" id="Layer_1" xmlns="http://www.w3.org/2000/svg" xmlns:xlink="http://www.w3.org/1999/xlink" x="0px" y="0px"
	 width="98.837px" height="100px" viewBox="0 0 98.837 100" enable-background="new 0 0 98.837 100" xml:space="preserve">
<path id="path3251" d="M0,0v35.105l10.77-10.886l21.371,21.772l13.271-13.586l-21.37-21.604L34.728,0H0z"/>
<path id="path3268" d="M98.837,0v35.105L88.069,24.219l-21.37,21.772L53.425,32.406l21.371-21.604L64.11,0H98.837z"/>
<path id="path3274" d="M0,100V64.894l10.77,10.885L32.141,54.01l13.271,13.584l-21.37,21.603L34.728,100H0z"/>
<path id="path3276" d="M98.837,100V64.894L88.069,75.779L66.699,54.01L53.425,67.594l21.371,21.603L64.11,100H98.837z"/>
</svg>
