<?xml version="1.0" encoding="utf-8"?>
<!-- Generator: Adobe Illustrator 14.0.0, SVG Export Plug-In . SVG Version: 6.00 Build 43363)  -->
<!DOCTYPE svg PUBLIC "-//W3C//DTD SVG 1.0//EN" "http://www.w3.org/TR/2001/REC-SVG-20010904/DTD/svg10.dtd">
<svg version="1.0" id="Layer_1" xmlns="http://www.w3.org/2000/svg" xmlns:xlink="http://www.w3.org/1999/xlink" x="0px" y="0px"
	 width="100px" height="100.001px" viewBox="0 0 100 100.001" enable-background="new 0 0 100 100.001" xml:space="preserve">
<path d="M57.455,20.92h-24.74v58.379h11.25V60.132h12.999c9.82,0.017,19.311-8.36,19.33-19.553
	C76.275,30.588,68.297,20.899,57.455,20.92z M56.744,49.372H44.131v-17.64h12.778c4.125-0.004,8.294,3.836,8.3,8.956
	C65.203,45.826,61.318,49.386,56.744,49.372z"/>
<path d="M85.379,14.65C75.941,5.203,63.393,0,50.017,0C36.655,0,24.095,5.203,14.649,14.65C5.207,24.097,0.004,36.661,0,50.028
	c0.004,13.347,5.205,25.893,14.647,35.333c9.447,9.44,22.001,14.64,35.375,14.64h0.003h0.02c13.349,0,25.896-5.202,35.335-14.643
	c9.44-9.443,14.634-21.991,14.62-35.325C100.013,36.668,94.82,24.101,85.379,14.65z M50.039,11.15
	c10.372,0,20.122,4.04,27.454,11.38c7.332,7.343,11.366,17.106,11.358,27.502c0.005,8.247-2.549,16.1-7.286,22.661L27.347,18.473
	C33.737,13.866,41.574,11.15,50.039,11.15z M50.008,88.85h-0.003c-21.42,0-38.853-17.415-38.855-38.822
	c0-8.736,2.9-16.81,7.786-23.312l54.385,54.385c-6.68,5.028-14.77,7.748-23.276,7.748H50.008z"/>
</svg>
