<?xml version="1.0" encoding="utf-8"?>
<!-- Generator: Adobe Illustrator 14.0.0, SVG Export Plug-In . SVG Version: 6.00 Build 43363)  -->
<!DOCTYPE svg PUBLIC "-//W3C//DTD SVG 1.0//EN" "http://www.w3.org/TR/2001/REC-SVG-20010904/DTD/svg10.dtd">
<svg version="1.0" id="Layer_1" xmlns="http://www.w3.org/2000/svg" xmlns:xlink="http://www.w3.org/1999/xlink" x="0px" y="0px"
	 width="100px" height="77.023px" viewBox="0 0 100 77.023" enable-background="new 0 0 100 77.023" xml:space="preserve">
<path d="M99.961,55.302c-1.526-5.444-3.054-10.888-4.581-16.332c-2.63-9.38-5.261-18.76-7.892-28.141
	c-0.938-3.346-1.876-6.691-2.815-10.038c-0.07-0.252-0.202-0.437-0.366-0.561C84.139,0.09,83.916,0,83.632,0
	C76.211,0,68.79,0,61.369,0C56.196,0,51.022,0,45.85,0c-8.958,0-17.917,0-26.876,0c-0.869,0-1.737,0-2.606,0
	c-0.482,0-0.911,0.33-1.041,0.792C13.8,6.236,12.273,11.68,10.746,17.124c-2.63,9.38-5.261,18.761-7.892,28.141
	c-0.938,3.346-1.876,6.692-2.815,10.038c-0.19,0.677,0.342,1.366,1.041,1.366c6.217,0,12.435,0,18.652,0c8.975,0,17.95,0,26.925,0
	c3.857,0,7.715,0,11.573,0c9.637,0,19.273,0,28.911,0c3.927,0,7.853,0,11.779,0C99.62,56.668,100.151,55.979,99.961,55.302z"/>
<path d="M98.92,59.137c-3.714,0-7.427,0-11.14,0c-8.722,0-17.443,0-26.164,0c-10.1,0-20.2,0-30.3,0c-7.851,0-15.701,0-23.551,0
	c-2.229,0-4.458,0-6.686,0c-0.588,0-1.08,0.491-1.08,1.08c0,5.242,0,10.485,0,15.728c0,0.588,0.491,1.08,1.08,1.08
	c3.713,0,7.427,0,11.14,0c8.721,0,17.442,0,26.163,0c10.1,0,20.2,0,30.3,0c7.85,0,15.701,0,23.55,0c2.229,0,4.458,0,6.687,0
	c0.335,0,0.589-0.126,0.763-0.316c0.19-0.174,0.316-0.428,0.316-0.763c0-5.243,0-10.485,0-15.728
	C100,59.627,99.509,59.137,98.92,59.137z M10.837,71.272c-1.763,0-3.192-1.429-3.192-3.192c0-1.763,1.429-3.192,3.192-3.192
	c1.763,0,3.192,1.429,3.192,3.192C14.029,69.843,12.6,71.272,10.837,71.272z M66.957,71.272c-1.763,0-3.192-1.429-3.192-3.192
	c0-1.763,1.429-3.192,3.192-3.192s3.192,1.429,3.192,3.192C70.149,69.843,68.72,71.272,66.957,71.272z M78.06,71.272
	c-1.764,0-3.192-1.429-3.192-3.192c0-1.763,1.429-3.192,3.192-3.192s3.192,1.429,3.192,3.192
	C81.252,69.843,79.824,71.272,78.06,71.272z M89.164,71.272c-1.764,0-3.193-1.429-3.193-3.192c0-1.763,1.43-3.192,3.193-3.192
	c1.763,0,3.191,1.429,3.191,3.192C92.355,69.843,90.926,71.272,89.164,71.272z"/>
</svg>
