<?xml version="1.0" encoding="utf-8"?>
<!-- Generator: Adobe Illustrator 14.0.0, SVG Export Plug-In . SVG Version: 6.00 Build 43363)  -->
<!DOCTYPE svg PUBLIC "-//W3C//DTD SVG 1.0//EN" "http://www.w3.org/TR/2001/REC-SVG-20010904/DTD/svg10.dtd">
<svg version="1.0" id="Layer_1" xmlns="http://www.w3.org/2000/svg" xmlns:xlink="http://www.w3.org/1999/xlink" x="0px" y="0px"
	 width="81.26px" height="100px" viewBox="0 0 81.26 100" enable-background="new 0 0 81.26 100" xml:space="preserve">
<path d="M43.103,56.022c0-9.754,0-19.505,0-29.259c0-3.188-4.945-3.188-4.945,0c0,9.753,0,19.505,0,29.259
	C38.158,59.21,43.103,59.21,43.103,56.022L43.103,56.022z"/>
<path d="M40.63,53.549c-9.753,0-19.505,0-29.258,0c-3.189,0-3.189,4.944,0,4.944c9.753,0,19.505,0,29.258,0
	C43.819,58.494,43.819,53.549,40.63,53.549L40.63,53.549z"/>
<path d="M78.227,34.856l2.606-4.529l-0.005-0.002c1.525-2.391-1.105-7.7-6.136-12.451c0.858-1.023,1.717-2.046,2.576-3.069
	c1.299-1.548-0.923-3.794-2.231-2.232c-0.91,1.083-1.819,2.167-2.728,3.25c-2.156-1.696-4.332-2.992-6.294-3.801
	C64.065,6.133,61.269,0,58.091,0H40.597h-1.413H23.169c-3.178,0-5.974,6.133-7.925,12.021c-1.961,0.809-4.137,2.105-6.292,3.8
	c-0.909-1.082-1.817-2.165-2.726-3.249c-1.31-1.562-3.531,0.684-2.232,2.232c0.858,1.022,1.717,2.046,2.575,3.068
	c-5.031,4.752-7.662,10.062-6.137,12.452l-0.003,0.002l2.605,4.529c2.399-3.957,5.378-7.551,8.837-10.663
	c0.631,0.752,1.262,1.505,1.893,2.256C5.717,33.767,0.658,44.314,0.658,56.022c0,11.706,5.059,22.254,13.106,29.572
	c-3.257,3.881-6.513,7.762-9.771,11.643c-1.299,1.547,0.922,3.793,2.232,2.231c3.318-3.952,6.635-7.906,9.952-11.858
	c6.765,5.248,15.248,8.384,24.453,8.384c9.206,0,17.687-3.135,24.452-8.384c3.318,3.954,6.636,7.908,9.952,11.861
	c1.312,1.562,3.532-0.683,2.232-2.231c-3.257-3.882-6.513-7.763-9.771-11.645c8.047-7.318,13.106-17.865,13.106-29.573
	c0-11.708-5.06-22.255-13.106-29.573c0.631-0.751,1.262-1.503,1.893-2.256C72.849,27.305,75.829,30.899,78.227,34.856z
	 M75.658,56.022c0,19.315-15.713,35.027-35.027,35.027S5.603,75.337,5.603,56.022c0-19.315,15.713-35.028,35.027-35.028
	S75.658,36.707,75.658,56.022z M40.63,16.049c-9.206,0-17.688,3.137-24.453,8.385c-0.634-0.755-1.268-1.512-1.902-2.267
	c3.589-2.82,7.622-5.147,12.018-6.855l-4.716-3.585l-0.001,0.002c-0.62-0.517-1.524-0.721-2.614-0.662
	c1.615-4.387,3.276-7.617,4.208-7.909h17.457l17.404-0.006c0.972,0.296,2.646,3.527,4.266,7.915
	c-1.089-0.06-1.991,0.145-2.611,0.662l-0.001-0.002l-4.717,3.585c4.396,1.708,8.429,4.036,12.019,6.855
	c-0.635,0.756-1.27,1.512-1.902,2.267C58.318,19.186,49.836,16.049,40.63,16.049z"/>
</svg>
