<?xml version="1.0" encoding="utf-8"?>
<!-- Generator: Adobe Illustrator 14.0.0, SVG Export Plug-In . SVG Version: 6.00 Build 43363)  -->
<!DOCTYPE svg PUBLIC "-//W3C//DTD SVG 1.0//EN" "http://www.w3.org/TR/2001/REC-SVG-20010904/DTD/svg10.dtd">
<svg version="1.0" id="Layer_1" xmlns="http://www.w3.org/2000/svg" xmlns:xlink="http://www.w3.org/1999/xlink" x="0px" y="0px"
	 width="92.331px" height="100px" viewBox="0 0 92.331 100" enable-background="new 0 0 92.331 100" xml:space="preserve">
<path id="path9" d="M26.911,47.056c0-10.591,8.493-19.18,18.972-19.18c10.479,0,18.973,8.586,18.973,19.18
	c0,10.593-8.494,19.185-18.973,19.185C35.404,66.239,26.911,57.647,26.911,47.056 M45.883,57.8c5.873,0,10.624-4.812,10.624-10.744
	c0-5.929-4.751-10.744-10.624-10.744c-5.866,0-10.622,4.815-10.622,10.744C35.259,52.988,40.017,57.8,45.883,57.8z"/>
<rect id="rect11" x="33.357" y="74.679" width="25.042" height="8.438"/>
<rect id="rect13" x="33.357" y="91.553" width="25.042" height="8.447"/>
<polyline id="polyline15" points="11.803,30.508 17.708,36.483 35.418,18.577 29.517,12.603 11.803,30.508 "/>
<polyline id="polyline17" points="0,18.674 5.898,24.645 23.611,6.638 17.708,0.767 0,18.674 "/>
<polyline id="polyline19" points="76.867,0 57.419,19.657 72.885,35.194 92.331,15.733 76.867,0 "/>
</svg>
